<svg width="16" height="16" viewBox="0 0 16 16" fill="none" xmlns="http://www.w3.org/2000/svg">
<path fill-rule="evenodd" clip-rule="evenodd" d="M12.3672 3.63168C12.543 3.80742 12.543 4.09234 12.3672 4.26808L4.26722 12.3681C4.09149 12.5438 3.80656 12.5438 3.63083 12.3681C3.45509 12.1923 3.45509 11.9074 3.63083 11.7317L11.7308 3.63168C11.9066 3.45594 12.1915 3.45594 12.3672 3.63168Z" fill="#333333"/>
<path fill-rule="evenodd" clip-rule="evenodd" d="M3.63083 3.63168C3.80656 3.45594 4.09149 3.45594 4.26722 3.63168L12.3672 11.7317C12.543 11.9074 12.543 12.1923 12.3672 12.3681C12.1915 12.5438 11.9066 12.5438 11.7308 12.3681L3.63083 4.26808C3.45509 4.09234 3.45509 3.80742 3.63083 3.63168Z" fill="#333333"/>
</svg>
