<svg width="623" height="464" viewBox="0 0 623 464" fill="none" xmlns="http://www.w3.org/2000/svg">
<g clip-path="url(#clip0)">
<path d="M140.86 121.639L142.879 125.714L147.389 126.374L144.125 129.552L144.897 134.037L140.86 131.919L136.836 134.037L137.608 129.552L134.344 126.374L138.854 125.714L140.86 121.639Z" fill="#EBEBEB"/>
<path d="M544.128 313.81L546.146 317.897L550.657 318.557L547.392 321.722L548.165 326.22L544.128 324.102L540.103 326.22L540.876 321.722L537.611 318.557L542.122 317.897L544.128 313.81Z" fill="#F5F5F5"/>
<path d="M464.26 432.292L466.278 436.367L470.776 437.027L467.512 440.204L468.284 444.69L464.26 442.572L460.235 444.69L460.995 440.204L457.743 437.027L462.241 436.367L464.26 432.292Z" fill="#F5F5F5"/>
<path d="M281.52 49.2469L282.268 50.767L283.95 51.0162C284.044 51.0285 284.132 51.0673 284.205 51.128C284.277 51.1887 284.331 51.2688 284.36 51.359C284.389 51.4492 284.391 51.5457 284.367 51.6373C284.343 51.7288 284.293 51.8116 284.224 51.876L282.978 53.0597L283.265 54.7293C283.279 54.8222 283.268 54.9174 283.232 55.0044C283.196 55.0913 283.137 55.1666 283.061 55.2221C282.985 55.2775 282.895 55.3108 282.801 55.3184C282.707 55.326 282.613 55.3075 282.529 55.2651L281.034 54.4676L279.539 55.2651C279.455 55.3075 279.361 55.326 279.267 55.3184C279.173 55.3108 279.084 55.2775 279.008 55.2221C278.932 55.1666 278.872 55.0913 278.836 55.0044C278.8 54.9174 278.789 54.8222 278.804 54.7293L279.078 53.0597L277.832 51.876C277.762 51.8108 277.713 51.727 277.689 51.6345C277.666 51.542 277.669 51.4447 277.699 51.3541C277.73 51.2636 277.785 51.1836 277.859 51.1237C277.934 51.0638 278.024 51.0265 278.119 51.0162L279.788 50.767L280.536 49.2469C280.566 49.1394 280.63 49.0446 280.719 48.977C280.808 48.9095 280.916 48.873 281.028 48.873C281.14 48.873 281.248 48.9095 281.337 48.977C281.426 49.0446 281.49 49.1394 281.52 49.2469Z" fill="#EBEBEB"/>
<path d="M75.7313 412.892L76.4789 414.4L78.1486 414.649C78.2434 414.662 78.3326 414.701 78.4061 414.763C78.4796 414.824 78.5344 414.905 78.5642 414.995C78.5941 415.086 78.5978 415.184 78.575 415.277C78.5522 415.37 78.5037 415.454 78.4352 415.521L77.1892 416.692L77.4757 418.362C77.4905 418.455 77.4792 418.55 77.4433 418.637C77.4074 418.724 77.3481 418.799 77.2721 418.855C77.196 418.91 77.1062 418.943 77.0124 418.951C76.9186 418.959 76.8246 418.94 76.7406 418.898L75.2454 418.113L73.7502 418.898C73.6663 418.94 73.5722 418.959 73.4784 418.951C73.3846 418.943 73.2948 418.91 73.2188 418.855C73.1427 418.799 73.0835 418.724 73.0475 418.637C73.0116 418.55 73.0004 418.455 73.0151 418.362L73.3017 416.692L72.0557 415.521C71.9873 415.455 71.9387 415.371 71.9152 415.279C71.8918 415.187 71.8944 415.091 71.9229 415C71.9514 414.91 72.0045 414.829 72.0764 414.767C72.1483 414.705 72.236 414.664 72.3298 414.649L73.9994 414.4L74.7595 412.892C74.7928 412.789 74.8577 412.7 74.945 412.636C75.0323 412.573 75.1375 412.539 75.2454 412.539C75.3533 412.539 75.4585 412.573 75.5458 412.636C75.6331 412.7 75.698 412.789 75.7313 412.892Z" fill="#F5F5F5"/>
<path d="M109.336 33.2358L110.084 34.7559L111.766 34.9926C111.859 35.0076 111.947 35.0484 112.019 35.1105C112.091 35.1725 112.144 35.2534 112.172 35.344C112.201 35.4345 112.204 35.5313 112.18 35.6233C112.157 35.7153 112.108 35.7989 112.04 35.8649L110.794 37.1109L111.08 38.768C111.1 38.8621 111.093 38.9599 111.058 39.0497C111.024 39.1395 110.964 39.2174 110.886 39.274C110.809 39.3306 110.716 39.3636 110.62 39.3689C110.524 39.3742 110.429 39.3516 110.345 39.3038L108.85 38.5188L107.355 39.3038C107.271 39.3516 107.176 39.3742 107.08 39.3689C106.984 39.3636 106.891 39.3306 106.814 39.274C106.736 39.2174 106.676 39.1395 106.642 39.0497C106.607 38.9599 106.6 38.8621 106.62 38.768L106.894 37.1109L105.648 35.8649C105.579 35.7981 105.531 35.7135 105.508 35.6206C105.485 35.5276 105.489 35.4302 105.519 35.3393C105.549 35.2484 105.603 35.1677 105.677 35.1064C105.75 35.0451 105.84 35.0057 105.934 34.9926L107.604 34.7559L108.401 33.2358C108.441 33.1452 108.507 33.0683 108.59 33.0142C108.673 32.9602 108.77 32.9315 108.869 32.9315C108.968 32.9315 109.065 32.9602 109.147 33.0142C109.23 33.0683 109.296 33.1452 109.336 33.2358Z" fill="#EBEBEB"/>
<path d="M107.317 333.547C107.32 333.875 107.225 334.197 107.044 334.471C106.863 334.745 106.605 334.959 106.303 335.087C106 335.214 105.667 335.249 105.344 335.186C105.022 335.123 104.726 334.967 104.493 334.735C104.26 334.504 104.101 334.209 104.036 333.887C103.971 333.565 104.003 333.231 104.128 332.928C104.253 332.624 104.465 332.365 104.738 332.182C105.011 332 105.332 331.902 105.66 331.902C106.097 331.902 106.517 332.075 106.827 332.383C107.138 332.691 107.314 333.109 107.317 333.547Z" fill="#EBEBEB"/>
<path d="M343.484 126.175C343.487 126.503 343.392 126.825 343.211 127.099C343.03 127.373 342.772 127.587 342.47 127.715C342.167 127.842 341.834 127.877 341.511 127.814C341.189 127.752 340.893 127.595 340.66 127.364C340.427 127.132 340.268 126.837 340.203 126.515C340.138 126.194 340.17 125.86 340.295 125.556C340.42 125.253 340.632 124.993 340.905 124.81C341.178 124.628 341.499 124.53 341.827 124.53C342.044 124.529 342.259 124.57 342.46 124.652C342.661 124.734 342.844 124.855 342.998 125.007C343.152 125.16 343.274 125.342 343.358 125.543C343.441 125.743 343.484 125.958 343.484 126.175Z" fill="#EBEBEB"/>
<path d="M257.56 34.6064C257.56 34.9342 257.463 35.2546 257.281 35.5271C257.099 35.7996 256.84 36.012 256.537 36.1374C256.235 36.2629 255.901 36.2957 255.58 36.2317C255.258 36.1678 254.963 36.01 254.731 35.7782C254.5 35.5464 254.342 35.2512 254.278 34.9297C254.214 34.6082 254.247 34.275 254.372 33.9722C254.498 33.6694 254.71 33.4106 254.983 33.2285C255.255 33.0464 255.575 32.9492 255.903 32.9492C256.342 32.9525 256.761 33.1281 257.071 33.4382C257.381 33.7483 257.557 34.1679 257.56 34.6064Z" fill="#F5F5F5"/>
<path d="M260.185 438.489C265.108 437.328 268.156 432.395 266.995 427.473C265.833 422.55 260.9 419.501 255.978 420.663C251.055 421.825 248.006 426.757 249.168 431.68C250.33 436.603 255.262 439.651 260.185 438.489Z" fill="#F0F0F0"/>
<path d="M254.931 424.218C253.055 424.214 251.226 424.808 249.71 425.913C248.936 427.689 248.746 429.666 249.167 431.557C249.589 433.448 250.6 435.157 252.056 436.436C253.511 437.716 255.335 438.5 257.265 438.675C259.195 438.851 261.131 438.409 262.793 437.413C263.529 436.052 263.899 434.523 263.866 432.976C263.834 431.429 263.4 429.917 262.607 428.588C261.815 427.259 260.69 426.159 259.345 425.395C257.999 424.631 256.478 424.23 254.931 424.231V424.218Z" fill="#E6E6E6"/>
<path d="M184.01 270.399H108.19V236.171L184.01 146.036H220.293V238.115H239.095V270.399H220.293V298.409H184.01V270.399ZM184.01 238.115V190.966L143.938 238.115H184.01Z" fill="#FFC100"/>
<path d="M252.066 222.889C252.066 194.406 257.191 174.47 267.442 163.081C277.692 151.693 293.313 146.003 314.304 146.011C324.38 146.011 332.657 147.257 339.137 149.749C345.023 151.87 350.412 155.173 354.973 159.456C358.818 163.126 362.075 167.367 364.63 172.028C367.158 176.894 369.063 182.06 370.299 187.403C373.116 198.818 374.522 210.535 374.486 222.291C374.486 249.471 369.888 269.361 360.692 281.962C351.497 294.564 335.66 300.868 313.182 300.877C300.573 300.877 290.385 298.866 282.618 294.846C274.789 290.76 268.194 284.656 263.517 277.165C259.903 271.65 257.092 264.103 255.081 254.525C252.995 244.111 251.984 233.51 252.066 222.889ZM293.359 222.989C293.359 242.094 295.041 255.123 298.405 262.076C301.769 269.029 306.658 272.522 313.07 272.555C315.105 272.578 317.125 272.196 319.011 271.433C320.898 270.669 322.614 269.539 324.06 268.107C327.167 265.141 329.451 260.456 330.913 254.052C332.375 247.647 333.106 237.679 333.106 224.148C333.106 204.262 331.42 190.892 328.047 184.039C324.675 177.186 319.616 173.764 312.871 173.772C305.993 173.772 301.009 177.265 297.919 184.251C294.829 191.237 293.309 204.15 293.359 222.989Z" fill="#FFC100"/>
<path d="M463.188 270.399H387.369V236.172L463.188 146.036H499.472V238.116H518.336V270.399H499.472V298.41H463.188V270.399ZM463.188 238.116V190.967L423.129 238.116H463.188Z" fill="#FFC100"/>
<g opacity="0.3">
<path opacity="0.3" d="M250.446 93.4425C250.446 93.9039 250.309 94.3548 250.053 94.7383C249.796 95.1217 249.431 95.4204 249.005 95.5963C248.578 95.7723 248.109 95.8177 247.657 95.7268C247.205 95.6359 246.79 95.4127 246.464 95.0856C246.139 94.7585 245.918 94.3422 245.829 93.8894C245.741 93.4366 245.789 92.9677 245.967 92.5422C246.145 92.1167 246.446 91.7536 246.831 91.4991C247.216 91.2446 247.667 91.11 248.129 91.1125C248.434 91.1125 248.736 91.1728 249.018 91.2901C249.3 91.4073 249.556 91.5792 249.772 91.7957C249.987 92.0122 250.158 92.2692 250.273 92.5518C250.389 92.8344 250.448 93.1371 250.446 93.4425Z" fill="#FFC100"/>
<path opacity="0.3" d="M90.9211 182.943C91.8294 182.943 92.5658 182.206 92.5658 181.298C92.5658 180.39 91.8294 179.653 90.9211 179.653C90.0127 179.653 89.2764 180.39 89.2764 181.298C89.2764 182.206 90.0127 182.943 90.9211 182.943Z" fill="#FFC100"/>
<path opacity="0.3" d="M362.649 423.134C363.949 423.134 365.004 422.08 365.004 420.779C365.004 419.479 363.949 418.424 362.649 418.424C361.348 418.424 360.294 419.479 360.294 420.779C360.294 422.08 361.348 423.134 362.649 423.134Z" fill="#FFC100"/>
<path opacity="0.3" d="M419.28 327.317C420.188 327.317 420.924 326.58 420.924 325.672C420.924 324.764 420.188 324.027 419.28 324.027C418.371 324.027 417.635 324.764 417.635 325.672C417.635 326.58 418.371 327.317 419.28 327.317Z" fill="#FFC100"/>
<path opacity="0.3" d="M528.516 31.1425C528.516 31.4678 528.42 31.7858 528.239 32.0563C528.058 32.3267 527.801 32.5375 527.501 32.662C527.2 32.7865 526.869 32.8191 526.55 32.7556C526.231 32.6922 525.938 32.5355 525.708 32.3055C525.478 32.0755 525.322 31.7824 525.258 31.4634C525.195 31.1443 525.227 30.8136 525.352 30.5131C525.476 30.2126 525.687 29.9557 525.958 29.775C526.228 29.5943 526.546 29.4978 526.871 29.4978C527.307 29.4978 527.726 29.6711 528.034 29.9795C528.343 30.288 528.516 30.7063 528.516 31.1425Z" fill="#FFC100"/>
<path opacity="0.3" d="M346.015 84.272C346.923 84.272 347.66 83.5356 347.66 82.6272C347.66 81.7189 346.923 80.9825 346.015 80.9825C345.106 80.9825 344.37 81.7189 344.37 82.6272C344.37 83.5356 345.106 84.272 346.015 84.272Z" fill="#FFC100"/>
</g>
<path d="M175.973 84.2844C191.05 84.2844 203.273 72.0619 203.273 56.9846C203.273 41.9073 191.05 29.6847 175.973 29.6847C160.895 29.6847 148.673 41.9073 148.673 56.9846C148.673 72.0619 160.895 84.2844 175.973 84.2844Z" fill="#FFC100"/>
<path opacity="0.7" d="M175.973 84.2844C191.05 84.2844 203.273 72.0619 203.273 56.9846C203.273 41.9073 191.05 29.6847 175.973 29.6847C160.895 29.6847 148.673 41.9073 148.673 56.9846C148.673 72.0619 160.895 84.2844 175.973 84.2844Z" fill="white"/>
<path opacity="0.2" d="M166.565 36.3882C162.848 36.3768 159.167 37.1274 155.75 38.5936C151.551 43.2087 149.059 49.1223 148.688 55.3507C148.317 61.5791 150.09 67.7468 153.712 72.8276C157.333 77.9083 162.585 81.5959 168.594 83.2768C174.603 84.9577 181.006 84.5306 186.738 82.0665C190.292 78.1499 192.633 73.2856 193.475 68.0644C194.318 62.8432 193.626 57.4897 191.485 52.6539C189.343 47.8181 185.844 43.708 181.412 40.8228C176.979 37.9376 171.804 36.4014 166.516 36.4006L166.565 36.3882Z" fill="#FFC100"/>
<path opacity="0.2" d="M163.849 43.6025C163.849 44.0954 163.703 44.5772 163.429 44.987C163.155 45.3968 162.766 45.7162 162.311 45.9048C161.856 46.0934 161.354 46.1428 160.871 46.0466C160.388 45.9505 159.944 45.7131 159.595 45.3646C159.247 45.0161 159.009 44.5721 158.913 44.0887C158.817 43.6053 158.866 43.1042 159.055 42.6488C159.244 42.1935 159.563 41.8043 159.973 41.5305C160.383 41.2567 160.864 41.1105 161.357 41.1105C162.018 41.1105 162.652 41.3731 163.119 41.8404C163.587 42.3077 163.849 42.9416 163.849 43.6025Z" fill="#FFC100"/>
<path opacity="0.2" d="M193.206 41.1105C193.206 41.6034 193.06 42.0852 192.786 42.495C192.512 42.9048 192.123 43.2242 191.667 43.4128C191.212 43.6014 190.711 43.6508 190.228 43.5546C189.744 43.4585 189.3 43.2211 188.952 42.8726C188.603 42.5241 188.366 42.0801 188.27 41.5967C188.173 41.1133 188.223 40.6122 188.411 40.1569C188.6 39.7015 188.919 39.3123 189.329 39.0385C189.739 38.7647 190.221 38.6185 190.714 38.6185C191.375 38.6185 192.008 38.8811 192.476 39.3484C192.943 39.8158 193.206 40.4496 193.206 41.1105Z" fill="#FFC100"/>
<path opacity="0.2" d="M188.221 58.9034C188.221 59.7117 187.981 60.5019 187.532 61.174C187.083 61.846 186.445 62.3699 185.698 62.6792C184.951 62.9885 184.129 63.0695 183.336 62.9118C182.544 62.7541 181.815 62.3648 181.244 61.7933C180.672 61.2217 180.283 60.4935 180.125 59.7007C179.968 58.9079 180.049 58.0862 180.358 57.3394C180.667 56.5926 181.191 55.9544 181.863 55.5053C182.535 55.0562 183.325 54.8165 184.134 54.8165C185.218 54.8165 186.257 55.2471 187.024 56.0135C187.79 56.78 188.221 57.8195 188.221 58.9034Z" fill="#FFC100"/>
<path opacity="0.2" d="M175.238 70.5535C175.238 71.6329 174.918 72.688 174.318 73.5855C173.719 74.483 172.866 75.1825 171.869 75.5956C170.872 76.0086 169.775 76.1167 168.716 75.9061C167.657 75.6955 166.685 75.1758 165.922 74.4125C165.158 73.6493 164.639 72.6769 164.428 71.6182C164.218 70.5596 164.326 69.4622 164.739 68.465C165.152 67.4678 165.851 66.6155 166.749 66.0158C167.646 65.4161 168.701 65.096 169.781 65.096C171.228 65.096 172.616 65.671 173.64 66.6945C174.663 67.718 175.238 69.1061 175.238 70.5535Z" fill="#FFC100"/>
<path d="M499.522 386.285C502.561 373.406 494.585 360.501 481.706 357.461C468.827 354.421 455.922 362.398 452.882 375.277C449.842 388.156 457.819 401.061 470.698 404.101C483.577 407.141 496.482 399.164 499.522 386.285Z" fill="#FFC100"/>
<path opacity="0.3" d="M499.522 386.285C502.561 373.406 494.585 360.501 481.706 357.461C468.827 354.421 455.922 362.398 452.882 375.277C449.842 388.156 457.819 401.061 470.698 404.101C483.577 407.141 496.482 399.164 499.522 386.285Z" fill="white"/>
<path opacity="0.4" d="M491.336 362.23C486.024 360.626 480.321 360.917 475.2 363.052C470.079 365.188 465.858 369.035 463.259 373.936C460.659 378.838 459.843 384.49 460.948 389.927C462.053 395.364 465.012 400.249 469.319 403.746C471.553 404.425 473.875 404.769 476.209 404.768C481.156 404.767 485.981 403.235 490.022 400.382C494.063 397.53 497.122 393.496 498.78 388.835C500.437 384.175 500.611 379.115 499.278 374.352C497.946 369.588 495.171 365.354 491.336 362.23Z" fill="#FFC100"/>
<path d="M453.332 387.972C427.752 400.008 446.828 409.291 482.875 396.333C516.255 384.334 528.977 369.207 499.073 373.905C500.68 380.197 458.877 396.482 453.332 387.972Z" fill="#FFC100"/>
<path opacity="0.2" d="M491.048 146.036C457.543 168.676 414.17 198.58 402.196 270.399H399.642C411.292 199.377 453.083 168.763 486.6 146.036H491.048Z" fill="black"/>
<path d="M317.73 370.864C296.548 370.864 275.603 361.308 265.398 345.708C259.106 336.064 251.791 315.866 273.572 288.915L275.503 290.485C260.102 309.549 257.261 328.675 267.491 344.35C279.951 363.413 309.344 373.008 334.439 366.179C360.144 359.189 375.744 336.836 377.251 304.851C382.397 195.44 440.523 161.736 482.962 137.127C509.34 121.839 528.391 110.799 524.205 87.4866C523.619 84.2595 522.336 82.0292 520.255 80.6586C514.835 77.0825 504.244 79.5621 491.983 82.4154C467.923 88.0224 434.978 95.6978 415.354 62.3174L417.51 61.0714C436.2 92.8818 466.814 85.7422 491.422 80.0106C504.244 77.0327 515.308 74.4535 521.625 78.6027C524.304 80.3595 525.949 83.1381 526.609 87.0755C531.107 112.095 510.411 124.107 484.183 139.308C442.23 163.63 384.79 196.935 379.706 305.026C378.136 338.169 361.863 361.357 335.049 368.647C329.4 370.151 323.576 370.897 317.73 370.864Z" fill="#FFC100"/>
<path opacity="0.2" d="M317.73 370.864C296.548 370.864 275.603 361.308 265.398 345.708C259.106 336.064 251.791 315.866 273.572 288.915L275.503 290.485C260.102 309.549 257.261 328.675 267.491 344.35C279.951 363.413 309.344 373.008 334.439 366.179C360.144 359.189 375.744 336.836 377.251 304.851C382.397 195.44 440.523 161.736 482.962 137.127C509.34 121.839 528.391 110.799 524.205 87.4866C523.619 84.2595 522.336 82.0292 520.255 80.6586C514.835 77.0825 504.244 79.5621 491.983 82.4154C467.923 88.0224 434.978 95.6978 415.354 62.3174L417.51 61.0714C436.2 92.8818 466.814 85.7422 491.422 80.0106C504.244 77.0327 515.308 74.4535 521.625 78.6027C524.304 80.3595 525.949 83.1381 526.609 87.0755C531.107 112.095 510.411 124.107 484.183 139.308C442.23 163.63 384.79 196.935 379.706 305.026C378.136 338.169 361.863 361.357 335.049 368.647C329.4 370.151 323.576 370.897 317.73 370.864Z" fill="white"/>
<path d="M389.698 32.862C395.439 32.8951 401.143 33.7897 406.619 35.516C406.619 35.516 420.325 58.9034 421.945 64.2612C421.372 69.5442 412.463 78.2039 412.463 78.2039L389.698 32.862Z" fill="#FFC100"/>
<path opacity="0.3" d="M389.698 32.862C395.439 32.8951 401.143 33.7897 406.619 35.516C406.619 35.516 420.325 58.9034 421.945 64.2612C421.372 69.5442 412.463 78.2039 412.463 78.2039L389.698 32.862Z" fill="white"/>
<path d="M430.294 146.41C425.015 139.956 420.202 133.136 415.89 126C414.843 124.198 413.851 122.362 412.912 120.493C412.376 119.434 411.865 118.375 411.367 117.303C410.713 116.261 410.205 115.133 409.859 113.952C408.364 98.1649 413.772 86.5397 408.613 73.8679L388.079 81.8921C388.079 81.8921 389.824 104.47 393.811 118.026C396.303 126.412 401.885 133.663 407.28 140.379C408.962 142.473 410.582 144.628 412.264 146.734C413.946 148.84 415.641 150.547 417.248 152.528C419.678 155.531 420.475 158.409 418.643 161.948L418.332 162.508C417.809 163.43 420.251 164.477 421.796 162.508C424.288 159.294 423.939 159.493 426.107 156.752C427.428 155.095 428.935 153.288 430.244 151.768C430.875 151.02 431.225 150.076 431.234 149.098C431.243 148.12 430.911 147.169 430.294 146.41Z" fill="#FFC100"/>
<path opacity="0.7" d="M430.294 146.41C425.015 139.956 420.202 133.136 415.89 126C414.843 124.198 413.851 122.362 412.912 120.493C412.376 119.434 411.865 118.375 411.367 117.303C410.713 116.261 410.205 115.133 409.859 113.952C408.364 98.1649 413.772 86.5397 408.613 73.8679L388.079 81.8921C388.079 81.8921 389.824 104.47 393.811 118.026C396.303 126.412 401.885 133.663 407.28 140.379C408.962 142.473 410.582 144.628 412.264 146.734C413.946 148.84 415.641 150.547 417.248 152.528C419.678 155.531 420.475 158.409 418.643 161.948L418.332 162.508C417.809 163.43 420.251 164.477 421.796 162.508C424.288 159.294 423.939 159.493 426.107 156.752C427.428 155.095 428.935 153.288 430.244 151.768C430.875 151.02 431.225 150.076 431.234 149.098C431.243 148.12 430.911 147.169 430.294 146.41Z" fill="white"/>
<path opacity="0.3" d="M425.272 139.918C422.013 143.411 418.397 146.552 414.481 149.288C415.017 149.886 415.541 150.534 416.076 151.107C419.996 148.459 423.556 145.314 426.667 141.75L425.272 139.918Z" fill="#FFC100"/>
<path opacity="0.3" d="M430.293 146.41L430.143 146.236C429.185 147.335 428.627 148.728 428.561 150.185C428.481 151.185 428.643 152.19 429.034 153.113L430.218 151.705C430.837 150.966 431.182 150.035 431.196 149.071C431.209 148.107 430.89 147.167 430.293 146.41Z" fill="#FFC100"/>
<path d="M384.815 47.814C382.589 51.1472 379.918 54.1612 376.878 56.7727C375.192 58.226 373.344 59.4803 371.371 60.5107C370.334 61.0419 369.259 61.4959 368.156 61.8689L367.309 62.143L367.034 62.2177L366.449 62.3797C366.088 62.4653 365.722 62.5236 365.352 62.5542C364.301 62.6346 363.244 62.5377 362.225 62.2676C360.94 61.9028 359.708 61.3708 358.562 60.6852C357.639 60.1459 356.745 59.5595 355.883 58.9283C354.325 57.7696 352.835 56.5215 351.422 55.1903C348.697 52.6079 346.196 49.7984 343.946 46.7923C343.513 46.2066 343.298 45.4882 343.338 44.7608C343.378 44.0335 343.67 43.3429 344.165 42.8083C344.66 42.2737 345.326 41.9285 346.048 41.8324C346.77 41.7363 347.503 41.8952 348.12 42.2818H348.22C351.16 44.1508 354.126 46.1194 357.017 47.8763C358.487 48.736 359.907 49.6082 361.315 50.2811C361.958 50.6176 362.62 50.9171 363.296 51.1782C363.718 51.3644 364.17 51.4741 364.63 51.5022C364.704 51.5022 364.63 51.4149 364.169 51.4274C364.023 51.4187 363.878 51.4187 363.733 51.4274L363.458 51.4897L363.87 51.2779C364.423 50.98 364.96 50.6514 365.477 50.2935C366.592 49.5075 367.634 48.6234 368.592 47.652C370.769 45.3708 372.808 42.9618 374.697 40.4377C375.733 39.2792 377.164 38.5495 378.709 38.3917C380.255 38.2338 381.804 38.6593 383.052 39.5845C384.3 40.5097 385.158 41.868 385.456 43.3928C385.755 44.9176 385.473 46.4989 384.665 47.8265L384.815 47.814Z" fill="#FFC100"/>
<path opacity="0.7" d="M384.815 47.814C382.589 51.1472 379.918 54.1612 376.878 56.7727C375.192 58.226 373.344 59.4803 371.371 60.5107C370.334 61.0419 369.259 61.4959 368.156 61.8689L367.309 62.143L367.034 62.2177L366.449 62.3797C366.088 62.4653 365.722 62.5236 365.352 62.5542C364.301 62.6346 363.244 62.5377 362.225 62.2676C360.94 61.9028 359.708 61.3708 358.562 60.6852C357.639 60.1459 356.745 59.5595 355.883 58.9283C354.325 57.7696 352.835 56.5215 351.422 55.1903C348.697 52.6079 346.196 49.7984 343.946 46.7923C343.513 46.2066 343.298 45.4882 343.338 44.7608C343.378 44.0335 343.67 43.3429 344.165 42.8083C344.66 42.2737 345.326 41.9285 346.048 41.8324C346.77 41.7363 347.503 41.8952 348.12 42.2818H348.22C351.16 44.1508 354.126 46.1194 357.017 47.8763C358.487 48.736 359.907 49.6082 361.315 50.2811C361.958 50.6176 362.62 50.9171 363.296 51.1782C363.718 51.3644 364.17 51.4741 364.63 51.5022C364.704 51.5022 364.63 51.4149 364.169 51.4274C364.023 51.4187 363.878 51.4187 363.733 51.4274L363.458 51.4897L363.87 51.2779C364.423 50.98 364.96 50.6514 365.477 50.2935C366.592 49.5075 367.634 48.6234 368.592 47.652C370.769 45.3708 372.808 42.9618 374.697 40.4377C375.733 39.2792 377.164 38.5495 378.709 38.3917C380.255 38.2338 381.804 38.6593 383.052 39.5845C384.3 40.5097 385.158 41.868 385.456 43.3928C385.755 44.9176 385.473 46.4989 384.665 47.8265L384.815 47.814Z" fill="white"/>
<path d="M339.273 39.6153L340.731 42.1073C340.731 42.1073 341.84 45.3718 344.071 45.9699L350.126 44.0137L349.815 43.5029C349.042 42.3316 349.129 40.0514 349.391 38.1575C349.653 36.2636 348.681 36.2013 347.958 36.6748C347.446 37.2639 347.086 37.9699 346.911 38.7307C346.614 38.3192 346.285 37.9317 345.927 37.5719L344.083 35.7278C343.696 35.3497 343.181 35.1318 342.64 35.118C342.099 35.1041 341.573 35.2952 341.167 35.653L339.672 36.9863C339.317 37.3143 339.085 37.7533 339.012 38.231C338.94 38.7087 339.032 39.1968 339.273 39.6153Z" fill="#FFC100"/>
<path opacity="0.7" d="M339.273 39.6153L340.731 42.1073C340.731 42.1073 341.84 45.3718 344.071 45.9699L350.126 44.0137L349.815 43.5029C349.042 42.3316 349.129 40.0514 349.391 38.1575C349.653 36.2636 348.681 36.2013 347.958 36.6748C347.446 37.2639 347.086 37.9699 346.911 38.7307C346.614 38.3192 346.285 37.9317 345.927 37.5719L344.083 35.7278C343.696 35.3497 343.181 35.1318 342.64 35.118C342.099 35.1041 341.573 35.2952 341.167 35.653L339.672 36.9863C339.317 37.3143 339.085 37.7533 339.012 38.231C338.94 38.7087 339.032 39.1968 339.273 39.6153Z" fill="white"/>
<path d="M395.816 30.6441C389.1 32.4245 382.666 35.1381 376.703 38.7057C375.773 39.288 375.042 40.1406 374.61 41.1494C374.178 42.1583 374.065 43.275 374.286 44.3501C376.69 56.1123 382.16 71.8618 388.066 81.8921L415.615 70.4912C415.802 65.6318 409.111 49.9073 402.296 34.7061C401.075 31.9773 398.72 29.9463 395.816 30.6441Z" fill="#FFC100"/>
<path opacity="0.8" d="M395.816 30.6441C389.1 32.4245 382.666 35.1381 376.703 38.7057C375.773 39.288 375.042 40.1406 374.61 41.1494C374.178 42.1583 374.065 43.275 374.286 44.3501C376.69 56.1123 382.16 71.8618 388.066 81.8921L415.615 70.4912C415.802 65.6318 409.111 49.9073 402.296 34.7061C401.075 31.9773 398.72 29.9463 395.816 30.6441Z" fill="white"/>
<path opacity="0.3" d="M406.57 44.3377L401.1 42.506C402.346 45.7083 406.744 49.7578 409.822 52.1376C408.825 49.6456 407.716 47.029 406.57 44.3377Z" fill="#FFC100"/>
<path d="M394.01 18.3087C391.73 13.9726 386.808 11.7921 380.902 12.2781C375.918 12.7017 371.507 17.7854 372.031 20.5266C372.554 23.2678 376.74 24.439 377.538 25.386L374.087 27.878C373.678 28.1731 373.333 28.5479 373.073 28.9798C372.812 29.4117 372.642 29.8918 372.572 30.3912C372.502 30.8906 372.534 31.3989 372.666 31.8856C372.798 32.3723 373.027 32.8274 373.339 33.2234C374.797 35.0674 376.716 36.9614 377.825 38.3569C387.369 38.1077 394.434 34.4694 396.988 30.9681C396.029 26.5323 396.228 22.6199 394.01 18.3087Z" fill="#FFC100"/>
<path opacity="0.8" d="M394.01 18.3087C391.73 13.9726 386.808 11.7921 380.902 12.2781C375.918 12.7017 371.507 17.7854 372.031 20.5266C372.554 23.2678 376.74 24.439 377.538 25.386L374.087 27.878C373.678 28.1731 373.333 28.5479 373.073 28.9798C372.812 29.4117 372.642 29.8918 372.572 30.3912C372.502 30.8906 372.534 31.3989 372.666 31.8856C372.798 32.3723 373.027 32.8274 373.339 33.2234C374.797 35.0674 376.716 36.9614 377.825 38.3569C387.369 38.1077 394.434 34.4694 396.988 30.9681C396.029 26.5323 396.228 22.6199 394.01 18.3087Z" fill="white"/>
<path d="M389.325 21.0001C390.002 22.7378 390.149 24.6373 389.747 26.4586C389.346 28.2799 388.413 29.9412 387.067 31.2325C385.721 32.5238 384.023 33.3872 382.187 33.7134C380.35 34.0396 378.458 33.8141 376.75 33.0654C375.042 32.3166 373.594 31.0782 372.589 29.5067C371.585 27.9353 371.069 26.1012 371.106 24.2365C371.144 22.3718 371.734 20.5601 372.801 19.0303C373.868 17.5006 375.364 16.3216 377.101 15.6423C379.433 14.734 382.03 14.788 384.321 15.7925C386.613 16.7971 388.412 18.67 389.325 21.0001Z" fill="#263238"/>
<path d="M470.228 133.29C470.091 129.19 469.904 129.552 469.792 126.1C469.718 123.982 469.705 121.627 469.693 119.596C469.688 118.632 469.351 117.698 468.738 116.953C468.125 116.209 467.274 115.699 466.328 115.509C464.684 115.173 463.026 114.861 461.344 114.512C459.189 114.051 457.058 113.553 454.952 112.942C453.308 112.469 451.688 111.946 450.081 111.36C448.473 110.774 446.667 110.114 444.997 109.341C443.028 108.507 441.084 107.61 439.166 106.675C437.01 105.653 434.879 104.582 432.749 103.498C424.55 89.9288 424.376 80.9825 415.579 70.4912L396.689 79.0387C396.689 79.0387 410.57 103.66 420.015 114.101C425.46 120.107 433.995 122.823 441.608 124.792C447.103 126.2 452.672 127.284 458.242 128.318C460.41 128.717 462.765 128.866 464.634 130.162C466.017 131.222 466.965 132.751 467.3 134.461C467.383 134.81 467.458 135.159 467.525 135.507C467.761 136.554 470.316 135.757 470.228 133.29Z" fill="#FFC100"/>
<path opacity="0.8" d="M470.228 133.29C470.091 129.19 469.904 129.552 469.792 126.1C469.718 123.982 469.705 121.627 469.693 119.596C469.688 118.632 469.351 117.698 468.738 116.953C468.125 116.209 467.274 115.699 466.328 115.509C464.684 115.173 463.026 114.861 461.344 114.512C459.189 114.051 457.058 113.553 454.952 112.942C453.308 112.469 451.688 111.946 450.081 111.36C448.473 110.774 446.667 110.114 444.997 109.341C443.028 108.507 441.084 107.61 439.166 106.675C437.01 105.653 434.879 104.582 432.749 103.498C424.55 89.9288 424.376 80.9825 415.579 70.4912L396.689 79.0387C396.689 79.0387 410.57 103.66 420.015 114.101C425.46 120.107 433.995 122.823 441.608 124.792C447.103 126.2 452.672 127.284 458.242 128.318C460.41 128.717 462.765 128.866 464.634 130.162C466.017 131.222 466.965 132.751 467.3 134.461C467.383 134.81 467.458 135.159 467.525 135.507C467.761 136.554 470.316 135.757 470.228 133.29Z" fill="white"/>
<path opacity="0.3" d="M460.646 114.35C459.898 114.188 459.151 114.026 458.391 113.84C458.453 118.151 456.434 125.577 455.699 127.832L458.067 128.281C459.618 123.792 460.488 119.097 460.646 114.35Z" fill="#FFC100"/>
<path opacity="0.3" d="M469.742 119.596C469.739 118.633 469.403 117.701 468.793 116.957C468.182 116.212 467.334 115.701 466.391 115.509L465.145 115.272C465.345 116.689 466.07 117.978 467.176 118.886C467.887 119.543 468.739 120.029 469.668 120.306C469.742 120.082 469.742 119.833 469.742 119.596Z" fill="#FFC100"/>
<path d="M387.568 21.0748C388.066 22.9687 385.948 24.9499 384.266 23.3176C382.696 21.6343 380.978 20.0956 379.133 18.7199C377.401 17.6359 379.706 15.7419 382.434 16.4771C383.599 16.7696 384.675 17.341 385.569 18.142C386.463 18.943 387.149 19.9496 387.568 21.0748Z" fill="white"/>
<path d="M387.705 81.2816C386.833 81.6055 388.428 83.1007 388.428 83.1007C388.428 83.1007 405.872 77.1324 416.463 70.9896C416.489 70.6177 416.425 70.2451 416.278 69.9027C416.13 69.5603 415.903 69.258 415.616 69.0209C406.551 73.6318 397.233 77.7253 387.705 81.2816Z" fill="#FFC100"/>
<path opacity="0.5" d="M387.705 81.2816C386.833 81.6055 388.428 83.1007 388.428 83.1007C388.428 83.1007 405.872 77.1324 416.463 70.9896C416.489 70.6177 416.425 70.2451 416.278 69.9027C416.13 69.5603 415.903 69.258 415.616 69.0209C406.551 73.6318 397.233 77.7253 387.705 81.2816Z" fill="white"/>
<path d="M400.539 29.8217C403.978 31.5661 407.205 33.3978 410.507 35.4287C412.115 36.4505 413.709 37.4846 415.292 38.606C416.874 39.7274 418.444 40.8738 420.027 42.1696L420.612 42.6555L421.347 43.3284C421.785 43.7203 422.201 44.1363 422.593 44.5744C422.992 45.0105 423.329 45.4341 423.653 45.8204C423.976 46.2066 424.325 46.6677 424.612 47.0664C425.773 48.6682 426.846 50.332 427.827 52.0504C429.758 55.3826 431.424 58.8614 432.811 62.4545C433.067 63.1334 433.08 63.8801 432.848 64.5676C432.616 65.2551 432.153 65.8411 431.538 66.2258C430.923 66.6105 430.193 66.7703 429.473 66.6779C428.754 66.5855 428.088 66.2467 427.59 65.719L427.528 65.6442C425.036 62.9903 422.631 60.1992 420.214 57.5951C417.796 54.9909 415.342 52.3494 413.311 51.1906C410.482 49.4338 407.33 47.6769 404.202 45.9574L394.783 40.7242C393.322 39.951 392.228 38.6291 391.742 37.0495C391.256 35.4699 391.418 33.7619 392.191 32.3013C392.964 30.8407 394.286 29.747 395.866 29.261C397.445 28.7749 399.153 28.9363 400.614 29.7096L400.539 29.8217Z" fill="#FFC100"/>
<path opacity="0.8" d="M400.539 29.8217C403.978 31.5661 407.205 33.3978 410.507 35.4287C412.115 36.4505 413.709 37.4846 415.292 38.606C416.874 39.7274 418.444 40.8738 420.027 42.1696L420.612 42.6555L421.347 43.3284C421.785 43.7203 422.201 44.1363 422.593 44.5744C422.992 45.0105 423.329 45.4341 423.653 45.8204C423.976 46.2066 424.325 46.6677 424.612 47.0664C425.773 48.6682 426.846 50.332 427.827 52.0504C429.758 55.3826 431.424 58.8614 432.811 62.4545C433.067 63.1334 433.08 63.8801 432.848 64.5676C432.616 65.2551 432.153 65.8411 431.538 66.2258C430.923 66.6105 430.193 66.7703 429.473 66.6779C428.754 66.5855 428.088 66.2467 427.59 65.719L427.528 65.6442C425.036 62.9903 422.631 60.1992 420.214 57.5951C417.796 54.9909 415.342 52.3494 413.311 51.1906C410.482 49.4338 407.33 47.6769 404.202 45.9574L394.783 40.7242C393.322 39.951 392.228 38.6291 391.742 37.0495C391.256 35.4699 391.418 33.7619 392.191 32.3013C392.964 30.8407 394.286 29.747 395.866 29.261C397.445 28.7749 399.153 28.9363 400.614 29.7096L400.539 29.8217Z" fill="white"/>
<path d="M435.764 68.6721L434.705 66.0181C434.705 66.0181 434.119 62.6289 432.013 61.682L425.783 62.6663L425.995 63.2146C426.568 64.4606 426.132 66.7408 425.571 68.5599C425.011 70.3791 425.958 70.6158 426.755 70.2545C427.204 70.0551 427.64 69.2452 428.113 68.3855C428.346 68.8186 428.608 69.235 428.898 69.6315L430.431 71.7372C430.751 72.1736 431.224 72.4726 431.756 72.5743C432.288 72.676 432.838 72.5728 433.297 72.2855L434.991 71.2014C435.388 70.93 435.68 70.5318 435.821 70.0721C435.961 69.6125 435.941 69.1188 435.764 68.6721Z" fill="#FFC100"/>
<path opacity="0.8" d="M435.764 68.6721L434.705 66.0181C434.705 66.0181 434.119 62.6289 432.013 61.682L425.783 62.6663L425.995 63.2146C426.568 64.4606 426.132 66.7408 425.571 68.5599C425.011 70.3791 425.958 70.6158 426.755 70.2545C427.204 70.0551 427.64 69.2452 428.113 68.3855C428.346 68.8186 428.608 69.235 428.898 69.6315L430.431 71.7372C430.751 72.1736 431.224 72.4726 431.756 72.5743C432.288 72.676 432.838 72.5728 433.297 72.2855L434.991 71.2014C435.388 70.93 435.68 70.5318 435.821 70.0721C435.961 69.6125 435.941 69.1188 435.764 68.6721Z" fill="white"/>
<path opacity="0.3" d="M395.281 44.1508L393.761 44.2754L384.429 66.803C384.939 66.8397 385.452 66.7977 385.949 66.6784C385.949 66.6784 398.11 62.143 401.785 60.4484C399.318 55.3523 395.281 44.1508 395.281 44.1508Z" fill="#FFC100"/>
<path d="M378.248 50.0568C379.382 55.9457 381.487 61.6049 384.478 66.803C389.038 65.2331 396.639 62.2676 400.327 60.573C397.848 55.2588 395.648 49.8188 393.736 44.2754C389.836 44.537 381.276 47.814 378.248 50.0568Z" fill="white"/>
<path opacity="0.3" d="M387.506 54.9287C387.323 55.538 386.965 56.0796 386.475 56.4849C385.985 56.8903 385.385 57.1412 384.753 57.2059C384.12 57.2706 383.482 57.1462 382.92 56.8484C382.358 56.5506 381.897 56.0929 381.596 55.533C381.294 54.9732 381.165 54.3364 381.225 53.7033C381.286 53.0702 381.532 52.4692 381.934 51.9763C382.336 51.4835 382.875 51.1209 383.483 50.9344C384.091 50.748 384.741 50.7461 385.35 50.929C386.166 51.174 386.851 51.7328 387.255 52.4828C387.66 53.2327 387.75 54.1124 387.506 54.9287Z" fill="#FFC100"/>
<path opacity="0.6" d="M389.885 50.6424C389.837 50.8504 389.727 51.0388 389.569 51.183C389.411 51.3272 389.214 51.4203 389.002 51.4503C388.791 51.4802 388.575 51.4455 388.384 51.3507C388.193 51.2559 388.034 51.1054 387.93 50.9191C387.826 50.7327 387.78 50.5192 387.799 50.3065C387.818 50.0938 387.901 49.8918 388.037 49.7271C388.173 49.5625 388.356 49.4428 388.561 49.3837C388.767 49.3247 388.985 49.3291 389.188 49.3964C389.44 49.4771 389.653 49.6507 389.782 49.8819C389.912 50.1132 389.949 50.385 389.885 50.6424Z" fill="#FFC100"/>
<path opacity="0.6" d="M392.676 49.5584C392.647 49.7029 392.588 49.8398 392.503 49.9601C392.418 50.0805 392.308 50.1818 392.182 50.2574C392.055 50.3331 391.914 50.3815 391.768 50.3995C391.621 50.4175 391.473 50.4048 391.332 50.3621C391.19 50.3194 391.06 50.2477 390.948 50.1516C390.836 50.0554 390.746 49.937 390.682 49.8039C390.619 49.6708 390.584 49.5258 390.58 49.3784C390.575 49.231 390.602 49.0844 390.658 48.9478C390.698 48.816 390.763 48.6933 390.851 48.5868C390.938 48.4803 391.045 48.3922 391.167 48.3273C391.289 48.2625 391.422 48.2223 391.559 48.2091C391.696 48.1958 391.834 48.2097 391.966 48.2501C392.233 48.3309 392.457 48.5135 392.59 48.7584C392.723 49.0033 392.754 49.2907 392.676 49.5584Z" fill="#FFC100"/>
<path opacity="0.5" d="M396.59 59.2647L385.064 63.8126L384.379 61.5449L395.892 56.997L396.59 59.2647Z" fill="#FFC100"/>
<path opacity="0.2" d="M333.006 232.434C332.98 239.689 332.279 246.926 330.913 254.052C329.443 260.456 327.158 265.141 324.06 268.107C322.617 269.539 320.903 270.67 319.018 271.434C317.134 272.198 315.116 272.579 313.083 272.555C306.678 272.555 301.79 269.062 298.417 262.076C297.825 260.821 297.321 259.526 296.91 258.201C289.787 264.318 283.155 270.984 277.073 278.137L270.457 285.937C274.018 289.546 278.126 292.569 282.63 294.896C290.389 298.908 300.573 300.918 313.182 300.926C315.4 300.926 317.543 300.864 319.624 300.74C327.253 289.452 333.565 277.328 338.439 264.606L356.942 216.36L333.006 232.434Z" fill="black"/>
<path d="M166.204 298.26L188.009 320.065L249.063 262.537C228.018 254.5 187.1 277.315 166.204 298.26Z" fill="#263238"/>
<path d="M242.247 374.266C235.282 367.288 220.442 352.461 220.442 352.461L277.97 291.407C285.957 312.402 263.143 353.358 242.247 374.266Z" fill="#263238"/>
<path d="M325.704 236.832L349.491 190.967L303.625 214.778C288.893 222.418 275.291 232.063 263.205 243.436L185.019 317.037L223.433 355.451L297.034 277.265C308.413 265.176 318.061 251.569 325.704 236.832Z" fill="#FFC100"/>
<path opacity="0.6" d="M325.704 236.832L349.491 190.967L303.625 214.778C288.893 222.418 275.291 232.063 263.205 243.436L185.019 317.037L223.433 355.451L297.034 277.265C308.413 265.176 318.061 251.569 325.704 236.832Z" fill="white"/>
<path d="M276.861 279.67C285.739 279.67 292.935 272.473 292.935 263.596C292.935 254.719 285.739 247.523 276.861 247.523C267.984 247.523 260.788 254.719 260.788 263.596C260.788 272.473 267.984 279.67 276.861 279.67Z" fill="white"/>
<path d="M276.862 273.926C282.566 273.926 287.191 269.301 287.191 263.596C287.191 257.892 282.566 253.267 276.862 253.267C271.157 253.267 266.532 257.892 266.532 263.596C266.532 269.301 271.157 273.926 276.862 273.926Z" fill="#FFC100"/>
<path opacity="0.3" d="M236.428 341.646L198.812 304.029L229.613 275.047L265.41 310.857L236.428 341.646Z" fill="#FFC100"/>
<path d="M174.714 332.674C146.555 334.955 137.222 352.984 134.032 376.945C132.412 389.168 131.69 401.541 121.435 408.693C120.818 409.112 120.354 409.72 120.111 410.425C119.869 411.131 119.861 411.896 120.09 412.606C120.319 413.316 120.771 413.933 121.38 414.364C121.989 414.795 122.721 415.017 123.466 414.998C161.27 413.814 178.901 395.311 181.119 387.586C180.536 391.624 179.496 395.583 178.016 399.385C177.744 400.056 177.691 400.796 177.864 401.499C178.037 402.202 178.427 402.833 178.98 403.301C179.532 403.769 180.218 404.051 180.94 404.106C181.662 404.161 182.383 403.988 183 403.609C193.603 396.968 206.911 384.732 207.795 364.884C199.995 353.832 174.714 332.674 174.714 332.674Z" fill="#FFC100"/>
<path opacity="0.2" d="M174.714 332.674C146.555 334.955 137.222 352.984 134.032 376.945C132.412 389.168 131.69 401.541 121.435 408.693C120.818 409.112 120.354 409.72 120.111 410.425C119.869 411.131 119.861 411.896 120.09 412.606C120.319 413.316 120.771 413.933 121.38 414.364C121.989 414.795 122.721 415.017 123.466 414.998C161.27 413.814 178.901 395.311 181.119 387.586C180.536 391.624 179.496 395.583 178.016 399.385C177.744 400.056 177.691 400.796 177.864 401.499C178.037 402.202 178.427 402.833 178.98 403.301C179.532 403.769 180.218 404.051 180.94 404.106C181.662 404.161 182.383 403.988 183 403.609C193.603 396.968 206.911 384.732 207.795 364.884C199.995 353.832 174.714 332.674 174.714 332.674Z" fill="white"/>
<path d="M212.169 373.394L167.063 328.289L191.086 323.093L217.364 349.371L212.169 373.394Z" fill="#FFC100"/>
</g>
<defs>
<clipPath id="clip0">
<rect width="623" height="464" fill="white"/>
</clipPath>
</defs>
</svg>
