<svg width="188" height="188" viewBox="0 0 188 188" fill="none" xmlns="http://www.w3.org/2000/svg">
<path d="M0 15C0 6.71573 6.71573 0 15 0H173C181.284 0 188 6.71573 188 15V173C188 181.284 181.284 188 173 188H15C6.71573 188 0 181.284 0 173V15Z" fill="#F0DDFC"/>
<path d="M79.8058 58.1486C77.5206 59.1084 68.677 62.7875 63.7411 72.3166C62.6899 74.3504 57.754 83.8795 61.3874 92.2889C66.2091 103.44 80.8798 100.721 87.621 111.21C93.4024 120.236 81.4054 129.103 86.5698 139.843C89.2663 145.442 95.4819 150.126 101.218 150.56C119.156 151.909 151.377 113.267 138.283 82.9426C128.731 60.9137 98.2927 50.4476 79.8058 58.1486Z" fill="url(#paint0_linear)"/>
<path d="M116.369 75.4701L83.3482 63.2217C82.3428 62.8561 81.2459 63.3588 80.8803 64.3643L58.5771 124.395C58.2115 125.401 58.7142 126.498 59.7197 126.863L92.7402 139.112C93.7457 139.477 94.8426 138.975 95.2082 137.969L117.511 77.9152C117.877 76.9326 117.374 75.8357 116.369 75.4701Z" fill="#2D548D"/>
<path opacity="0.09" d="M96.5786 106.228C95.7559 106.228 94.9104 106.205 94.0421 106.16C81.2223 105.451 70.7563 99.7385 66.0489 90.8949C58.5307 76.7727 65.9118 57.0975 77.2233 50.9047C82.9362 47.7512 87.895 47.8426 91.0485 48.4824C96.4415 49.5565 100.418 52.0473 102.246 55.475C104.211 59.1541 103.16 62.6047 102.04 66.2381C101.035 69.5059 100.006 72.8651 101.24 76.4984C102.337 79.7434 105.194 80.7488 108.233 81.8229C111.318 82.9197 114.517 84.0395 116.231 87.5815C118.036 91.3291 117.808 96.4479 115.728 99.5328C112.895 103.646 105.399 106.228 96.5786 106.228ZM87.4837 48.391C84.6729 48.391 81.1766 49.0309 77.3604 51.1332C66.1632 57.2803 58.8507 76.7955 66.3003 90.7807C70.962 99.5557 81.3594 105.2 94.0878 105.908C103.868 106.457 112.483 103.829 115.523 99.3957C117.556 96.4022 117.785 91.3748 116.002 87.7186C114.334 84.268 111.204 83.1711 108.164 82.0971C105.079 81.0002 102.154 79.9719 101.012 76.6127C99.7549 72.8879 100.806 69.483 101.812 66.1695C102.908 62.5818 103.96 59.177 102.04 55.5893C100.258 52.2301 96.3272 49.785 91.0256 48.7338C89.9973 48.5281 88.809 48.391 87.4837 48.391Z" fill="#AAAAD5"/>
<path opacity="0.2" d="M108.37 72.4994L104.714 74.9445L72.7904 96.3793L67.7402 99.7841L74.6871 81.023L79.7602 77.6181L91.2088 69.9172L94.865 67.472L108.37 72.4994Z" fill="#EEEDF3"/>
<path opacity="0.2" d="M115.637 75.1959L111.981 77.641L69.0428 106.48L63.9697 109.862L66.4377 103.258L71.4879 99.8756V99.8527L107.228 75.8814L110.884 73.4135L115.637 75.1959Z" fill="#EEEDF3"/>
<path d="M116.368 75.4701L115.637 75.1959L110.884 73.4363L108.37 72.4994L94.8648 67.4949L83.3476 63.2217C82.365 62.8561 81.2453 63.3588 80.8797 64.3643L74.6869 81.0459L67.7172 99.807L66.4146 103.303L63.9695 109.907L58.5765 124.441C58.508 124.624 58.4851 124.807 58.4623 124.989C58.3937 125.812 58.8965 126.612 59.7191 126.909L65.8433 129.194L70.4594 130.908L82.6621 135.433L87.1181 137.078L92.7396 139.157C93.7222 139.523 94.842 139.02 95.2076 138.038L117.099 79.0807L117.511 77.9838C117.876 76.9326 117.374 75.8357 116.368 75.4701ZM113.237 79.1949L112.78 80.4518L93.9279 131.251C93.7222 131.776 93.1281 132.073 92.5797 131.868L88.4435 130.337L83.439 128.486L73.1101 124.647L68.3799 122.887L64.6094 121.493C64.198 121.333 63.9467 120.968 63.9467 120.556C63.9467 120.419 63.9467 120.282 64.0152 120.145L69.0883 106.503L71.5334 99.8984L72.8359 96.4021L79.8056 77.641L83.3476 68.1119C83.5533 67.5863 84.1474 67.2893 84.673 67.4949L91.2543 69.94L104.76 74.9445L107.273 75.8814L112.026 77.641L112.643 77.8695C113.169 78.0752 113.443 78.6693 113.237 79.1949Z" fill="#EEEDF3"/>
<path d="M75.3038 130.52C74.3669 130.177 73.887 129.126 74.2298 128.189C74.5726 127.252 75.6238 126.772 76.5607 127.115C77.4976 127.457 77.9775 128.509 77.6347 129.446C77.2691 130.405 76.2179 130.862 75.3038 130.52Z" fill="#C9C7D9"/>
<path opacity="0.1" d="M97.3786 40.0502L51.287 55.315C50.1672 55.6807 49.5731 56.8918 49.9387 57.9887L54.4176 71.4711C54.7833 72.5908 55.9944 73.185 57.0913 72.8193L61.6387 71.3111L63.8553 70.5799C64.4266 70.9455 65.8434 71.9053 66.4147 72.2481C66.9403 72.5451 67.6258 72.3166 67.8772 71.7682C68.1514 71.1512 68.7227 69.5516 68.9512 68.9117L80.1485 65.1869L103.183 57.5545C104.303 57.1889 104.897 55.9777 104.531 54.8809L100.052 41.3984C99.6866 40.2787 98.4983 39.6846 97.3786 40.0502Z" fill="#3F3F3F"/>
<path d="M97.379 36.4853L47.9282 52.8699C46.7399 53.2584 46.1001 54.5609 46.4885 55.7492L51.2874 70.2142C51.6758 71.4025 52.9784 72.0424 54.1667 71.6539L59.034 70.0314L61.4106 69.2545C62.0047 69.6658 63.5358 70.6713 64.1528 71.0369C64.7012 71.3568 65.4553 71.1055 65.7295 70.5113C66.0038 69.8486 66.6436 68.1119 66.8721 67.4492L78.892 63.473L103.617 55.2693C104.806 54.8809 105.446 53.5783 105.057 52.39L100.258 37.925C99.8698 36.7367 98.5901 36.0969 97.379 36.4853Z" fill="url(#paint1_linear)"/>
<path d="M60.4512 59.6568C60.7939 59.0627 60.8853 58.3315 60.6568 57.6231L60.2683 56.4576C59.8342 55.1551 58.4631 54.3553 57.1377 54.7438C55.7666 55.1551 55.0353 56.5947 55.4695 57.943L55.8808 59.2227C56.1094 59.9311 56.6349 60.4566 57.2519 60.7309C55.8351 61.8049 55.0125 63.5188 55.1267 65.324C55.1724 66.0324 55.8808 66.4666 56.5435 66.2609L64.2674 63.7016C64.9301 63.4731 65.2271 62.6961 64.8615 62.102C63.9017 60.5481 62.2336 59.6568 60.4512 59.6568Z" fill="white"/>
<path d="M79.0523 47.4541L69.2033 50.7219C68.4035 50.9961 67.9693 51.8645 68.2206 52.6643L69.8203 57.5088C70.0945 58.3086 70.9628 58.7428 71.7626 58.4914L72.7224 58.1715C72.7224 58.1715 74.5505 59.4055 75.1675 59.7711C75.6246 60.0225 76.2415 59.8397 76.4472 59.3369C76.7443 58.6742 77.4755 56.5947 77.4755 56.5947L81.6117 55.2237C82.4115 54.9494 82.8456 54.0811 82.5943 53.2813L80.9947 48.4367C80.7205 47.6141 79.8521 47.1799 79.0523 47.4541Z" fill="white"/>
<path d="M70.917 52.9614C70.5971 53.0299 70.2543 52.87 70.1629 52.55C70.0487 52.2073 70.2315 51.8416 70.5742 51.7502L78.5723 49.0995C78.8922 48.9852 79.2807 49.168 79.3721 49.5108C79.4864 49.8536 79.3035 50.2192 78.9608 50.3106L70.9627 52.9614C70.9399 52.9614 70.9399 52.9614 70.917 52.9614Z" fill="#E2E1E1"/>
<path d="M71.6026 55.0637C71.2826 55.1323 70.9399 54.9723 70.8485 54.6524C70.7342 54.3096 70.917 53.944 71.2598 53.8526L79.2578 51.2018C79.5778 51.0875 79.9662 51.2703 80.0576 51.6131C80.1719 51.9559 79.9891 52.3215 79.6463 52.4129L71.6483 55.0637C71.6483 55.0408 71.6254 55.0637 71.6026 55.0637Z" fill="#E2E1E1"/>
<path d="M72.3115 57.1432C71.9916 57.2117 71.6488 57.0518 71.5574 56.7319C71.4432 56.3891 71.626 56.0235 71.9688 55.9321L75.5793 54.7438C75.8992 54.6295 76.2649 54.8123 76.3791 55.1551C76.4934 55.4979 76.3106 55.8635 75.9678 55.9549L72.3572 57.1432C72.3344 57.1432 72.3344 57.1432 72.3115 57.1432Z" fill="#E2E1E1"/>
<path d="M99.5731 49.7393C99.2532 48.7567 98.6133 47.934 97.8364 47.3856L97.4936 46.3344C96.8994 44.5748 95.1627 43.5465 93.3803 43.7979L93.2889 43.5008C93.1746 43.158 92.809 42.9752 92.4662 43.0895C92.1235 43.2037 91.9407 43.5694 92.0549 43.9121L92.1463 44.2092C90.5696 45.0547 89.7926 46.9285 90.3639 48.6881L90.7067 49.7393C90.4096 50.6533 90.3867 51.6817 90.7067 52.6643L90.8666 53.1213C90.9352 53.3498 91.1866 53.4869 91.4151 53.3955L93.1746 52.8014C93.1975 52.9385 93.266 53.0756 93.426 53.1213C94.1573 53.3727 94.9799 53.3727 95.7797 53.1213C96.5795 52.8699 97.2194 52.3672 97.6764 51.7274C97.7678 51.5903 97.7678 51.4303 97.6992 51.316L99.4588 50.7219C99.6873 50.6533 99.8244 50.402 99.733 50.1735L99.5731 49.7393Z" fill="white"/>
<path d="M92.0772 52.6414C92.42 53.6697 91.8487 54.8123 90.8204 55.1551C89.792 55.4978 88.6495 54.9265 88.3067 53.8982C87.9639 52.8699 88.5352 51.7273 89.5635 51.3846C90.6147 51.0418 91.7344 51.5902 92.0772 52.6414Z" fill="#E83C3B"/>
<path opacity="0.1" d="M147.103 78.875L134.466 77.3668C133.918 77.2983 133.438 77.6867 133.37 78.2352L131.861 90.8721C131.793 91.4205 132.181 91.9004 132.73 91.969L145.367 93.4772C145.915 93.5457 146.395 93.1572 146.464 92.6088L147.972 79.9719C148.04 79.4463 147.652 78.9436 147.103 78.875Z" fill="#3F3F3F"/>
<path d="M148.588 91.7176L133.826 89.958C133.575 89.9352 133.392 89.7066 133.438 89.4553L135.197 74.6932C135.22 74.4418 135.449 74.259 135.7 74.3047L150.462 76.0643C150.713 76.0871 150.896 76.3156 150.851 76.567L149.091 91.3291C149.068 91.5576 148.84 91.7404 148.588 91.7176Z" fill="#F8AA09"/>
<path d="M135.015 88.3355L136.477 76.11C136.5 75.95 136.637 75.8586 136.774 75.8586L149 77.3211C149.16 77.3439 149.251 77.4811 149.251 77.6182L147.789 89.8438C147.766 90.0037 147.629 90.0951 147.492 90.0951L135.266 88.6326C135.106 88.6326 135.015 88.4955 135.015 88.3355Z" fill="#FBBA38"/>
<path d="M142.441 84.0394L141.024 85.1592C140.773 85.3648 140.384 85.3191 140.179 85.0677C139.973 84.8164 139.607 84.7707 139.333 84.9763L137.254 86.6216C136.842 86.9416 137.025 87.6271 137.551 87.6957L137.802 87.7185L142.715 88.3127L145.48 88.6326C146.006 88.7011 146.349 88.0841 146.029 87.6728L143.286 84.1308C143.081 83.8795 142.692 83.8338 142.441 84.0394Z" fill="#EE9F05"/>
<path d="M139.904 81.6629C139.836 82.2342 139.31 82.6455 138.739 82.5769C138.168 82.5084 137.756 81.9828 137.825 81.4115C137.893 80.8402 138.419 80.4289 138.99 80.4974C139.562 80.566 139.973 81.0916 139.904 81.6629Z" fill="#EE9F05"/>
<path opacity="0.1" d="M67.2147 114.729C66.7348 113.198 65.1123 112.353 63.5813 112.832L44.9344 118.728C43.4033 119.208 42.5578 120.83 43.0377 122.362L46.8768 134.496C47.3566 136.027 48.9791 136.872 50.5102 136.392L52.3383 135.821C52.3383 135.821 55.7432 138.175 56.9314 138.883C57.777 139.386 58.9424 139.02 59.3537 138.106C59.925 136.849 61.3418 132.965 61.3418 132.965L69.157 130.497C70.6881 130.017 71.5336 128.394 71.0537 126.863L67.2147 114.729Z" fill="#3F3F3F"/>
<path d="M60.3593 110.067L40.3642 116.397C38.7189 116.923 37.8277 118.66 38.3304 120.305L42.4437 133.33C42.9693 134.976 44.706 135.867 46.3513 135.364L48.2937 134.747C48.2937 134.747 51.95 137.284 53.2068 138.038C54.1209 138.586 55.3777 138.175 55.8119 137.215C56.4289 135.867 57.9371 131.685 57.9371 131.685L66.3236 129.034C67.9689 128.509 68.8601 126.772 68.3574 125.127L64.2441 112.101C63.7642 110.456 62.0046 109.542 60.3593 110.067Z" fill="url(#paint2_linear)"/>
<path d="M60.4281 116.809L44.2035 121.95C43.6779 122.11 43.1066 121.836 42.9466 121.287C42.7867 120.762 43.0837 120.191 43.6093 120.031L59.8339 114.889C60.3595 114.729 60.9308 115.003 61.0908 115.552C61.2507 116.077 60.9537 116.649 60.4281 116.809Z" fill="#EDB7D5"/>
<path d="M61.8675 121.402L45.6429 126.543C45.1173 126.703 44.546 126.429 44.3861 125.881C44.2261 125.355 44.5232 124.784 45.0488 124.624L61.2734 119.482C61.799 119.322 62.3703 119.596 62.5302 120.145C62.6902 120.648 62.3931 121.219 61.8675 121.402Z" fill="#EDB7D5"/>
<path d="M54.4183 128.783L47.1058 131.091C46.5802 131.251 46.0089 130.954 45.849 130.428C45.689 129.903 45.9861 129.331 46.5117 129.171L53.8242 126.863C54.3497 126.703 54.921 127 55.081 127.526C55.241 128.052 54.9439 128.623 54.4183 128.783Z" fill="#EDB7D5"/>
<path opacity="0.1" d="M101.241 87.3758C100.967 86.2104 99.4126 85.959 98.7728 86.9873L96.2134 91.1234L94.7737 85.1135C94.4767 83.9023 93.2655 83.1482 92.0544 83.4453L75.5327 87.3758C74.3216 87.6729 73.5675 88.884 73.8646 90.0951L77.795 106.617C78.0921 107.828 79.3032 108.582 80.5144 108.285L97.036 104.355C98.2472 104.057 99.0013 102.846 98.7042 101.635L97.2646 95.6252L101.401 98.1846C102.429 98.8244 103.709 97.8875 103.412 96.7221L101.241 87.3758Z" fill="#3F3F3F"/>
<path d="M100.738 82.4855L97.9955 86.9416L96.4644 80.4974C96.1445 79.1949 94.842 78.3951 93.5394 78.6922L75.8066 82.9197C74.5041 83.2396 73.7043 84.5422 74.0014 85.8447L78.2289 103.578C78.5488 104.88 79.8514 105.68 81.1539 105.383L98.8867 101.155C100.189 100.835 100.989 99.5328 100.692 98.2303L99.1609 91.7861L103.617 94.5283C104.714 95.2139 106.085 94.2084 105.788 92.9515L103.388 82.9197C103.091 81.6629 101.423 81.3886 100.738 82.4855Z" fill="#E83B5B"/>
<path d="M84.1934 87.2615L90.6832 91.2377L86.6842 97.7276" fill="white"/>
<path d="M112.969 112.97L86.0029 117.265L88.4293 132.497L115.396 128.202L112.969 112.97Z" fill="#E83C3B"/>
<path d="M100.693 122.749L112.964 112.992L85.999 117.288L100.693 122.749Z" fill="#EE7375"/>
<path d="M118.448 139.135H133.873C134.33 139.135 134.718 138.746 134.718 138.289C134.718 137.832 134.33 137.443 133.873 137.443H118.448C117.991 137.443 117.603 137.832 117.603 138.289C117.603 138.769 117.968 139.135 118.448 139.135Z" fill="#E2E2E1"/>
<path d="M123.544 135.547L122.812 131.091L124.823 130.474L125.143 135.227L123.544 135.547Z" fill="#D7DDE9"/>
<path d="M125.212 134.747C125.349 134.77 125.463 134.816 125.577 134.907C126.286 135.501 128.457 136.552 129.554 136.712C130.742 136.895 130.81 137.466 129.119 137.466C127.451 137.466 126.217 137.306 125.486 137.329C124.732 137.352 124.938 137.466 123.109 137.466C121.693 137.466 122.15 135.661 122.652 134.838C122.812 134.587 123.018 134.45 123.315 134.473L125.212 134.747Z" fill="#ED9558"/>
<path d="M117.077 131.388L119.865 127.846L121.67 128.92L118.403 132.348L117.077 131.388Z" fill="#D7DDE9"/>
<path d="M118.814 132.073C118.882 132.188 118.951 132.302 118.951 132.439C118.997 133.353 119.705 135.73 120.55 136.484C121.396 137.261 120.847 137.443 119.476 136.804C117.968 136.095 117.625 134.564 117.1 134.039C116.574 133.513 116.62 133.719 115.386 132.37C114.426 131.342 116.049 130.451 117.008 130.245C117.306 130.177 117.534 130.245 117.717 130.497L118.814 132.073Z" fill="#ED9558"/>
<path d="M115.82 56.0691C115.82 56.0691 115.271 59.7254 116.322 61.4164C117.374 63.1074 117.534 63.3588 117.534 63.3588" fill="#ED8C61"/>
<path d="M118.516 64.9812C118.219 65.164 117.877 65.2554 117.557 65.2554C116.917 65.2554 116.277 64.9355 115.934 64.3185C115.911 64.2957 115.728 63.9758 114.746 62.4218C114.06 61.325 113.832 59.8396 113.809 58.5371C113.763 57.2574 113.9 56.1605 113.969 55.7949C114.129 54.7666 115.089 54.0353 116.14 54.1953C117.168 54.3552 117.899 55.315 117.739 56.3662C117.648 56.9146 117.625 57.5545 117.625 58.1486C117.625 58.7656 117.671 59.3597 117.762 59.7939C117.808 60.0453 117.877 60.2738 117.968 60.4109C119.042 62.1248 119.202 62.399 119.202 62.399C119.728 63.2902 119.43 64.4556 118.516 64.9812Z" fill="#F6AD86"/>
<path d="M111.501 85.9133C111.89 80.4518 110.061 66.9008 109.125 61.5078C108.987 60.6852 109.604 59.9311 110.45 59.9311H121.67C122.264 59.9311 122.813 60.3424 122.973 60.9137C124.252 65.8039 125.075 85.8904 125.075 85.8904H111.501V85.9133Z" fill="#E8E8E8"/>
<path d="M130.034 74.5561C129.851 73.5277 128.594 70.8998 127.201 68.1576C125.715 65.2555 124.047 62.1934 123.27 60.8223C122.836 60.0453 121.853 59.7711 121.076 60.1824C120.299 60.6166 120.025 61.5992 120.436 62.3762C121.625 64.5242 122.836 66.7865 123.91 68.8203C125.121 71.1512 126.286 72.568 126.766 73.7106C125.898 74.4647 123.727 74.5332 122.013 74.419C121.533 74.3733 119.705 74.2361 118.494 75.3559C118.014 75.79 117.466 76.5899 117.511 77.8467C117.557 78.715 117.671 79.0578 118.448 79.4463C118.768 79.6063 119.18 79.6291 119.522 79.6063C120.414 79.492 120.482 79.0121 120.482 77.9838C120.482 77.2525 120.871 76.5213 120.871 76.5213C120.871 76.5213 123.476 77.1611 125.647 77.4354C127.818 77.7096 128.709 77.2754 129.509 76.3842C129.966 75.8586 130.148 75.1959 130.034 74.5561Z" fill="#F6AD86"/>
<path d="M112.095 94.734C112.095 94.734 110.45 91.7176 111.501 85.9133H125.052C125.052 85.9133 125.235 90.3236 124.938 94.734H112.095Z" fill="#3A63A9"/>
<path d="M127.177 68.1576L125.6 68.4776L123.909 68.8203C122.858 66.7865 121.624 64.5014 120.436 62.3762C120.002 61.5992 120.299 60.6166 121.076 60.1824C121.853 59.7483 122.835 60.0453 123.269 60.8223C124.024 62.1934 125.692 65.2555 127.177 68.1576Z" fill="#ED8C61"/>
<path d="M111.935 61.2107C111.73 60.3424 110.838 59.8168 109.993 60.0453C106.108 61.0051 103.412 61.8734 101.538 62.6732C97.219 64.5014 97.2647 65.8496 97.2647 66.5351C97.2875 67.3121 97.4475 68.8432 106.748 72.2252C106.748 72.4994 106.451 73.5506 106.268 73.8933C105.834 74.6703 106.291 75.4244 106.748 76.1785C106.908 76.4299 107.274 76.7498 107.708 76.7498C108.279 76.7498 108.988 76.0185 109.079 75.4244C109.422 73.2535 109.376 71.9738 109.262 71.7225C109.262 71.6996 109.239 71.6767 109.239 71.6539C109.193 71.5853 109.17 71.5168 109.125 71.4482C109.102 71.4025 109.056 71.3797 109.033 71.334C108.988 71.2883 108.965 71.2426 108.919 71.2197C108.85 71.1512 108.782 71.1055 108.713 71.0598C108.69 71.0598 108.69 71.0369 108.668 71.0369C108.553 70.9683 108.439 70.8998 108.325 70.8541C105.171 69.5515 102.223 67.4492 100.921 66.5351C101.378 66.2838 102.018 65.9639 102.818 65.6668C104.806 64.867 107.731 63.9301 110.724 63.1988C111.615 62.9474 112.141 62.0791 111.935 61.2107Z" fill="#F6AD86"/>
<path d="M127.429 67.4492L125.258 67.8605L123.567 68.1805L122.127 68.4547C120.276 64.8213 119.842 63.9986 119.774 62.7646C119.705 61.3707 120.071 60.6623 120.985 60.1596C121.899 59.6568 123.041 59.9767 123.544 60.8908C123.59 60.9594 125.555 63.7701 127.429 67.4492Z" fill="#E8E8E8"/>
<path d="M133.325 112.65C133.119 113.975 132.411 115.415 131.405 117.174C129.714 120.099 127.132 123.367 124.801 126.086C123.179 127.983 121.693 129.628 120.756 130.748C120.345 131.228 120.025 131.616 119.842 131.868L117.923 129.4C118.631 128.394 119.294 127.046 120.117 125.789C120.139 125.766 120.162 125.721 120.185 125.698C121.739 123.344 123.407 120.693 124.733 118.271C124.778 118.18 124.824 118.111 124.87 118.02C126.287 115.46 127.338 113.198 127.543 111.873C127.909 109.519 124.367 102.161 120.871 95.6709C120.482 94.9168 120.071 94.1856 119.682 93.4772C119.545 93.2258 119.477 92.9745 119.454 92.7002C119.363 91.512 120.231 90.1409 121.305 89.5467C122.607 88.8155 124.298 88.4499 125.03 89.7524C126.515 92.4489 134.216 106.868 133.325 112.65Z" fill="#3A63A9"/>
<path d="M124.801 126.086C123.178 127.983 121.693 129.628 120.756 130.748C120.596 129.423 120.436 127.983 120.276 126.52C120.253 126.246 120.207 125.949 120.185 125.675C121.738 123.321 123.407 120.67 124.732 118.248C124.823 120.648 124.823 123.458 124.801 126.086Z" fill="#2D548D"/>
<path d="M124.458 113.381C123.796 107.965 119.248 93.4086 118.54 91.809C117.946 90.4379 114.655 90.1408 113.284 90.7578C111.913 91.352 111.296 92.9516 111.89 94.3227C113.718 98.4817 118.905 109.61 119.431 113.541C119.728 115.895 120.139 120.625 120.871 124.67C121.396 127.48 121.922 130.222 122.31 132.211C122.653 133.947 122.653 133.627 122.676 133.787L125.921 133.285C125.921 133.285 125.235 119.779 124.458 113.381Z" fill="#3A63A9"/>
<path d="M110.747 63.1531C107.753 63.8844 104.828 64.8213 102.84 65.6211L101.515 62.6504C103.388 61.8734 106.085 60.9822 109.97 60.0224C110.838 59.8168 111.706 60.3424 111.912 61.1879C112.141 62.0791 111.615 62.9474 110.747 63.1531Z" fill="#ED8C61"/>
<path d="M110.016 59.9767C111.045 59.8168 111.799 60.3195 112.073 61.325C112.347 62.3305 111.662 63.1074 110.747 63.633C109.651 64.2728 109.262 64.4099 104.623 66.0096L102.041 62.4447C107.982 60.1367 108.279 60.2281 110.016 59.9767Z" fill="#E8E8E8"/>
<path d="M117.739 59.7939C117.648 59.7939 117.557 59.7939 117.488 59.7939C116.094 59.7939 114.814 59.3369 113.809 58.5371C113.763 57.2574 113.9 56.1605 113.969 55.7949C114.129 54.7666 115.089 54.0353 116.14 54.1953C117.168 54.3552 117.899 55.315 117.739 56.3662C117.648 56.9146 117.625 57.5545 117.625 58.1486C117.579 58.7427 117.625 59.3369 117.739 59.7939Z" fill="#ED8C61"/>
<path d="M123.109 53.0299C122.355 56.5262 120.413 59.0856 117.054 59.0856C113.717 59.0856 111.615 56.549 110.998 53.0299C110.45 49.7393 113.717 46.5172 117.054 46.5172C120.436 46.4943 123.818 49.7621 123.109 53.0299Z" fill="#F6AD86"/>
<path d="M123.567 133.81L123.544 133.719C122.63 128.052 121.236 119.505 120.55 114.112C120.047 110.182 115.18 98.5273 113.352 94.3684C113.329 94.3455 113.329 94.2998 113.329 94.277C113.329 94.2541 113.329 94.2541 113.306 94.2313C113.009 93.4315 112.118 90.4607 112.964 85.7762L113.238 85.8219C112.392 90.4379 113.283 93.34 113.558 94.1398C113.558 94.1627 113.58 94.1856 113.58 94.2084C113.58 94.2313 113.58 94.2541 113.603 94.277C115.431 98.4359 120.299 110.136 120.802 114.089C121.51 119.459 122.881 128.029 123.795 133.696L123.818 133.787L123.567 133.81Z" fill="#658BC1"/>
<path d="M119.225 59.9539C119.225 60.7766 118.905 62.1477 116.757 62.1477C115.203 62.1477 113.238 61.485 112.507 60.2281L112.347 59.9539H119.225Z" fill="#C8D6DB"/>
<path d="M112.986 59.9539C113.558 60.9594 115.271 61.5992 116.757 61.5992C118.242 61.5992 118.676 60.868 118.676 59.9539H112.986Z" fill="#F6AD86"/>
<path d="M121.121 76.8412C121.121 76.8183 121.213 75.9043 120.253 74.5789L121.144 74.0533C122.264 75.7215 122.15 76.9098 122.15 76.9783L121.121 76.8412Z" fill="#82AACE"/>
<path d="M120.436 74.0762C120.938 73.8476 121.601 73.9619 121.944 74.3275C122.264 74.6931 122.127 75.1959 121.601 75.4244C121.098 75.6529 120.436 75.5387 120.093 75.173C119.773 74.7846 119.91 74.3047 120.436 74.0762Z" fill="#4E7DB0"/>
<path d="M122.972 48.551C121.144 45.6031 116.642 45.3746 115.774 45.4203C115.317 45.4432 114.312 45.7174 113.877 46.4029C113.855 45.923 113.877 45.4889 113.877 45.4889C113.489 45.9687 113.42 46.3801 113.489 46.7C113.215 46.3344 113.032 45.9459 113.032 45.9459C112.963 46.4486 113.1 46.7457 113.306 46.9057C112.072 47.2027 110.495 48.9394 111.044 52.5043C111.272 54.0582 114.791 52.8699 115.774 51.316C116.437 52.39 117.762 52.6185 117.762 52.6185C117.305 52.1615 116.894 51.476 116.574 50.7904C118.448 51.933 120.939 53.167 121.236 53.9211C121.236 53.9211 121.784 52.7099 121.373 51.933C121.373 51.933 122.858 52.2986 123.041 53.784C123.018 53.7383 124.915 51.7045 122.972 48.551Z" fill="#424344"/>
<path d="M118.597 85.7688L118.326 85.8125L119.806 94.9715L120.077 94.9277L118.597 85.7688Z" fill="#658BC1"/>
<path d="M119.659 93.2258L119.613 92.9515C119.613 92.9515 120.185 92.8601 120.482 92.426C120.664 92.1746 120.71 91.8547 120.664 91.489L119.728 85.6848L120.002 85.639L120.939 91.4433C121.007 91.9004 120.939 92.2889 120.71 92.5859C120.345 93.1344 119.682 93.2258 119.659 93.2258Z" fill="#658BC1"/>
<path d="M110.815 52.6643C110.541 53.2584 110.587 53.8983 110.838 54.4467C111.135 55.0866 112.072 55.0408 112.346 54.401L113.123 52.6643C113.42 52.0244 112.826 51.316 112.141 51.4989C111.57 51.6817 111.067 52.093 110.815 52.6643Z" fill="#F6AD86"/>
<defs>
<linearGradient id="paint0_linear" x1="145.505" y1="140.426" x2="29.5709" y2="33.923" gradientUnits="userSpaceOnUse">
<stop stop-color="#6FC7DA"/>
<stop offset="0.3693" stop-color="#0D71B9"/>
<stop offset="0.7613" stop-color="#9E1460"/>
<stop offset="1" stop-color="#E7267A"/>
</linearGradient>
<linearGradient id="paint1_linear" x1="96.7407" y1="76.3129" x2="46.4753" y2="22.9977" gradientUnits="userSpaceOnUse">
<stop stop-color="#6FC7DA"/>
<stop offset="1" stop-color="#9E1460"/>
</linearGradient>
<linearGradient id="paint2_linear" x1="72.8254" y1="125.734" x2="44.2279" y2="122.606" gradientUnits="userSpaceOnUse">
<stop stop-color="#6FC7DA"/>
<stop offset="0.6927" stop-color="#9E1460"/>
<stop offset="1" stop-color="#E7267A"/>
</linearGradient>
</defs>
</svg>
