<svg width="188" height="188" viewBox="0 0 188 188" fill="none" xmlns="http://www.w3.org/2000/svg">
<path d="M0 15C0 6.71573 6.71573 0 15 0H173C181.284 0 188 6.71573 188 15V173C188 181.284 181.284 188 173 188H15C6.71573 188 0 181.284 0 173V15Z" fill="#BCD1FF"/>
<path opacity="0.34" d="M50.466 148.338C60.4013 148.338 68.4555 146.762 68.4555 144.819C68.4555 142.875 60.4013 141.299 50.466 141.299C40.5307 141.299 32.4766 142.875 32.4766 144.819C32.4766 146.762 40.5307 148.338 50.466 148.338Z" fill="#575FA8"/>
<path d="M52.4346 138.469L52.0654 144.474H62.7951C62.7951 144.474 58.4146 141.545 56.4705 140.61L56.249 138.494H52.4346V138.469Z" fill="#F08789"/>
<path d="M55.757 90.8255L56.4707 140.093H52.2379C52.2379 140.093 47.5621 120.8 49.8508 115.164L45.7656 90.8255H55.757Z" fill="#32388D"/>
<path opacity="0.2" d="M55.7568 90.8255H45.79L49.8752 115.164C49.0877 117.108 49.1123 120.701 49.5061 124.565L56.3721 132.957L55.7568 90.8255Z" fill="#020203"/>
<path d="M41.1146 139.257L39.4658 145.262H51.1799C51.1799 145.262 46.2334 142.333 44.2646 141.398L44.6338 139.281H41.1146V139.257Z" fill="#F08789"/>
<path d="M56.0527 90.2103L51.8938 114.918L44.8801 140.093H40.6719C40.6719 140.093 42.0254 115.927 46.3566 113.417L42.9359 90.2349H56.0527V90.2103Z" fill="#32388D"/>
<path opacity="0.2" d="M55.7816 91.9084L56.0523 90.2103H42.9355L43.2309 92.2283L55.8063 93.8279L55.7816 91.9084Z" fill="#020203"/>
<path d="M62.8203 73.156C62.8203 73.156 65.4289 68.9478 69.4895 67.9881L67.8898 69.9076C67.8898 69.9076 68.6527 71.901 67.693 72.9099C66.7332 73.9189 65.1828 73.9927 65.1828 73.9927L64.1 75.1986L62.8203 73.156Z" fill="#F5ABAE"/>
<path d="M52.5086 69.7107L56.077 76.9951L63.066 72.2701L64.8133 74.9525C64.8133 74.9525 58.7348 86.3713 56.0523 85.5346C53.3699 84.6978 51.0566 78.6685 51.0566 78.6685L52.5086 69.7107Z" fill="white"/>
<path opacity="0.2" d="M56.0523 76.9951L52.484 69.7107L51.0566 78.6685C51.0566 78.6685 53.3699 84.6978 56.0523 85.5346C56.1262 85.5592 56.1754 85.5592 56.2492 85.5592L59.473 74.6572L56.0523 76.9951Z" fill="#020203"/>
<path d="M55.2153 52.5087C55.2153 52.5087 55.6337 56.2247 56.0521 57.1353H54.8954C54.8954 57.1353 54.9938 60.7036 54.2556 61.1466C53.7388 61.4665 52.2376 61.1466 51.8931 61.565C51.5485 61.9833 51.0317 64.9611 51.0317 64.9611L46.3806 64.5673L46.8481 60.4083C46.8481 60.4083 44.2396 57.2829 45.0271 53.4439C45.8146 49.6048 54.5263 48.9404 55.2153 52.5087Z" fill="#F5ABAE"/>
<path opacity="0.2" d="M49.408 58.7103L45.7412 58.5135C46.2826 59.6701 46.8732 60.3838 46.8732 60.3838L46.4057 64.5428L51.0568 64.9365C51.0568 64.9365 51.5736 61.9588 51.9182 61.5404C52.0412 61.3928 52.3365 61.3189 52.6811 61.3189C50.8846 60.8267 49.2604 58.8088 49.408 58.7103Z" fill="#020203"/>
<path d="M55.364 53.7392C55.364 53.7392 54.3796 54.3298 52.4108 53.0255C52.4108 53.0255 51.0819 55.4126 49.9253 55.0927C49.9253 55.0927 49.8761 56.7908 49.63 56.9138C49.3839 57.0369 48.8917 55.4619 48.3995 55.3634C47.9073 55.265 47.3905 55.7572 47.9319 57.2337C48.4487 58.7103 49.4085 58.7103 49.4085 58.7103L46.8491 60.4083C46.8491 60.4083 44.8312 59.7685 44.4374 58.0951C44.4374 58.0951 41.878 55.6095 43.4284 53.8376C43.4284 53.8376 41.7304 52.4103 45.6925 50.663C45.6925 50.663 46.6276 47.2177 48.4733 48.7927C48.4733 48.7927 51.8941 46.2333 52.7308 48.522C52.7308 48.522 57.1358 48.1529 57.4066 50.54C57.6773 52.9271 56.6191 53.4931 56.6191 53.4931C56.6191 53.4931 56.8651 55.4619 55.6347 55.5603L55.364 53.7392Z" fill="#212226"/>
<path d="M43.1571 69.3908C43.1571 69.3908 40.8439 68.8247 41.2376 66.3638C41.6314 63.8783 44.8798 62.7708 51.5489 64.3212C52.3364 64.4935 52.9517 65.7978 52.4349 66.9298C52.4349 66.9298 54.5759 72.1962 55.2403 76.5029C55.9048 80.8095 56.2493 85.313 56.9876 87.4048C57.7013 89.4966 57.1106 91.8345 55.1173 91.8345C53.1485 91.8345 45.372 91.8345 42.9603 91.8345C40.5485 91.8345 40.2532 88.4876 41.213 84.9931C42.1481 81.5232 43.5509 71.9009 43.1571 69.3908Z" fill="#444496"/>
<path d="M48.5716 68.0373C52.3614 68.8494 49.7282 76.3799 48.9653 78.5209C48.2024 80.6865 47.3657 82.606 48.5716 84.2795C49.7774 85.9529 51.8938 87.8232 51.8938 87.8232L50.4665 90.8256C50.4665 90.8256 42.5669 89.8166 40.6719 87.4787C38.8016 85.1408 39.8598 79.9236 41.4841 76.3306C43.1083 72.7377 45.7415 67.4467 48.5716 68.0373Z" fill="white"/>
<path d="M50.245 91.3423C50.1466 91.2931 50.122 91.1947 50.1466 91.0962L52.0661 86.9126C52.1153 86.8142 52.2138 86.7896 52.3122 86.8142C52.4106 86.8634 52.4352 86.9619 52.4106 87.0603L50.4911 91.2439C50.4419 91.3423 50.3434 91.3669 50.245 91.3423Z" fill="#A77071"/>
<path d="M48.4477 105.591C48.4477 106.206 47.9555 106.723 47.3156 106.723C46.7004 106.723 46.1836 106.206 46.1836 105.591C46.1836 104.976 46.6758 104.459 47.3156 104.459C47.9555 104.484 48.4477 104.976 48.4477 105.591Z" fill="#59BCAB"/>
<path d="M41.4094 105.296C39.8344 105.296 38.5547 104.016 38.5547 102.441C38.5547 100.866 39.8344 99.5863 41.4094 99.5863C42.9844 99.5863 44.2641 100.866 44.2641 102.441C44.2641 104.016 42.9844 105.296 41.4094 105.296ZM41.4094 101.088C40.6465 101.088 40.0559 101.703 40.0559 102.441C40.0559 103.179 40.6711 103.795 41.4094 103.795C42.1723 103.795 42.7629 103.179 42.7629 102.441C42.7629 101.703 42.1723 101.088 41.4094 101.088Z" fill="#FCC450"/>
<path d="M123.482 49.4571H122.547V50.4168C122.547 50.8598 122.202 51.2043 121.759 51.2043C121.316 51.2043 120.972 50.8598 120.972 50.4168V49.4571H120.012C119.569 49.4571 119.225 49.1125 119.225 48.6696C119.225 48.2266 119.569 47.8821 120.012 47.8821H120.972V46.9223C120.972 46.4793 121.316 46.1348 121.759 46.1348C122.202 46.1348 122.547 46.4793 122.547 46.9223V47.8821H123.507C123.95 47.8821 124.294 48.2266 124.294 48.6696C124.27 49.1125 123.925 49.4571 123.482 49.4571Z" fill="#59BCAB"/>
<path d="M131.209 44.4859C131.209 45.1012 130.717 45.618 130.077 45.618C129.462 45.618 128.945 45.1258 128.945 44.4859C128.945 43.8707 129.462 43.3539 130.077 43.3539C130.693 43.3539 131.209 43.8461 131.209 44.4859Z" fill="#345185"/>
<path d="M72.9582 69.809C69.5621 61.2942 71.3093 51.2289 78.2 44.3383C81.5222 41.016 85.5828 38.875 89.8648 37.9645L92.3996 49.4571C87.0593 50.6137 83.0726 55.3633 83.0726 61.0481C83.0726 62.5985 83.3679 64.075 83.9093 65.4531L72.9582 69.809Z" fill="#345185"/>
<path d="M78.1996 77.7578C78.0273 77.5855 77.8305 77.3886 77.6582 77.1918L86.2469 69.1445C88.4125 71.4578 91.4887 72.8851 94.9094 72.8851C101.455 72.8851 106.771 67.5695 106.771 61.0234C106.771 56.3476 104.089 52.3117 100.151 50.3922L105.368 39.8347C107.632 40.9422 109.749 42.4433 111.619 44.3137C120.848 53.5422 120.848 68.5293 111.619 77.7578C102.415 86.9863 87.4281 86.9863 78.1996 77.7578Z" fill="white"/>
<path d="M94.9346 49.1864C94.0486 49.1864 93.2119 49.2848 92.3998 49.4571L89.8896 37.9645C95.0576 36.8325 100.546 37.4477 105.394 39.8594L100.176 50.4169C98.6014 49.6048 96.8049 49.1864 94.9346 49.1864Z" fill="#59BCAB"/>
<path d="M77.6584 77.1918C75.5912 74.977 74.0162 72.4668 72.958 69.809L83.9092 65.4531C84.4506 66.8312 85.2627 68.0863 86.2717 69.1691L77.6584 77.1918Z" fill="#C1E4EE"/>
<path d="M148.805 55.7816V134.975C148.805 136.304 147.723 137.386 146.394 137.386H95.7477C94.4188 137.386 93.3359 136.304 93.3359 134.975V55.7816C93.3359 54.4527 94.4188 53.3453 95.7477 53.3453H146.369C147.723 53.3453 148.805 54.4281 148.805 55.7816Z" fill="#4FBECB"/>
<path d="M87.7492 139.65H154.391C155.007 139.65 155.523 139.158 155.523 138.518C155.523 137.903 155.031 137.386 154.391 137.386H87.7492C87.134 137.386 86.6172 137.878 86.6172 138.518C86.6172 139.158 87.134 139.65 87.7492 139.65Z" fill="#E2E2E1"/>
<path d="M148.805 55.757V61.6633H93.3359V55.757C93.3359 54.4281 94.4188 53.3207 95.7477 53.3207H146.369C147.723 53.3453 148.805 54.4281 148.805 55.757Z" fill="#4FBECB"/>
<path d="M121.071 135.295C119.816 135.295 118.807 134.286 118.807 133.03C118.807 131.775 119.816 130.766 121.071 130.766C122.326 130.766 123.335 131.775 123.335 133.03C123.359 134.286 122.326 135.295 121.071 135.295Z" fill="#E6F2EA"/>
<path d="M99.734 58.3656C99.2172 58.3656 98.7988 57.9473 98.7988 57.4305C98.7988 56.9137 99.2172 56.4953 99.734 56.4953C100.251 56.4953 100.669 56.9137 100.669 57.4305C100.645 57.9473 100.226 58.3656 99.734 58.3656Z" fill="#E6F2EA"/>
<path d="M102.663 58.3656C102.146 58.3656 101.728 57.9473 101.728 57.4305C101.728 56.9137 102.146 56.4953 102.663 56.4953C103.179 56.4953 103.598 56.9137 103.598 57.4305C103.598 57.9473 103.179 58.3656 102.663 58.3656Z" fill="#E6F2EA"/>
<path d="M147.944 61.6633H94.1973V128.33H147.944V61.6633Z" fill="#D2EBF7"/>
<path d="M103.817 84.0086V76.109H86.0248V84.0086H103.817Z" fill="#A9DAE5"/>
<path d="M114.675 104.111V96.211H96.8822V104.111H114.675Z" fill="#A9DAE5"/>
<path d="M109.258 94.0721V86.1725H91.4652V94.0721H109.258Z" fill="#A9DAE5"/>
<path d="M144.867 64.4688H96.8789V73.4512H144.867V64.4688Z" fill="#EDF6F4"/>
<path d="M143.415 65.7484H137.041V72.1223H143.415V65.7484Z" fill="#D2E8F2"/>
<path d="M113.785 66.1422H99.9795V67.3727H113.785V66.1422Z" fill="#ACD8C8"/>
<path d="M113.785 68.3324H99.9795V69.5629H113.785V68.3324Z" fill="#ACD8C8"/>
<path d="M109.282 70.5227H99.9795V71.7532H109.282V70.5227Z" fill="#ACD8C8"/>
<path opacity="0.5" d="M153.924 102.835H114.672V121.267H153.924V102.835Z" fill="#96CEB8"/>
<path d="M133.99 109.209H118.585V110.759H133.99V109.209Z" fill="#E6F2EA"/>
<path d="M130.324 111.965H118.585V113.515H130.324V111.965Z" fill="#E6F2EA"/>
<path d="M126.509 114.746H118.585V116.296H126.509V114.746Z" fill="#E6F2EA"/>
<path d="M132.218 114.746H127.493V116.296H132.218V114.746Z" fill="#E6F2EA"/>
<path d="M129.29 117.502H118.585V119.052H129.29V117.502Z" fill="#E6F2EA"/>
<path d="M111.054 107.068H96.8789V121.243H111.054V107.068Z" fill="#9FD2BA"/>
<path d="M107.101 117.335C108.831 115.605 108.831 112.8 107.101 111.07C105.371 109.34 102.566 109.34 100.836 111.07C99.1065 112.8 99.1065 115.605 100.836 117.335C102.566 119.064 105.371 119.064 107.101 117.335Z" fill="#7CC39E"/>
<path d="M107.338 114.204C107.338 115.312 106.796 116.296 105.959 116.911C105.713 117.084 105.443 117.256 105.147 117.354C105.024 117.404 104.877 117.453 104.754 117.477C104.68 117.502 104.581 117.502 104.507 117.527C104.335 117.551 104.163 117.576 103.991 117.576C103.646 117.576 103.302 117.527 102.982 117.428C101.604 117.01 100.619 115.73 100.619 114.204C100.619 113.688 100.742 113.171 100.964 112.728C101.234 112.186 101.628 111.719 102.12 111.399C102.243 111.325 102.366 111.251 102.489 111.177C102.76 111.03 103.055 110.931 103.375 110.882C103.572 110.833 103.794 110.833 103.991 110.833C105.418 110.833 106.648 111.719 107.116 112.974C107.239 113.368 107.338 113.761 107.338 114.204Z" fill="#EFF4F4"/>
<path d="M103.966 114.598C103.745 114.598 103.572 114.426 103.572 114.204V112.039C103.572 111.817 103.745 111.645 103.966 111.645C104.187 111.645 104.36 111.817 104.36 112.039V114.204C104.36 114.426 104.187 114.598 103.966 114.598Z" fill="#C1D6CF"/>
<path d="M103.966 114.598C103.843 114.598 103.72 114.524 103.646 114.426C103.523 114.254 103.597 114.008 103.769 113.884L104.877 113.171C105.049 113.048 105.295 113.122 105.418 113.294C105.541 113.466 105.467 113.712 105.295 113.835L104.187 114.549C104.114 114.574 104.04 114.598 103.966 114.598Z" fill="#C1D6CF"/>
<path d="M144.868 76.109H116.862V104.114H144.868V76.109Z" fill="#98D5E9"/>
<path d="M130.865 91.3668C128.896 91.3668 127.297 89.7672 127.297 87.7985V85.6575C127.297 83.6887 128.896 82.0891 130.865 82.0891C132.834 82.0891 134.434 83.6887 134.434 85.6575V87.7985C134.434 89.7672 132.834 91.3668 130.865 91.3668Z" fill="#F8FCFA"/>
<path d="M130.865 89.5457C127.493 89.5457 124.614 91.5145 123.261 94.3692C122.473 96.0426 123.679 97.9622 125.525 97.9622H136.23C138.075 97.9622 139.281 96.0426 138.494 94.3692C137.14 91.5145 134.236 89.5457 130.865 89.5457Z" fill="#F8FCFA"/>
<path d="M144.862 124.48V122.191L96.874 122.191V124.48L144.862 124.48Z" fill="#FFE1AB"/>
<path d="M148.461 75.1984V66.8559C149.052 66.8559 149.544 67.3481 149.544 67.9387V74.1402C149.544 74.7309 149.052 75.1984 148.461 75.1984Z" fill="#4FBECB"/>
<path d="M148.461 84.5254V76.1828C149.052 76.1828 149.544 76.675 149.544 77.2656V83.4672C149.544 84.0332 149.052 84.5254 148.461 84.5254Z" fill="#4FBECB"/>
<path opacity="0.3" d="M125.376 61.6633L94.1963 92.8433V76.0844L108.617 61.6633H125.376Z" fill="#F6FBFD"/>
<path opacity="0.3" d="M137.041 61.6633L94.1963 104.508V96.141L128.674 61.6633H137.041Z" fill="#F6FBFD"/>
<path opacity="0.3" d="M105.32 109.652V116.838C105.32 117.133 105.123 117.404 104.852 117.477V137.362H95.7711C94.4422 137.362 93.3594 136.279 93.3594 134.95V95.009H103.179C104.114 95.009 104.852 95.7719 104.852 96.6825V109.012C105.123 109.11 105.32 109.356 105.32 109.652Z" fill="#385F82"/>
<path d="M98.4051 91.6867V146.664C98.4051 147.599 97.6422 148.338 96.7316 148.338H67.8648C66.9543 148.338 66.1914 147.599 66.1914 146.664V91.6867C66.1914 90.7516 66.9543 90.0133 67.8648 90.0133H96.707C97.6422 90.0133 98.4051 90.7516 98.4051 91.6867Z" fill="#5BB98E"/>
<path d="M98.4051 91.6867V95.7965H66.1914V91.6867C66.1914 90.7516 66.9543 90.0133 67.8648 90.0133H96.7316C97.6422 90.0133 98.4051 90.7762 98.4051 91.6867Z" fill="#5BB98E"/>
<path d="M82.2859 146.91C81.4246 146.91 80.7109 146.197 80.7109 145.335C80.7109 144.474 81.4246 143.76 82.2859 143.76C83.1473 143.76 83.8609 144.474 83.8609 145.335C83.8609 146.197 83.1719 146.91 82.2859 146.91Z" fill="#E6F2EA"/>
<path d="M76.4533 93.4832C76.1088 93.4832 75.8135 93.1879 75.8135 92.8434C75.8135 92.4989 76.1088 92.2036 76.4533 92.2036C76.7978 92.2036 77.0932 92.4989 77.0932 92.8434C77.0932 93.2125 76.8225 93.4832 76.4533 93.4832Z" fill="#E6F2EA"/>
<path d="M85.534 93.0895H79.1602C79.0371 93.0895 78.9141 92.991 78.9141 92.8434C78.9141 92.6957 79.0125 92.5973 79.1602 92.5973H85.534C85.657 92.5973 85.7801 92.6957 85.7801 92.8434C85.7801 92.991 85.657 93.0895 85.534 93.0895Z" fill="#E6F2EA"/>
<path d="M97.79 95.7965H66.7822V142.087H97.79V95.7965Z" fill="#D2EBF7"/>
<path d="M74.9031 120.406H69.2676V122.178H74.9031V120.406Z" fill="#EDF6F4"/>
<path d="M89.2508 120.406H83.6152V122.178H89.2508V120.406Z" fill="#EDF6F4"/>
<path d="M82.0643 120.406H76.4287V122.178H82.0643V120.406Z" fill="#EDF6F4"/>
<path d="M95.3539 123.63H72.6641V129.856H95.3539V123.63Z" fill="#EDF6F4"/>
<path d="M94.3447 124.516H89.915V128.945H94.3447V124.516Z" fill="#D5EAE4"/>
<path d="M81.0801 124.786H71.4824V125.648H81.0801V124.786Z" fill="#ACD8C8"/>
<path d="M81.0801 126.312H71.4824V127.173H81.0801V126.312Z" fill="#ACD8C8"/>
<path d="M77.9301 127.838H71.4824V128.699H77.9301V127.838Z" fill="#ACD8C8"/>
<path d="M85.9031 131.406H69.3164V139.183H85.9031V131.406Z" fill="#EDF6F4"/>
<path d="M79.948 132.587H71.4824V133.449H79.948V132.587Z" fill="#FFE1AB"/>
<path d="M77.9301 134.089H71.4824V134.95H77.9301V134.089Z" fill="#FFE1AB"/>
<path d="M75.8383 135.614H71.4824V136.476H75.8383V135.614Z" fill="#FFE1AB"/>
<path d="M78.9629 135.614H76.3789V136.476H78.9629V135.614Z" fill="#ACD8C8"/>
<path d="M77.3641 137.14H71.4824V138.002H77.3641V137.14Z" fill="#FFE1AB"/>
<path opacity="0.5" d="M89.2748 98.6758H64.8623V118.585H89.2748V98.6758Z" fill="#FFE1AB"/>
<path d="M79.3084 114.943C82.7606 114.943 85.5592 112.144 85.5592 108.692C85.5592 105.24 82.7606 102.441 79.3084 102.441C75.8562 102.441 73.0576 105.24 73.0576 108.692C73.0576 112.144 75.8562 114.943 79.3084 114.943Z" fill="#FCC450"/>
<path d="M84.033 108.692C84.033 110.267 83.2701 111.645 82.1135 112.506C81.7689 112.752 81.3752 112.974 80.9568 113.121C80.7846 113.195 80.5877 113.244 80.3908 113.294C80.2678 113.318 80.1447 113.343 80.0463 113.368C79.8002 113.417 79.5541 113.417 79.308 113.417C78.8158 113.417 78.3482 113.343 77.9053 113.195C75.9857 112.605 74.583 110.784 74.583 108.667C74.583 107.929 74.7553 107.24 75.0506 106.6C75.4197 105.837 75.9857 105.173 76.6994 104.705C76.8717 104.582 77.0439 104.484 77.2162 104.41C77.61 104.213 78.0283 104.065 78.4467 103.991C78.742 103.942 79.0127 103.918 79.308 103.918C81.326 103.918 83.0486 105.173 83.7131 106.944C83.9346 107.511 84.033 108.101 84.033 108.692Z" fill="#EFF4F4"/>
<path d="M79.308 109.258C79.0127 109.258 78.7666 109.012 78.7666 108.716V105.689C78.7666 105.394 79.0127 105.148 79.308 105.148C79.6033 105.148 79.8494 105.394 79.8494 105.689V108.716C79.8494 109.012 79.6033 109.258 79.308 109.258Z" fill="#C1D6CF"/>
<path d="M79.3082 109.258C79.1359 109.258 78.939 109.159 78.8406 109.012C78.6683 108.766 78.7668 108.421 79.0129 108.249L80.5879 107.264C80.834 107.092 81.1785 107.191 81.3508 107.437C81.523 107.683 81.4246 108.027 81.1785 108.2L79.6035 109.184C79.505 109.233 79.4066 109.258 79.3082 109.258Z" fill="#C1D6CF"/>
<path opacity="0.3" d="M88.4385 95.7965L66.7822 117.428V105.812L76.7982 95.7965H88.4385Z" fill="#F6FBFD"/>
<path opacity="0.3" d="M96.535 95.7965L66.7822 125.549V119.717L90.7025 95.7965H96.535Z" fill="#F6FBFD"/>
<g opacity="0.7">
<path opacity="0.7" d="M99.5865 131.406H87.5771V143.416H99.5865V131.406Z" fill="#9FD2BA"/>
<path opacity="0.7" d="M93.557 137.952C92.7203 137.952 92.0312 137.263 92.0312 136.427V135.516C92.0312 134.679 92.7203 133.99 93.557 133.99C94.3937 133.99 95.0828 134.679 95.0828 135.516V136.427C95.1074 137.263 94.4184 137.952 93.557 137.952Z" fill="#F8FCFA"/>
<path opacity="0.7" d="M93.5575 137.165C92.1055 137.165 90.8751 138.002 90.2844 139.232C89.9399 139.946 90.4567 140.782 91.2442 140.782H95.8215C96.609 140.782 97.1258 139.946 96.7813 139.232C96.2645 138.002 95.0094 137.165 93.5575 137.165Z" fill="#F8FCFA"/>
</g>
<path d="M95.0332 98.6758H91.4648V122.178H95.0332V98.6758Z" fill="#9FD2BA"/>
<path d="M98.1592 112.555V103.967C98.5529 103.967 98.8728 104.287 98.8728 104.68V111.866C98.8728 112.236 98.5529 112.555 98.1592 112.555Z" fill="#5BB98E"/>
<path opacity="0.3" d="M76.6008 90.0133L73.6477 98.6758L66.8555 118.585L66.191 120.554V118.585H64.8867V98.6758H66.191V91.6867C66.191 90.7516 66.9539 90.0133 67.8645 90.0133H76.6008Z" fill="#385F82"/>
<path d="M50.1213 150.602H102.933C103.548 150.602 104.065 150.109 104.065 149.469C104.065 148.854 103.573 148.337 102.933 148.337H50.1213C49.5061 148.337 48.9893 148.83 48.9893 149.469C49.0139 150.109 49.5061 150.602 50.1213 150.602Z" fill="#E2E2E1"/>
</svg>
