<svg width="197" height="208" viewBox="0 0 197 208" fill="none" xmlns="http://www.w3.org/2000/svg">
<path d="M0 16C0 7.16344 7.16344 0 16 0H197V208H16C7.16345 208 0 200.837 0 192V16Z" fill="url(#paint0_linear)"/>
<path d="M83.8065 69.1487C81.5213 70.1085 72.6778 73.7876 67.7418 83.3167C66.6907 85.3505 61.7547 94.8796 65.3881 103.289C70.2098 114.44 84.8805 111.721 91.6217 122.21C97.4032 131.236 85.4061 140.103 90.5706 150.843C93.267 156.442 99.4827 161.126 105.218 161.56C123.157 162.909 155.378 124.267 142.284 93.9426C132.732 71.9137 102.293 61.4477 83.8065 69.1487Z" fill="url(#paint1_linear)"/>
<path d="M120.369 86.4701L87.3484 74.2217C86.3429 73.856 85.2461 74.3588 84.8804 75.3642L62.5773 135.395C62.2117 136.401 62.7144 137.498 63.7199 137.863L96.7404 150.112C97.7459 150.477 98.8427 149.975 99.2084 148.969L121.511 88.9152C121.877 87.9326 121.374 86.8357 120.369 86.4701Z" fill="#2D548D"/>
<path opacity="0.09" d="M100.579 117.228C99.7568 117.228 98.9113 117.206 98.043 117.16C85.2232 116.451 74.7572 110.739 70.0498 101.895C62.5316 87.7727 69.9127 68.0975 81.2242 61.9048C86.9371 58.7512 91.8959 58.8427 95.0494 59.4825C100.442 60.5565 104.419 63.0473 106.247 66.4751C108.212 70.1542 107.161 73.6048 106.041 77.2382C105.036 80.5059 104.007 83.8651 105.241 87.4985C106.338 90.7434 109.195 91.7489 112.234 92.8229C115.319 93.9198 118.518 95.0395 120.232 98.5815C122.037 102.329 121.809 107.448 119.729 110.533C116.896 114.646 109.4 117.228 100.579 117.228ZM91.4846 59.3911C88.6738 59.3911 85.1775 60.0309 81.3613 62.1333C70.1641 68.2803 62.8516 87.7956 70.3012 101.781C74.9629 110.556 85.3604 116.2 98.0887 116.908C107.869 117.457 116.484 114.829 119.523 110.396C121.557 107.402 121.786 102.375 120.003 98.7186C118.335 95.268 115.204 94.1712 112.165 93.0971C109.08 92.0003 106.155 90.9719 105.013 87.6128C103.756 83.888 104.807 80.4831 105.812 77.1696C106.909 73.5819 107.961 70.177 106.041 66.5893C104.259 63.2302 100.328 60.785 95.0266 59.7339C93.9982 59.5282 92.81 59.3911 91.4846 59.3911Z" fill="#AAAAD5"/>
<path opacity="0.2" d="M112.371 83.4994L108.715 85.9445L76.791 107.379L71.7408 110.784L78.6877 92.023L83.7608 88.6181L95.2094 80.9172L98.8657 78.472L112.371 83.4994Z" fill="#EEEDF3"/>
<path opacity="0.2" d="M119.638 86.1959L115.981 88.641L73.0434 117.48L67.9703 120.862L70.4383 114.258L75.4885 110.876V110.853L111.228 86.8814L114.885 84.4135L119.638 86.1959Z" fill="#EEEDF3"/>
<path d="M120.369 86.4701L119.638 86.1959L114.885 84.4363L112.371 83.4994L98.8656 78.4949L87.3484 74.2217C86.3658 73.856 85.246 74.3588 84.8804 75.3642L78.6876 92.0459L71.7179 110.807L70.4154 114.303L67.9702 120.907L62.5773 135.441C62.5087 135.624 62.4859 135.807 62.463 135.989C62.3945 136.812 62.8972 137.612 63.7198 137.909L69.8441 140.194L74.4601 141.908L86.6628 146.433L91.1189 148.078L96.7404 150.157C97.723 150.523 98.8427 150.02 99.2083 149.038L121.1 90.0806L121.511 88.9838C121.877 87.9326 121.374 86.8357 120.369 86.4701ZM117.238 90.1949L116.781 91.4517L97.9286 142.251C97.723 142.776 97.1288 143.073 96.5804 142.868L92.4443 141.337L87.4398 139.486L77.1109 135.647L72.3806 133.887L68.6101 132.493C68.1988 132.333 67.9474 131.968 67.9474 131.556C67.9474 131.419 67.9474 131.282 68.0159 131.145L73.089 117.503L75.5341 110.898L76.8366 107.402L83.8064 88.641L87.3484 79.1119C87.554 78.5863 88.1482 78.2892 88.6738 78.4949L95.255 80.94L108.76 85.9445L111.274 86.8814L116.027 88.641L116.644 88.8695C117.17 89.0752 117.444 89.6693 117.238 90.1949Z" fill="#EEEDF3"/>
<path d="M79.3046 141.52C78.3677 141.177 77.8878 140.126 78.2306 139.189C78.5734 138.252 79.6246 137.772 80.5615 138.115C81.4984 138.457 81.9783 139.509 81.6355 140.446C81.2699 141.405 80.2187 141.862 79.3046 141.52Z" fill="#C9C7D9"/>
<path opacity="0.1" d="M101.379 51.0502L55.2876 66.315C54.1679 66.6806 53.5738 67.8918 53.9394 68.9887L58.4183 82.4711C58.7839 83.5908 59.9951 84.1849 61.0919 83.8193L65.6394 82.3111L67.856 81.5799C68.4273 81.9455 69.8441 82.9053 70.4154 83.248C70.941 83.5451 71.6265 83.3166 71.8779 82.7681C72.1521 82.1512 72.7234 80.5515 72.9519 79.9117L84.1492 76.1869L107.184 68.5545C108.303 68.1889 108.897 66.9777 108.532 65.8808L104.053 52.3984C103.687 51.2787 102.499 50.6846 101.379 51.0502Z" fill="#3F3F3F"/>
<path d="M101.379 47.4854L51.9284 63.8699C50.7401 64.2584 50.1003 65.5609 50.4888 66.7492L55.2876 81.2143C55.6761 82.4025 56.9786 83.0424 58.1669 82.6539L63.0343 81.0314L65.4108 80.2545C66.005 80.6658 67.536 81.6713 68.153 82.0369C68.7015 82.3568 69.4556 82.1055 69.7298 81.5113C70.004 80.8486 70.6439 79.1119 70.8724 78.4492L82.8923 74.4731L107.618 66.2693C108.806 65.8809 109.446 64.5783 109.057 63.39L104.258 48.925C103.87 47.7367 102.59 47.0969 101.379 47.4854Z" fill="url(#paint2_linear)"/>
<path d="M64.451 70.6568C64.7938 70.0627 64.8852 69.3314 64.6567 68.623L64.2682 67.4576C63.834 66.1551 62.4629 65.3553 61.1376 65.7437C59.7665 66.1551 59.0352 67.5947 59.4694 68.943L59.8807 70.2227C60.1092 70.931 60.6348 71.4566 61.2518 71.7309C59.835 72.8049 59.0124 74.5187 59.1266 76.324C59.1723 77.0324 59.8807 77.4666 60.5434 77.2609L68.2672 74.7016C68.9299 74.473 69.227 73.6961 68.8614 73.1019C67.9016 71.548 66.2335 70.6568 64.451 70.6568Z" fill="white"/>
<path d="M83.0522 58.4542L73.2032 61.7219C72.4034 61.9962 71.9692 62.8645 72.2206 63.6643L73.8202 68.5089C74.0944 69.3087 74.9628 69.7428 75.7626 69.4915L76.7223 69.1716C76.7223 69.1716 78.5505 70.4055 79.1675 70.7712C79.6245 71.0225 80.2415 70.8397 80.4472 70.337C80.7442 69.6743 81.4755 67.5948 81.4755 67.5948L85.6116 66.2237C86.4114 65.9495 86.8456 65.0811 86.5942 64.2813L84.9946 59.4368C84.7204 58.6141 83.852 58.1799 83.0522 58.4542Z" fill="white"/>
<path d="M74.917 63.9613C74.5971 64.0299 74.2543 63.8699 74.1629 63.55C74.0487 63.2072 74.2315 62.8416 74.5742 62.7502L82.5723 60.0994C82.8922 59.9852 83.2807 60.168 83.3721 60.5108C83.4864 60.8535 83.3035 61.2192 82.9608 61.3106L74.9627 63.9613C74.9399 63.9613 74.9399 63.9613 74.917 63.9613Z" fill="#E2E1E1"/>
<path d="M75.6026 66.0638C75.2826 66.1323 74.9399 65.9724 74.8485 65.6524C74.7342 65.3097 74.917 64.944 75.2598 64.8526L83.2578 62.2019C83.5778 62.0876 83.9662 62.2704 84.0576 62.6132C84.1719 62.956 83.9891 63.3216 83.6463 63.413L75.6483 66.0638C75.6483 66.0409 75.6254 66.0638 75.6026 66.0638Z" fill="#E2E1E1"/>
<path d="M76.3111 68.1433C75.9911 68.2118 75.6484 68.0519 75.557 67.7319C75.4427 67.3892 75.6255 67.0235 75.9683 66.9321L79.5788 65.7438C79.8987 65.6296 80.2644 65.8124 80.3786 66.1552C80.4929 66.4979 80.3101 66.8636 79.9673 66.955L76.3568 68.1433C76.3339 68.1433 76.3339 68.1433 76.3111 68.1433Z" fill="#E2E1E1"/>
<path d="M103.573 60.7394C103.253 59.7567 102.613 58.9341 101.836 58.3856L101.494 57.3345C100.899 55.5749 99.1627 54.5466 97.3802 54.7979L97.2888 54.5009C97.1746 54.1581 96.809 53.9753 96.4662 54.0895C96.1234 54.2038 95.9406 54.5694 96.0549 54.9122L96.1463 55.2093C94.5695 56.0548 93.7925 57.9286 94.3638 59.6882L94.7066 60.7394C94.4095 61.6534 94.3867 62.6817 94.7066 63.6644L94.8666 64.1214C94.9351 64.3499 95.1865 64.487 95.415 64.3956L97.1746 63.8015C97.1974 63.9386 97.266 64.0757 97.4259 64.1214C98.1572 64.3728 98.9799 64.3728 99.7797 64.1214C100.579 63.87 101.219 63.3673 101.676 62.7274C101.768 62.5903 101.768 62.4304 101.699 62.3161L103.459 61.722C103.687 61.6534 103.824 61.402 103.733 61.1735L103.573 60.7394Z" fill="white"/>
<path d="M96.0777 63.6414C96.4205 64.6697 95.8492 65.8123 94.8208 66.1551C93.7925 66.4978 92.6499 65.9265 92.3072 64.8982C91.9644 63.8699 92.5357 62.7273 93.564 62.3845C94.6152 62.0418 95.7349 62.5902 96.0777 63.6414Z" fill="#E83C3B"/>
<path opacity="0.1" d="M151.104 89.8751L138.467 88.3669C137.919 88.2983 137.439 88.6868 137.37 89.2352L135.862 101.872C135.794 102.421 136.182 102.9 136.731 102.969L149.368 104.477C149.916 104.546 150.396 104.157 150.464 103.609L151.973 90.9719C152.041 90.4463 151.653 89.9436 151.104 89.8751Z" fill="#3F3F3F"/>
<path d="M152.59 102.718L137.827 100.958C137.576 100.935 137.393 100.707 137.439 100.455L139.199 85.6932C139.221 85.4419 139.45 85.2591 139.701 85.3048L154.463 87.0643C154.715 87.0872 154.898 87.3157 154.852 87.5671L153.092 102.329C153.069 102.558 152.841 102.74 152.59 102.718Z" fill="#F8AA09"/>
<path d="M139.016 99.3356L140.478 87.11C140.501 86.95 140.638 86.8586 140.775 86.8586L153.001 88.3211C153.161 88.344 153.252 88.4811 153.252 88.6182L151.79 100.844C151.767 101.004 151.63 101.095 151.493 101.095L139.267 99.6327C139.107 99.6327 139.016 99.4956 139.016 99.3356Z" fill="#FBBA38"/>
<path d="M146.442 95.0396L145.026 96.1593C144.774 96.3649 144.386 96.3192 144.18 96.0679C143.975 95.8165 143.609 95.7708 143.335 95.9765L141.255 97.6218C140.844 97.9417 141.027 98.6272 141.552 98.6958L141.804 98.7186L146.717 99.3128L149.482 99.6327C150.007 99.7013 150.35 99.0843 150.03 98.6729L147.288 95.131C147.082 94.8796 146.694 94.8339 146.442 95.0396Z" fill="#EE9F05"/>
<path d="M143.906 92.6629C143.837 93.2342 143.312 93.6455 142.74 93.5769C142.169 93.5084 141.758 92.9828 141.826 92.4115C141.895 91.8402 142.421 91.4289 142.992 91.4975C143.563 91.566 143.974 92.0916 143.906 92.6629Z" fill="#EE9F05"/>
<path opacity="0.1" d="M71.2152 125.729C70.7353 124.198 69.1129 123.352 67.5818 123.832L48.9349 129.728C47.4039 130.208 46.5584 131.83 47.0383 133.361L50.8773 145.496C51.3572 147.027 52.9797 147.872 54.5107 147.392L56.3388 146.821C56.3388 146.821 59.7437 149.175 60.932 149.883C61.7775 150.386 62.9429 150.02 63.3543 149.106C63.9256 147.849 65.3423 143.965 65.3423 143.965L73.1576 141.497C74.6886 141.017 75.5341 139.394 75.0543 137.863L71.2152 125.729Z" fill="#3F3F3F"/>
<path d="M64.3598 121.067L44.3646 127.397C42.7193 127.923 41.8281 129.66 42.3308 131.305L46.4441 144.33C46.9697 145.976 48.7064 146.867 50.3517 146.364L52.2941 145.747C52.2941 145.747 55.9504 148.284 57.2072 149.038C58.1213 149.586 59.3781 149.175 59.8123 148.215C60.4293 146.867 61.9375 142.685 61.9375 142.685L70.324 140.034C71.9693 139.509 72.8605 137.772 72.3578 136.127L68.2445 123.101C67.7646 121.456 66.0051 120.542 64.3598 121.067Z" fill="url(#paint3_linear)"/>
<path d="M64.4283 127.809L48.2037 132.95C47.6781 133.11 47.1068 132.836 46.9469 132.287C46.7869 131.762 47.084 131.191 47.6096 131.031L63.8342 125.889C64.3598 125.729 64.931 126.003 65.091 126.552C65.251 127.077 64.9539 127.649 64.4283 127.809Z" fill="#EDB7D5"/>
<path d="M65.8679 132.402L49.6433 137.543C49.1177 137.703 48.5464 137.429 48.3864 136.881C48.2265 136.355 48.5236 135.784 49.0491 135.624L65.2737 130.482C65.7993 130.322 66.3706 130.597 66.5306 131.145C66.6905 131.648 66.3935 132.219 65.8679 132.402Z" fill="#EDB7D5"/>
<path d="M58.4183 139.783L51.1058 142.091C50.5802 142.251 50.0089 141.954 49.849 141.428C49.689 140.902 49.9861 140.331 50.5117 140.171L57.8242 137.863C58.3497 137.703 58.921 138 59.081 138.526C59.241 139.052 58.9439 139.623 58.4183 139.783Z" fill="#EDB7D5"/>
<path opacity="0.1" d="M105.241 98.3758C104.967 97.2104 103.413 96.959 102.773 97.9874L100.214 102.123L98.7742 96.1135C98.4772 94.9024 97.266 94.1483 96.0549 94.4454L79.5332 98.3758C78.3221 98.6729 77.568 99.884 77.865 101.095L81.7955 117.617C82.0926 118.828 83.3037 119.582 84.5148 119.285L101.037 115.355C102.248 115.057 103.002 113.846 102.705 112.635L101.265 106.625L105.401 109.185C106.429 109.824 107.709 108.888 107.412 107.722L105.241 98.3758Z" fill="#3F3F3F"/>
<path d="M104.739 93.4855L101.996 97.9416L100.465 91.4974C100.145 90.1949 98.8428 89.3951 97.5403 89.6922L79.8075 93.9197C78.5049 94.2396 77.7051 95.5422 78.0022 96.8447L82.2298 114.578C82.5497 115.88 83.8522 116.68 85.1548 116.383L102.888 112.155C104.19 111.835 104.99 110.533 104.693 109.23L103.162 102.786L107.618 105.528C108.715 106.214 110.086 105.208 109.789 103.952L107.389 93.9197C107.092 92.6629 105.424 92.3886 104.739 93.4855Z" fill="#E83B5B"/>
<path d="M88.194 98.2615L94.6838 102.238L90.6848 108.728" fill="white"/>
<path d="M116.97 123.97L90.0032 128.265L92.4296 143.497L119.396 139.202L116.97 123.97Z" fill="#E83C3B"/>
<path d="M104.693 133.749L116.964 123.992L89.9993 128.288L104.693 133.749Z" fill="#EE7375"/>
<path d="M122.448 150.135H137.873C138.33 150.135 138.719 149.746 138.719 149.289C138.719 148.832 138.33 148.443 137.873 148.443H122.448C121.991 148.443 121.603 148.832 121.603 149.289C121.603 149.769 121.968 150.135 122.448 150.135Z" fill="#E2E2E1"/>
<path d="M127.544 146.547L126.813 142.091L128.824 141.474L129.144 146.227L127.544 146.547Z" fill="#D7DDE9"/>
<path d="M129.212 145.747C129.35 145.77 129.464 145.816 129.578 145.907C130.286 146.501 132.457 147.552 133.554 147.712C134.743 147.895 134.811 148.466 133.12 148.466C131.452 148.466 130.218 148.306 129.487 148.329C128.733 148.352 128.938 148.466 127.11 148.466C125.693 148.466 126.15 146.661 126.653 145.838C126.813 145.587 127.019 145.45 127.316 145.473L129.212 145.747Z" fill="#ED9558"/>
<path d="M121.077 142.388L123.865 138.846L125.67 139.92L122.403 143.348L121.077 142.388Z" fill="#D7DDE9"/>
<path d="M122.814 143.073C122.883 143.188 122.951 143.302 122.951 143.439C122.997 144.353 123.705 146.73 124.551 147.484C125.396 148.261 124.848 148.443 123.477 147.804C121.968 147.095 121.626 145.564 121.1 145.039C120.575 144.513 120.62 144.719 119.386 143.37C118.426 142.342 120.049 141.451 121.009 141.245C121.306 141.177 121.534 141.245 121.717 141.497L122.814 143.073Z" fill="#ED9558"/>
<path d="M119.82 67.0692C119.82 67.0692 119.272 70.7255 120.323 72.4165C121.374 74.1075 121.534 74.3589 121.534 74.3589" fill="#ED8C61"/>
<path d="M122.517 75.9813C122.22 76.1641 121.877 76.2555 121.557 76.2555C120.917 76.2555 120.278 75.9356 119.935 75.3186C119.912 75.2957 119.729 74.9758 118.746 73.4219C118.061 72.325 117.832 70.8397 117.81 69.5371C117.764 68.2574 117.901 67.1606 117.97 66.7949C118.129 65.7666 119.089 65.0354 120.14 65.1953C121.169 65.3553 121.9 66.3151 121.74 67.3662C121.649 67.9147 121.626 68.5545 121.626 69.1486C121.626 69.7656 121.671 70.3598 121.763 70.794C121.809 71.0453 121.877 71.2738 121.969 71.4109C123.043 73.1248 123.203 73.399 123.203 73.399C123.728 74.2902 123.431 75.4557 122.517 75.9813Z" fill="#F6AD86"/>
<path d="M115.502 96.9132C115.89 91.4517 114.062 77.9008 113.125 72.5078C112.988 71.6851 113.605 70.931 114.45 70.931H125.67C126.265 70.931 126.813 71.3424 126.973 71.9136C128.253 76.8039 129.075 96.8904 129.075 96.8904H115.502V96.9132Z" fill="#E8E8E8"/>
<path d="M134.034 85.5561C133.851 84.5277 132.594 81.8998 131.201 79.1576C129.715 76.2555 128.047 73.1934 127.27 71.8223C126.836 71.0453 125.853 70.7711 125.076 71.1824C124.299 71.6166 124.025 72.5992 124.436 73.3762C125.625 75.5242 126.836 77.7865 127.91 79.8203C129.121 82.1512 130.286 83.568 130.766 84.7105C129.898 85.4646 127.727 85.5332 126.013 85.4189C125.533 85.3732 123.705 85.2361 122.494 86.3559C122.014 86.79 121.466 87.5898 121.511 88.8467C121.557 89.715 121.671 90.0578 122.448 90.4463C122.768 90.6062 123.18 90.6291 123.522 90.6062C124.414 90.492 124.482 90.0121 124.482 88.9838C124.482 88.2525 124.871 87.5213 124.871 87.5213C124.871 87.5213 127.476 88.1611 129.647 88.4353C131.818 88.7096 132.709 88.2754 133.509 87.3842C133.966 86.8586 134.148 86.1959 134.034 85.5561Z" fill="#F6AD86"/>
<path d="M116.096 105.734C116.096 105.734 114.45 102.718 115.502 96.9133H129.053C129.053 96.9133 129.235 101.324 128.938 105.734H116.096Z" fill="#3A63A9"/>
<path d="M131.178 79.1576L129.601 79.4775L127.91 79.8203C126.859 77.7865 125.625 75.5014 124.436 73.3762C124.002 72.5992 124.299 71.6166 125.076 71.1824C125.853 70.7482 126.836 71.0453 127.27 71.8223C128.024 73.1934 129.692 76.2555 131.178 79.1576Z" fill="#ED8C61"/>
<path d="M115.936 72.2107C115.73 71.3424 114.839 70.8168 113.993 71.0453C110.109 72.0051 107.412 72.8734 105.538 73.6732C101.219 75.5013 101.265 76.8496 101.265 77.5351C101.288 78.3121 101.448 79.8431 110.748 83.2252C110.748 83.4994 110.451 84.5506 110.268 84.8933C109.834 85.6703 110.291 86.4244 110.748 87.1785C110.908 87.4299 111.274 87.7498 111.708 87.7498C112.279 87.7498 112.988 87.0185 113.079 86.4244C113.422 84.2535 113.376 82.9738 113.262 82.7224C113.262 82.6996 113.239 82.6767 113.239 82.6539C113.193 82.5853 113.171 82.5168 113.125 82.4482C113.102 82.4025 113.056 82.3797 113.034 82.334C112.988 82.2883 112.965 82.2426 112.919 82.2197C112.851 82.1511 112.782 82.1054 112.714 82.0597C112.691 82.0597 112.691 82.0369 112.668 82.0369C112.554 81.9683 112.439 81.8998 112.325 81.8541C109.172 80.5515 106.224 78.4492 104.921 77.5351C105.378 77.2838 106.018 76.9638 106.818 76.6668C108.806 75.867 111.731 74.9301 114.725 74.1988C115.616 73.9474 116.141 73.0791 115.936 72.2107Z" fill="#F6AD86"/>
<path d="M131.429 78.4493L129.258 78.8606L127.567 79.1805L126.127 79.4548C124.276 75.8214 123.842 74.9987 123.774 73.7647C123.705 72.3708 124.071 71.6624 124.985 71.1596C125.899 70.6569 127.042 70.9768 127.544 71.8909C127.59 71.9594 129.555 74.7702 131.429 78.4493Z" fill="#E8E8E8"/>
<path d="M137.325 123.65C137.119 124.975 136.411 126.415 135.405 128.174C133.714 131.099 131.132 134.367 128.801 137.086C127.179 138.983 125.693 140.628 124.756 141.748C124.345 142.228 124.025 142.616 123.842 142.868L121.923 140.4C122.631 139.394 123.294 138.046 124.117 136.789C124.139 136.766 124.162 136.721 124.185 136.698C125.739 134.344 127.407 131.693 128.733 129.271C128.778 129.18 128.824 129.111 128.87 129.02C130.287 126.46 131.338 124.198 131.543 122.873C131.909 120.519 128.367 113.161 124.871 106.671C124.482 105.917 124.071 105.186 123.682 104.477C123.545 104.226 123.477 103.974 123.454 103.7C123.363 102.512 124.231 101.141 125.305 100.547C126.607 99.8155 128.298 99.4499 129.03 100.752C130.515 103.449 138.216 117.868 137.325 123.65Z" fill="#3A63A9"/>
<path d="M128.801 137.086C127.179 138.983 125.693 140.628 124.756 141.748C124.596 140.423 124.436 138.983 124.276 137.521C124.254 137.246 124.208 136.949 124.185 136.675C125.739 134.321 127.407 131.671 128.732 129.248C128.824 131.648 128.824 134.458 128.801 137.086Z" fill="#2D548D"/>
<path d="M128.458 124.381C127.796 118.965 123.248 104.409 122.54 102.809C121.946 101.438 118.655 101.141 117.284 101.758C115.913 102.352 115.296 103.952 115.89 105.323C117.718 109.482 122.905 120.61 123.431 124.541C123.728 126.895 124.139 131.625 124.871 135.67C125.396 138.48 125.922 141.223 126.31 143.211C126.653 144.947 126.653 144.627 126.676 144.787L129.921 144.285C129.921 144.285 129.235 130.779 128.458 124.381Z" fill="#3A63A9"/>
<path d="M114.747 74.1532C111.754 74.8844 108.829 75.8213 106.841 76.6211L105.515 73.6504C107.389 72.8735 110.086 71.9823 113.97 71.0225C114.839 70.8168 115.707 71.3424 115.913 72.1879C116.141 73.0791 115.616 73.9475 114.747 74.1532Z" fill="#ED8C61"/>
<path d="M114.016 70.9768C115.045 70.8168 115.799 71.3195 116.073 72.325C116.347 73.3305 115.662 74.1074 114.747 74.633C113.651 75.2728 113.262 75.41 108.623 77.0096L106.041 73.4447C111.982 71.1367 112.279 71.2281 114.016 70.9768Z" fill="#E8E8E8"/>
<path d="M121.74 70.794C121.649 70.794 121.557 70.794 121.489 70.794C120.095 70.794 118.815 70.3369 117.81 69.5371C117.764 68.2574 117.901 67.1606 117.97 66.7949C118.129 65.7666 119.089 65.0354 120.14 65.1953C121.169 65.3553 121.9 66.3151 121.74 67.3662C121.649 67.9147 121.626 68.5545 121.626 69.1486C121.58 69.7428 121.626 70.3369 121.74 70.794Z" fill="#ED8C61"/>
<path d="M127.11 64.0299C126.356 67.5262 124.414 70.0856 121.054 70.0856C117.718 70.0856 115.616 67.549 114.999 64.0299C114.45 60.7393 117.718 57.5172 121.054 57.5172C124.437 57.4944 127.819 60.7621 127.11 64.0299Z" fill="#F6AD86"/>
<path d="M127.567 144.81L127.544 144.719C126.63 139.052 125.236 130.505 124.551 125.112C124.048 121.182 119.181 109.527 117.353 105.368C117.33 105.346 117.33 105.3 117.33 105.277C117.33 105.254 117.33 105.254 117.307 105.231C117.01 104.432 116.119 101.461 116.964 96.7762L117.238 96.8219C116.393 101.438 117.284 104.34 117.558 105.14C117.558 105.163 117.581 105.186 117.581 105.208C117.581 105.231 117.581 105.254 117.604 105.277C119.432 109.436 124.299 121.136 124.802 125.089C125.511 130.459 126.882 139.029 127.796 144.696L127.819 144.787L127.567 144.81Z" fill="#658BC1"/>
<path d="M123.225 70.9539C123.225 71.7765 122.905 73.1476 120.757 73.1476C119.203 73.1476 117.238 72.4849 116.507 71.2281L116.347 70.9539H123.225Z" fill="#C8D6DB"/>
<path d="M116.987 70.9539C117.558 71.9593 119.272 72.5992 120.757 72.5992C122.243 72.5992 122.677 71.8679 122.677 70.9539H116.987Z" fill="#F6AD86"/>
<path d="M125.122 87.8412C125.122 87.8184 125.213 86.9043 124.254 85.5789L125.145 85.0533C126.265 86.7215 126.15 87.9098 126.15 87.9783L125.122 87.8412Z" fill="#82AACE"/>
<path d="M124.436 85.0761C124.939 84.8476 125.602 84.9619 125.945 85.3275C126.265 85.6931 126.127 86.1959 125.602 86.4244C125.099 86.6529 124.436 86.5386 124.094 86.173C123.774 85.7845 123.911 85.3047 124.436 85.0761Z" fill="#4E7DB0"/>
<path d="M126.973 59.551C125.145 56.6031 120.643 56.3746 119.775 56.4203C119.318 56.4431 118.312 56.7174 117.878 57.4029C117.855 56.923 117.878 56.4888 117.878 56.4888C117.49 56.9687 117.421 57.3801 117.49 57.7C117.215 57.3344 117.033 56.9459 117.033 56.9459C116.964 57.4486 117.101 57.7457 117.307 57.9056C116.073 58.2027 114.496 59.9394 115.044 63.5043C115.273 65.0582 118.792 63.8699 119.775 62.316C120.437 63.39 121.763 63.6185 121.763 63.6185C121.306 63.1615 120.894 62.476 120.575 61.7904C122.448 62.933 124.939 64.167 125.236 64.9211C125.236 64.9211 125.785 63.7099 125.373 62.933C125.373 62.933 126.859 63.2986 127.042 64.784C127.019 64.7383 128.915 62.7045 126.973 59.551Z" fill="#424344"/>
<path d="M122.597 96.7688L122.326 96.8125L123.806 105.971L124.077 105.928L122.597 96.7688Z" fill="#658BC1"/>
<path d="M123.659 104.226L123.614 103.952C123.614 103.952 124.185 103.86 124.482 103.426C124.665 103.175 124.711 102.855 124.665 102.489L123.728 96.6847L124.002 96.639L124.939 102.443C125.008 102.9 124.939 103.289 124.711 103.586C124.345 104.134 123.682 104.226 123.659 104.226Z" fill="#658BC1"/>
<path d="M114.816 63.6643C114.542 64.2584 114.587 64.8983 114.839 65.4467C115.136 66.0866 116.073 66.0409 116.347 65.401L117.124 63.6643C117.421 63.0244 116.827 62.316 116.141 62.4989C115.57 62.6817 115.067 63.093 114.816 63.6643Z" fill="#F6AD86"/>
<defs>
<linearGradient id="paint0_linear" x1="0" y1="0" x2="207.693" y2="196.71" gradientUnits="userSpaceOnUse">
<stop stop-color="#F395BA"/>
<stop offset="1" stop-color="#FED182"/>
</linearGradient>
<linearGradient id="paint1_linear" x1="149.506" y1="151.426" x2="33.5716" y2="44.9231" gradientUnits="userSpaceOnUse">
<stop stop-color="#6FC7DA"/>
<stop offset="0.3693" stop-color="#0D71B9"/>
<stop offset="0.7613" stop-color="#9E1460"/>
<stop offset="1" stop-color="#E7267A"/>
</linearGradient>
<linearGradient id="paint2_linear" x1="100.741" y1="87.3129" x2="50.4755" y2="33.9977" gradientUnits="userSpaceOnUse">
<stop stop-color="#6FC7DA"/>
<stop offset="1" stop-color="#9E1460"/>
</linearGradient>
<linearGradient id="paint3_linear" x1="76.8259" y1="136.734" x2="48.2283" y2="133.606" gradientUnits="userSpaceOnUse">
<stop stop-color="#6FC7DA"/>
<stop offset="0.6927" stop-color="#9E1460"/>
<stop offset="1" stop-color="#E7267A"/>
</linearGradient>
</defs>
</svg>
