<svg width="194" height="208" viewBox="0 0 194 208" fill="none" xmlns="http://www.w3.org/2000/svg">
<path d="M0 16C0 7.16344 7.16344 0 16 0H194V208H16C7.16344 208 0 200.837 0 192V16Z" fill="#D2EBF7"/>
<path opacity="0.34" d="M53.466 158.338C63.4013 158.338 71.4555 156.762 71.4555 154.818C71.4555 152.875 63.4013 151.299 53.466 151.299C43.5307 151.299 35.4766 152.875 35.4766 154.818C35.4766 156.762 43.5307 158.338 53.466 158.338Z" fill="#575FA8"/>
<path d="M55.4347 148.469L55.0656 154.474H65.7953C65.7953 154.474 61.4148 151.545 59.4707 150.61L59.2492 148.494H55.4347V148.469Z" fill="#F08789"/>
<path d="M58.757 100.826L59.4707 150.094H55.2379C55.2379 150.094 50.5621 130.8 52.8508 125.164L48.7656 100.826H58.757Z" fill="#32388D"/>
<path opacity="0.2" d="M58.757 100.826H48.7902L52.8754 125.164C52.0879 127.108 52.1125 130.701 52.5062 134.565L59.3722 142.957L58.757 100.826Z" fill="#020203"/>
<path d="M44.1145 149.257L42.4657 155.262H54.1797C54.1797 155.262 49.2332 152.333 47.2645 151.398L47.6336 149.281H44.1145V149.257Z" fill="#F08789"/>
<path d="M59.0524 100.21L54.8934 124.918L47.8797 150.094H43.6715C43.6715 150.094 45.0251 125.927 49.3563 123.417L45.9356 100.235H59.0524V100.21Z" fill="#32388D"/>
<path opacity="0.2" d="M58.7816 101.908L59.0523 100.21H45.9355L46.2309 102.228L58.8063 103.828L58.7816 101.908Z" fill="#020203"/>
<path d="M65.82 83.156C65.82 83.156 68.4286 78.9478 72.4891 77.988L70.8895 79.9076C70.8895 79.9076 71.6524 81.9009 70.6926 82.9099C69.7329 83.9189 68.1825 83.9927 68.1825 83.9927L67.0997 85.1986L65.82 83.156Z" fill="#F5ABAE"/>
<path d="M55.5086 79.7107L59.077 86.9951L66.066 82.2701L67.8133 84.9525C67.8133 84.9525 61.7348 96.3712 59.0523 95.5345C56.3699 94.6978 54.0566 88.6685 54.0566 88.6685L55.5086 79.7107Z" fill="white"/>
<path opacity="0.2" d="M59.0523 86.9951L55.484 79.7107L54.0566 88.6685C54.0566 88.6685 56.3699 94.6978 59.0523 95.5345C59.1262 95.5591 59.1754 95.5591 59.2492 95.5591L62.473 84.6572L59.0523 86.9951Z" fill="#020203"/>
<path d="M58.2156 62.5087C58.2156 62.5087 58.634 66.2247 59.0524 67.1352H57.8957C57.8957 67.1352 57.9942 70.7036 57.2559 71.1466C56.7391 71.4665 55.2379 71.1466 54.8934 71.5649C54.5488 71.9833 54.032 74.961 54.032 74.961L49.3809 74.5673L49.8485 70.4083C49.8485 70.4083 47.2399 67.2829 48.0274 63.4438C48.8149 59.6048 57.5266 58.9403 58.2156 62.5087Z" fill="#F5ABAE"/>
<path opacity="0.2" d="M52.4078 68.7103L48.741 68.5134C49.2824 69.6701 49.8731 70.3837 49.8731 70.3837L49.4055 74.5427L54.0567 74.9365C54.0567 74.9365 54.5735 71.9587 54.918 71.5404C55.041 71.3927 55.3364 71.3189 55.6809 71.3189C53.8844 70.8267 52.2602 68.8087 52.4078 68.7103Z" fill="#020203"/>
<path d="M58.3633 63.7392C58.3633 63.7392 57.379 64.3298 55.4102 63.0255C55.4102 63.0255 54.0813 65.4126 52.9247 65.0927C52.9247 65.0927 52.8755 66.7908 52.6294 66.9138C52.3833 67.0369 51.8911 65.4619 51.3989 65.3634C50.9067 65.265 50.3899 65.7572 50.9313 67.2337C51.4481 68.7103 52.4079 68.7103 52.4079 68.7103L49.8485 70.4083C49.8485 70.4083 47.8305 69.7685 47.4368 68.0951C47.4368 68.0951 44.8774 65.6095 46.4278 63.8376C46.4278 63.8376 44.7298 62.4103 48.6919 60.663C48.6919 60.663 49.627 57.2177 51.4727 58.7927C51.4727 58.7927 54.8934 56.2333 55.7301 58.522C55.7301 58.522 60.1352 58.1529 60.4059 60.54C60.6766 62.9271 59.6184 63.4931 59.6184 63.4931C59.6184 63.4931 59.8645 65.4619 58.634 65.5603L58.3633 63.7392Z" fill="#212226"/>
<path d="M46.157 79.3908C46.157 79.3908 43.8437 78.8248 44.2375 76.3638C44.6312 73.8783 47.8797 72.7709 54.5488 74.3213C55.3363 74.4935 55.9515 75.7978 55.4347 76.9299C55.4347 76.9299 57.5758 82.1963 58.2402 86.5029C58.9047 90.8095 59.2492 95.3131 59.9875 97.4049C60.7012 99.4967 60.1105 101.835 58.1172 101.835C56.1484 101.835 48.3719 101.835 45.9601 101.835C43.5484 101.835 43.2531 98.4877 44.2129 94.9931C45.148 91.5232 46.5508 81.9009 46.157 79.3908Z" fill="#444496"/>
<path d="M51.5712 78.0373C55.361 78.8494 52.7278 86.3799 51.9649 88.5209C51.202 90.6865 50.3653 92.6061 51.5712 94.2795C52.777 95.9529 54.8934 97.8232 54.8934 97.8232L53.4661 100.826C53.4661 100.826 45.5665 99.8166 43.6716 97.4787C41.8013 95.1408 42.8595 89.9236 44.4837 86.3307C46.1079 82.7377 48.7411 77.4467 51.5712 78.0373Z" fill="white"/>
<path d="M53.2446 101.342C53.1462 101.293 53.1216 101.195 53.1462 101.096L55.0657 96.9126C55.1149 96.8142 55.2134 96.7896 55.3118 96.8142C55.4102 96.8634 55.4348 96.9618 55.4102 97.0603L53.4907 101.244C53.4415 101.342 53.343 101.367 53.2446 101.342Z" fill="#A77071"/>
<path d="M51.448 115.591C51.448 116.206 50.9558 116.723 50.316 116.723C49.7007 116.723 49.1839 116.206 49.1839 115.591C49.1839 114.976 49.6761 114.459 50.316 114.459C50.9558 114.484 51.448 114.976 51.448 115.591Z" fill="#59BCAB"/>
<path d="M44.4097 115.296C42.8347 115.296 41.555 114.016 41.555 112.441C41.555 110.866 42.8347 109.586 44.4097 109.586C45.9847 109.586 47.2644 110.866 47.2644 112.441C47.2644 114.016 45.9847 115.296 44.4097 115.296ZM44.4097 111.088C43.6468 111.088 43.0562 111.703 43.0562 112.441C43.0562 113.179 43.6714 113.795 44.4097 113.795C45.1726 113.795 45.7632 113.179 45.7632 112.441C45.7632 111.703 45.1726 111.088 44.4097 111.088Z" fill="#FCC450"/>
<path d="M126.482 59.457H125.547V60.4168C125.547 60.8598 125.202 61.2043 124.759 61.2043C124.316 61.2043 123.972 60.8598 123.972 60.4168V59.457H123.012C122.569 59.457 122.225 59.1125 122.225 58.6695C122.225 58.2266 122.569 57.882 123.012 57.882H123.972V56.9223C123.972 56.4793 124.316 56.1348 124.759 56.1348C125.202 56.1348 125.547 56.4793 125.547 56.9223V57.882H126.507C126.95 57.882 127.294 58.2266 127.294 58.6695C127.27 59.1125 126.925 59.457 126.482 59.457Z" fill="#59BCAB"/>
<path d="M134.209 54.4859C134.209 55.1011 133.717 55.6179 133.077 55.6179C132.462 55.6179 131.945 55.1258 131.945 54.4859C131.945 53.8707 132.462 53.3539 133.077 53.3539C133.693 53.3539 134.209 53.8461 134.209 54.4859Z" fill="#345185"/>
<path d="M75.959 79.809C72.5629 71.2942 74.3102 61.2289 81.2008 54.3383C84.5231 51.016 88.5836 48.875 92.8656 47.9645L95.4004 59.4571C90.0602 60.6137 86.0734 65.3633 86.0734 71.0481C86.0734 72.5985 86.3688 74.075 86.9102 75.4531L75.959 79.809Z" fill="#345185"/>
<path d="M81.2008 87.7579C81.0285 87.5856 80.8316 87.3887 80.6594 87.1919L89.248 79.1446C91.4136 81.4579 94.4898 82.8852 97.9105 82.8852C104.457 82.8852 109.772 77.5696 109.772 71.0235C109.772 66.3477 107.09 62.3118 103.152 60.3923L108.37 49.8348C110.634 50.9423 112.75 52.4434 114.62 54.3137C123.849 63.5423 123.849 78.5294 114.62 87.7579C105.416 96.9864 90.4293 96.9864 81.2008 87.7579Z" fill="white"/>
<path d="M97.9352 59.1864C97.0493 59.1864 96.2126 59.2849 95.4004 59.4571L92.8903 47.9645C98.0583 46.8325 103.546 47.4478 108.394 49.8595L103.177 60.4169C101.602 59.6048 99.8055 59.1864 97.9352 59.1864Z" fill="#59BCAB"/>
<path d="M80.6594 87.1918C78.5922 84.977 77.0172 82.4668 75.959 79.809L86.9102 75.4531C87.4516 76.8312 88.2637 78.0863 89.2727 79.1691L80.6594 87.1918Z" fill="#C1E4EE"/>
<path d="M151.805 65.7815V144.975C151.805 146.303 150.722 147.386 149.393 147.386H98.7472C97.4183 147.386 96.3355 146.303 96.3355 144.975V65.7815C96.3355 64.4526 97.4183 63.3452 98.7472 63.3452H149.369C150.722 63.3452 151.805 64.428 151.805 65.7815Z" fill="#4FBECB"/>
<path d="M90.7491 149.65H157.391C158.007 149.65 158.523 149.158 158.523 148.518C158.523 147.903 158.031 147.386 157.391 147.386H90.7491C90.1339 147.386 89.6171 147.878 89.6171 148.518C89.6171 149.158 90.1339 149.65 90.7491 149.65Z" fill="#E2E2E1"/>
<path d="M151.805 65.757V71.6633H96.3355V65.757C96.3355 64.4281 97.4183 63.3207 98.7472 63.3207H149.369C150.722 63.3453 151.805 64.4281 151.805 65.757Z" fill="#4FBECB"/>
<path d="M124.07 145.294C122.815 145.294 121.806 144.285 121.806 143.03C121.806 141.775 122.815 140.766 124.07 140.766C125.325 140.766 126.334 141.775 126.334 143.03C126.359 144.285 125.325 145.294 124.07 145.294Z" fill="#E6F2EA"/>
<path d="M102.734 68.3656C102.217 68.3656 101.799 67.9472 101.799 67.4304C101.799 66.9136 102.217 66.4952 102.734 66.4952C103.251 66.4952 103.669 66.9136 103.669 67.4304C103.644 67.9472 103.226 68.3656 102.734 68.3656Z" fill="#E6F2EA"/>
<path d="M105.662 68.3656C105.146 68.3656 104.727 67.9472 104.727 67.4304C104.727 66.9136 105.146 66.4952 105.662 66.4952C106.179 66.4952 106.598 66.9136 106.598 67.4304C106.598 67.9472 106.179 68.3656 105.662 68.3656Z" fill="#E6F2EA"/>
<path d="M150.944 71.6632H97.1968V138.33H150.944V71.6632Z" fill="#D2EBF7"/>
<path d="M106.817 94.0086V86.109H89.0244V94.0086H106.817Z" fill="#A9DAE5"/>
<path d="M117.675 114.111V106.211H99.8822V114.111H117.675Z" fill="#A9DAE5"/>
<path d="M112.258 104.072V96.1725H94.4658V104.072H112.258Z" fill="#A9DAE5"/>
<path d="M147.868 74.4688H99.8793V83.4512H147.868V74.4688Z" fill="#EDF6F4"/>
<path d="M146.416 75.7484H140.042V82.1222H146.416V75.7484Z" fill="#D2E8F2"/>
<path d="M116.786 76.1422H102.98V77.3727H116.786V76.1422Z" fill="#ACD8C8"/>
<path d="M116.786 78.3324H102.98V79.5629H116.786V78.3324Z" fill="#ACD8C8"/>
<path d="M112.282 80.5227H102.98V81.7532H112.282V80.5227Z" fill="#ACD8C8"/>
<path opacity="0.5" d="M156.924 112.835H117.672V131.267H156.924V112.835Z" fill="#96CEB8"/>
<path d="M136.99 119.208H121.585V120.759H136.99V119.208Z" fill="#E6F2EA"/>
<path d="M133.323 121.965H121.585V123.515H133.323V121.965Z" fill="#E6F2EA"/>
<path d="M129.509 124.746H121.585V126.296H129.509V124.746Z" fill="#E6F2EA"/>
<path d="M135.218 124.746H130.493V126.296H135.218V124.746Z" fill="#E6F2EA"/>
<path d="M132.29 127.502H121.585V129.052H132.29V127.502Z" fill="#E6F2EA"/>
<path d="M114.054 117.068H99.8793V131.243H114.054V117.068Z" fill="#9FD2BA"/>
<path d="M110.102 127.335C111.831 125.605 111.831 122.8 110.102 121.07C108.372 119.34 105.567 119.34 103.837 121.07C102.107 122.8 102.107 125.605 103.837 127.335C105.567 129.065 108.372 129.065 110.102 127.335Z" fill="#7CC39E"/>
<path d="M110.338 124.204C110.338 125.312 109.797 126.296 108.96 126.912C108.714 127.084 108.443 127.256 108.148 127.354C108.025 127.404 107.877 127.453 107.754 127.478C107.681 127.502 107.582 127.502 107.508 127.527C107.336 127.551 107.164 127.576 106.991 127.576C106.647 127.576 106.302 127.527 105.982 127.428C104.604 127.01 103.62 125.73 103.62 124.204C103.62 123.688 103.743 123.171 103.964 122.728C104.235 122.187 104.629 121.719 105.121 121.399C105.244 121.325 105.367 121.251 105.49 121.178C105.761 121.03 106.056 120.931 106.376 120.882C106.573 120.833 106.795 120.833 106.991 120.833C108.419 120.833 109.649 121.719 110.117 122.974C110.24 123.368 110.338 123.762 110.338 124.204Z" fill="#EFF4F4"/>
<path d="M106.967 124.598C106.745 124.598 106.573 124.426 106.573 124.204V122.039C106.573 121.817 106.745 121.645 106.967 121.645C107.188 121.645 107.361 121.817 107.361 122.039V124.204C107.361 124.426 107.188 124.598 106.967 124.598Z" fill="#C1D6CF"/>
<path d="M106.967 124.598C106.844 124.598 106.721 124.524 106.647 124.426C106.524 124.254 106.598 124.008 106.77 123.885L107.877 123.171C108.05 123.048 108.296 123.122 108.419 123.294C108.542 123.466 108.468 123.712 108.296 123.835L107.188 124.549C107.114 124.574 107.041 124.598 106.967 124.598Z" fill="#C1D6CF"/>
<path d="M147.867 86.109H119.862V114.114H147.867V86.109Z" fill="#98D5E9"/>
<path d="M133.865 101.367C131.896 101.367 130.296 99.7672 130.296 97.7985V95.6575C130.296 93.6887 131.896 92.0891 133.865 92.0891C135.834 92.0891 137.433 93.6887 137.433 95.6575V97.7985C137.433 99.7672 135.834 101.367 133.865 101.367Z" fill="#F8FCFA"/>
<path d="M133.865 99.5458C130.493 99.5458 127.614 101.515 126.26 104.369C125.473 106.043 126.679 107.962 128.525 107.962H139.23C141.075 107.962 142.281 106.043 141.494 104.369C140.14 101.515 137.236 99.5458 133.865 99.5458Z" fill="#F8FCFA"/>
<path d="M147.862 134.48V132.191H99.8739V134.48H147.862Z" fill="#FFE1AB"/>
<path d="M151.461 85.1984V76.8558C152.051 76.8558 152.543 77.348 152.543 77.9387V84.1402C152.543 84.7308 152.051 85.1984 151.461 85.1984Z" fill="#4FBECB"/>
<path d="M151.461 94.5253V86.1827C152.051 86.1827 152.543 86.6749 152.543 87.2656V93.4671C152.543 94.0331 152.051 94.5253 151.461 94.5253Z" fill="#4FBECB"/>
<path opacity="0.3" d="M128.377 71.6632L97.1968 102.843V86.0843L111.618 71.6632H128.377Z" fill="#F6FBFD"/>
<path opacity="0.3" d="M140.042 71.6632L97.1968 114.508V106.141L131.675 71.6632H140.042Z" fill="#F6FBFD"/>
<path opacity="0.3" d="M108.32 119.652V126.838C108.32 127.133 108.123 127.404 107.853 127.477V147.362H98.7718C97.4429 147.362 96.3601 146.279 96.3601 144.95V105.009H106.179C107.114 105.009 107.853 105.772 107.853 106.682V119.012C108.123 119.11 108.32 119.356 108.32 119.652Z" fill="#385F82"/>
<path d="M101.405 101.687V156.664C101.405 157.599 100.642 158.338 99.7316 158.338H70.8648C69.9543 158.338 69.1914 157.599 69.1914 156.664V101.687C69.1914 100.752 69.9543 100.013 70.8648 100.013H99.707C100.642 100.013 101.405 100.752 101.405 101.687Z" fill="#5BB98E"/>
<path d="M101.405 101.687V105.797H69.1914V101.687C69.1914 100.752 69.9543 100.013 70.8648 100.013H99.7316C100.642 100.013 101.405 100.776 101.405 101.687Z" fill="#5BB98E"/>
<path d="M85.2859 156.91C84.4246 156.91 83.7109 156.197 83.7109 155.335C83.7109 154.474 84.4246 153.76 85.2859 153.76C86.1473 153.76 86.8609 154.474 86.8609 155.335C86.8609 156.197 86.1719 156.91 85.2859 156.91Z" fill="#E6F2EA"/>
<path d="M79.4535 103.483C79.109 103.483 78.8136 103.188 78.8136 102.843C78.8136 102.499 79.109 102.204 79.4535 102.204C79.798 102.204 80.0933 102.499 80.0933 102.843C80.0933 103.213 79.8226 103.483 79.4535 103.483Z" fill="#E6F2EA"/>
<path d="M88.5343 103.089H82.1605C82.0374 103.089 81.9144 102.991 81.9144 102.843C81.9144 102.696 82.0128 102.597 82.1605 102.597H88.5343C88.6574 102.597 88.7804 102.696 88.7804 102.843C88.7804 102.991 88.6574 103.089 88.5343 103.089Z" fill="#E6F2EA"/>
<path d="M100.79 105.797H69.7821V152.087H100.79V105.797Z" fill="#D2EBF7"/>
<path d="M77.9031 130.406H72.2676V132.178H77.9031V130.406Z" fill="#EDF6F4"/>
<path d="M92.2504 130.406H86.6149V132.178H92.2504V130.406Z" fill="#EDF6F4"/>
<path d="M85.0644 130.406H79.4289V132.178H85.0644V130.406Z" fill="#EDF6F4"/>
<path d="M98.3536 133.63H75.6637V139.856H98.3536V133.63Z" fill="#EDF6F4"/>
<path d="M97.3446 134.516H92.9149V138.945H97.3446V134.516Z" fill="#D5EAE4"/>
<path d="M84.0801 134.786H74.4824V135.647H84.0801V134.786Z" fill="#ACD8C8"/>
<path d="M84.0801 136.312H74.4824V137.173H84.0801V136.312Z" fill="#ACD8C8"/>
<path d="M80.9301 137.838H74.4824V138.699H80.9301V137.838Z" fill="#ACD8C8"/>
<path d="M88.9035 141.406H72.3167V149.183H88.9035V141.406Z" fill="#EDF6F4"/>
<path d="M82.948 142.587H74.4824V143.449H82.948V142.587Z" fill="#FFE1AB"/>
<path d="M80.9301 144.089H74.4824V144.95H80.9301V144.089Z" fill="#FFE1AB"/>
<path d="M78.8383 145.615H74.4824V146.476H78.8383V145.615Z" fill="#FFE1AB"/>
<path d="M81.9636 145.615H79.3796V146.476H81.9636V145.615Z" fill="#ACD8C8"/>
<path d="M80.3641 147.14H74.4824V148.001H80.3641V147.14Z" fill="#FFE1AB"/>
<path opacity="0.5" d="M92.275 108.676H67.8625V128.585H92.275V108.676Z" fill="#FFE1AB"/>
<path d="M82.3082 124.942C85.7604 124.942 88.559 122.144 88.559 118.692C88.559 115.239 85.7604 112.441 82.3082 112.441C78.856 112.441 76.0574 115.239 76.0574 118.692C76.0574 122.144 78.856 124.942 82.3082 124.942Z" fill="#FCC450"/>
<path d="M87.0332 118.692C87.0332 120.267 86.2703 121.645 85.1136 122.506C84.7691 122.752 84.3754 122.974 83.957 123.121C83.7847 123.195 83.5879 123.244 83.391 123.294C83.2679 123.318 83.1449 123.343 83.0465 123.367C82.8004 123.417 82.5543 123.417 82.3082 123.417C81.816 123.417 81.3484 123.343 80.9054 123.195C78.9859 122.605 77.5832 120.784 77.5832 118.667C77.5832 117.929 77.7554 117.24 78.0508 116.6C78.4199 115.837 78.9859 115.173 79.6996 114.705C79.8718 114.582 80.0441 114.483 80.2164 114.41C80.6101 114.213 81.0285 114.065 81.4469 113.991C81.7422 113.942 82.0129 113.917 82.3082 113.917C84.3261 113.917 86.0488 115.173 86.7133 116.944C86.9347 117.51 87.0332 118.101 87.0332 118.692Z" fill="#EFF4F4"/>
<path d="M82.3082 119.258C82.0129 119.258 81.7668 119.012 81.7668 118.716V115.689C81.7668 115.394 82.0129 115.148 82.3082 115.148C82.6035 115.148 82.8496 115.394 82.8496 115.689V118.716C82.8496 119.012 82.6035 119.258 82.3082 119.258Z" fill="#C1D6CF"/>
<path d="M82.3082 119.258C82.1359 119.258 81.939 119.159 81.8406 119.012C81.6683 118.766 81.7668 118.421 82.0129 118.249L83.5879 117.264C83.834 117.092 84.1785 117.191 84.3508 117.437C84.523 117.683 84.4246 118.027 84.1785 118.2L82.6035 119.184C82.505 119.233 82.4066 119.258 82.3082 119.258Z" fill="#C1D6CF"/>
<path opacity="0.3" d="M91.4383 105.797L69.7821 127.428V115.813L79.7981 105.797H91.4383Z" fill="#F6FBFD"/>
<path opacity="0.3" d="M99.5348 105.797L69.7821 135.549V129.717L93.7024 105.797H99.5348Z" fill="#F6FBFD"/>
<g opacity="0.7">
<path opacity="0.7" d="M102.586 141.406H90.577V153.416H102.586V141.406Z" fill="#9FD2BA"/>
<path opacity="0.7" d="M96.557 147.952C95.7203 147.952 95.0312 147.263 95.0312 146.427V145.516C95.0312 144.679 95.7203 143.99 96.557 143.99C97.3937 143.99 98.0828 144.679 98.0828 145.516V146.427C98.1074 147.263 97.4184 147.952 96.557 147.952Z" fill="#F8FCFA"/>
<path opacity="0.7" d="M96.557 147.165C95.1051 147.165 93.8746 148.002 93.284 149.232C92.9394 149.946 93.4562 150.782 94.2437 150.782H98.8211C99.6086 150.782 100.125 149.946 99.7809 149.232C99.2641 148.002 98.009 147.165 96.557 147.165Z" fill="#F8FCFA"/>
</g>
<path d="M98.0335 108.676H94.4652V132.178H98.0335V108.676Z" fill="#9FD2BA"/>
<path d="M101.159 122.555V113.967C101.553 113.967 101.873 114.287 101.873 114.68V121.866C101.873 122.236 101.553 122.555 101.159 122.555Z" fill="#5BB98E"/>
<path opacity="0.3" d="M79.6011 100.013L76.648 108.676L69.8558 128.585L69.1913 130.554V128.585H67.887V108.676H69.1913V101.687C69.1913 100.752 69.9542 100.013 70.8648 100.013H79.6011Z" fill="#385F82"/>
<path d="M53.1215 160.601H105.933C106.548 160.601 107.065 160.109 107.065 159.469C107.065 158.854 106.573 158.337 105.933 158.337H53.1215C52.5062 158.337 51.9894 158.83 51.9894 159.469C52.014 160.109 52.5062 160.601 53.1215 160.601Z" fill="#E2E2E1"/>
</svg>
