<svg width="195" height="208" viewBox="0 0 195 208" fill="none" xmlns="http://www.w3.org/2000/svg">
<path d="M0 16C0 7.16344 7.16344 0 16 0H195V208H16C7.16344 208 0 200.837 0 192V16Z" fill="#BCD1FF"/>
<path d="M33.9205 140.824L83.7322 169.772C84.7879 170.387 86.4887 170.387 87.5444 169.781L163.232 126.078C164.287 125.472 164.287 124.484 163.232 123.869L113.42 94.9213C112.374 94.3153 110.673 94.3153 109.617 94.9213L33.9303 138.615C32.8746 139.231 32.8648 140.218 33.9205 140.824Z" fill="#AABAFD"/>
<path d="M92.7827 143.766C92.1875 144.11 92.191 144.67 92.7824 145.013L105.061 152.149C105.652 152.493 106.619 152.496 107.214 152.153L131.411 138.183C132.006 137.839 132.003 137.279 131.411 136.936L119.132 129.8C118.541 129.456 117.574 129.453 116.979 129.796L92.7827 143.766Z" fill="#2E4277"/>
<path d="M33.1385 139.729L33.1483 142.643C33.1483 143.034 33.4122 143.435 33.9303 143.738L83.7419 172.685C84.7976 173.291 86.4984 173.291 87.5541 172.685L163.241 128.991C163.769 128.688 164.033 128.288 164.033 127.877L164.023 124.973C164.023 125.374 163.759 125.775 163.231 126.078L87.5444 169.781C86.4886 170.387 84.7878 170.387 83.7321 169.772L33.9205 140.824C33.3927 140.521 33.1385 140.13 33.1385 139.729Z" fill="#798FFE"/>
<path d="M109.47 37.2833C110.525 36.6744 111.383 37.1632 111.386 38.3751L111.521 91.6244C111.524 92.8292 110.672 94.3125 109.617 94.9214L35.0211 137.986C33.9664 138.595 33.1086 138.099 33.1051 136.894L32.9702 83.6445C32.9668 82.4326 33.819 80.9565 34.8737 80.3475L109.47 37.2833Z" fill="#1B2A4F"/>
<path d="M30.9669 82.4838L31.1038 135.731C31.1038 136.327 31.3189 136.757 31.661 136.953L33.6617 138.116C33.3195 137.921 33.1045 137.491 33.1045 136.895L32.9676 83.6473C32.9676 82.4352 33.818 80.9592 34.8738 80.3434L109.47 37.2841C109.998 36.9811 110.477 36.9518 110.829 37.1472L108.829 35.9838C108.486 35.7882 107.998 35.8175 107.47 36.1205L32.8731 79.1897C31.8174 79.7957 30.9669 81.2717 30.9669 82.4838Z" fill="#384E85"/>
<path d="M35.6626 82.9951L35.7924 134.437L108.829 92.2738L108.699 40.8317L35.6626 82.9951Z" fill="#384E85"/>
<path d="M35.6626 82.9951L35.6844 91.6234L108.721 49.46L108.699 40.8317L35.6626 82.9951Z" fill="#AABAFD"/>
<path d="M96.6564 51.0395C97.3605 50.633 97.9329 50.9452 97.9352 51.7543C97.9375 52.5634 97.3688 53.5485 96.6647 53.955C95.9727 54.3545 95.4002 54.0283 95.398 53.2192C95.3956 52.4101 95.9644 51.439 96.6564 51.0395Z" fill="white"/>
<path d="M100.723 48.6915C101.415 48.2919 101.988 48.6042 101.99 49.4133C101.992 50.2223 101.424 51.2074 100.732 51.6069C100.027 52.0135 99.4549 51.6872 99.4527 50.8782C99.4504 50.0691 100.019 49.098 100.723 48.6915Z" fill="white"/>
<path d="M104.778 46.3504C105.482 45.9439 106.055 46.2562 106.057 47.0652C106.059 47.8743 105.49 48.8594 104.786 49.2659C104.082 49.6725 103.51 49.3462 103.508 48.5371C103.505 47.7281 104.074 46.7569 104.778 46.3504Z" fill="white"/>
<path d="M49.1957 137.251L44.4147 140.029L42.3551 138.84L47.1361 136.062L49.1957 137.251Z" fill="#384E85"/>
<path d="M100.639 107.355L95.8518 110.137L93.7922 108.948L98.5797 106.166L100.639 107.355Z" fill="#384E85"/>
<path d="M113.5 99.8811L108.713 102.663L106.653 101.474L111.441 98.692L113.5 99.8811Z" fill="#384E85"/>
<path d="M104.919 117.28L100.138 120.058L95.8872 117.604L100.668 114.825L104.919 117.28Z" fill="#384E85"/>
<path d="M128.501 115.995L123.713 118.777L119.456 116.319L124.243 113.537L128.501 115.995Z" fill="#384E85"/>
<path d="M134.935 112.256L130.147 115.038L120.529 109.486L125.317 106.703L134.935 112.256Z" fill="#384E85"/>
<path d="M118.861 102.976L110.033 108.106L105.775 105.648L114.603 100.518L118.861 102.976Z" fill="#384E85"/>
<path d="M108.393 109.059L103.606 111.841L99.348 109.383L104.136 106.6L108.393 109.059Z" fill="#384E85"/>
<path d="M124.214 106.067L112.993 112.588L108.742 110.133L119.963 103.612L124.214 106.067Z" fill="#384E85"/>
<path d="M111.353 113.541L106.566 116.323L102.314 113.868L107.102 111.086L111.353 113.541Z" fill="#384E85"/>
<path d="M116.714 116.635L111.926 119.418L107.668 116.959L112.456 114.177L116.714 116.635Z" fill="#384E85"/>
<path d="M101.96 112.798L97.1721 115.58L92.9143 113.122L97.7019 110.339L101.96 112.798Z" fill="#384E85"/>
<path d="M94.2057 111.094L89.4246 113.872L87.365 112.683L92.1461 109.905L94.2057 111.094Z" fill="#384E85"/>
<path d="M87.7785 114.829L82.9909 117.611L80.9314 116.422L85.719 113.64L87.7785 114.829Z" fill="#384E85"/>
<path d="M90.9917 131.583L86.2041 134.366L81.9463 131.907L86.7339 129.125L90.9917 131.583Z" fill="#384E85"/>
<path d="M81.3447 118.568L76.5637 121.346L74.5041 120.157L79.2851 117.379L81.3447 118.568Z" fill="#384E85"/>
<path d="M89.0988 120.271L84.3178 123.05L80.06 120.592L84.841 117.813L89.0988 120.271Z" fill="#384E85"/>
<path d="M74.9175 122.303L70.1299 125.085L68.0703 123.896L72.8579 121.114L74.9175 122.303Z" fill="#384E85"/>
<path d="M82.6716 124.006L77.884 126.789L73.6262 124.33L78.4138 121.548L82.6716 124.006Z" fill="#384E85"/>
<path d="M92.0585 124.753L87.2775 127.532L83.0263 125.077L87.8073 122.299L92.0585 124.753Z" fill="#384E85"/>
<path d="M68.4903 126.038L63.7027 128.82L61.6432 127.631L66.4307 124.849L68.4903 126.038Z" fill="#384E85"/>
<path d="M76.2444 127.742L71.4568 130.524L67.199 128.066L71.9866 125.283L76.2444 127.742Z" fill="#384E85"/>
<path d="M97.4187 127.848L92.6377 130.627L88.3799 128.168L93.1609 125.39L97.4187 127.848Z" fill="#384E85"/>
<path d="M85.6313 128.488L80.8437 131.271L76.5925 128.816L81.3801 126.034L85.6313 128.488Z" fill="#384E85"/>
<path d="M62.0567 129.777L57.2691 132.559L55.2095 131.37L59.9971 128.588L62.0567 129.777Z" fill="#384E85"/>
<path d="M69.8107 131.48L65.0231 134.263L60.7653 131.804L65.5529 129.022L69.8107 131.48Z" fill="#384E85"/>
<path d="M79.2041 132.224L74.4165 135.006L70.1654 132.551L74.953 129.769L79.2041 132.224Z" fill="#384E85"/>
<path d="M63.3835 135.216L58.5959 137.998L54.3381 135.54L59.1257 132.757L63.3835 135.216Z" fill="#384E85"/>
<path d="M84.5644 135.318L79.7768 138.101L75.519 135.642L80.3066 132.86L84.5644 135.318Z" fill="#384E85"/>
<path d="M72.7705 135.962L67.9829 138.745L63.7317 136.29L68.5193 133.508L72.7705 135.962Z" fill="#384E85"/>
<path d="M78.1307 139.057L73.3431 141.839L69.0853 139.381L73.873 136.599L78.1307 139.057Z" fill="#384E85"/>
<path d="M103.054 130.783L78.7032 144.934L74.4454 142.476L98.7966 128.324L103.054 130.783Z" fill="#384E85"/>
<path d="M71.7035 142.792L66.9159 145.574L62.6581 143.116L67.4456 140.334L71.7035 142.792Z" fill="#384E85"/>
<path d="M66.3433 139.698L55.1285 146.215L50.8773 143.76L62.0921 137.243L66.3433 139.698Z" fill="#384E85"/>
<path d="M65.2697 146.531L60.4887 149.309L56.2309 146.851L61.0119 144.073L65.2697 146.531Z" fill="#384E85"/>
<path d="M77.0637 145.887L65.8489 152.404L61.5911 149.946L72.8059 143.429L77.0637 145.887Z" fill="#384E85"/>
<path d="M55.6294 133.512L50.8418 136.294L48.7822 135.105L53.5698 132.323L55.6294 133.512Z" fill="#384E85"/>
<path d="M107.067 103.62L102.279 106.402L100.219 105.213L105.007 102.431L107.067 103.62Z" fill="#384E85"/>
<path d="M95.5325 116.533L90.7449 119.315L86.4871 116.857L91.2747 114.074L95.5325 116.533Z" fill="#384E85"/>
<path d="M109.213 127.204L104.425 129.986L100.167 127.528L104.955 124.746L109.213 127.204Z" fill="#384E85"/>
<path d="M103.853 124.109L99.065 126.892L94.8072 124.433L99.5948 121.651L103.853 124.109Z" fill="#384E85"/>
<path d="M98.4924 121.015L93.7047 123.797L89.4536 121.342L94.2412 118.56L98.4924 121.015Z" fill="#384E85"/>
<path d="M122.074 119.73L117.286 122.512L113.028 120.054L117.816 117.272L122.074 119.73Z" fill="#384E85"/>
<path d="M115.64 123.469L110.859 126.247L106.601 123.789L111.382 121.011L115.64 123.469Z" fill="#384E85"/>
<path d="M56.9497 138.954L49.7749 143.124L45.5171 140.666L52.6919 136.496L56.9497 138.954Z" fill="#384E85"/>
<path d="M42.4518 96.5921C43.3788 96.0569 43.9261 96.174 44.3178 96.5289L43.7916 97.382C43.4551 97.0428 43.0231 97.0704 42.4954 97.3751C41.4215 97.9951 40.7405 99.3443 40.7442 100.641C40.7478 101.933 41.4344 102.504 42.5082 101.884C43.0359 101.579 43.4666 101.093 43.8001 100.377L44.3294 100.626C43.941 101.437 43.3961 102.184 42.4692 102.72C40.9548 103.594 39.9322 102.843 39.9273 101.113C39.9224 99.3835 40.9374 97.4665 42.4518 96.5921Z" fill="#D9DDF6"/>
<path d="M45.8658 99.401C46.1779 99.2209 46.4449 99.373 46.4459 99.7316C46.4469 100.095 46.1816 100.55 45.8696 100.73C45.5529 100.913 45.2905 100.763 45.2895 100.399C45.2885 100.041 45.5492 99.5839 45.8658 99.401Z" fill="#D9DDF6"/>
<path d="M46.2621 95.5884C46.4883 95.1992 46.4889 94.7775 46.2634 94.6465C46.038 94.5155 45.6719 94.7248 45.4457 95.114C45.2196 95.5032 45.2189 95.9249 45.4444 96.0559C45.6698 96.1869 46.0359 95.9776 46.2621 95.5884Z" fill="#D9DDF6"/>
<path d="M47.6216 91.2833L50.1377 98.3872L49.5181 98.7448L47.0021 91.641L47.6216 91.2833Z" fill="#D9DDF6"/>
<path d="M52.525 87.6338L56.9172 90.142L52.5536 97.7055L51.8492 97.304L55.5222 90.9475L51.8252 88.8459L52.525 87.6338Z" fill="#D9DDF6"/>
<path d="M61.8218 90.152L61.8271 92.0397L57.2335 94.6919L57.2282 92.8041L61.8218 90.152Z" fill="#D9DDF6"/>
</svg>
