<svg width="24" height="24" viewBox="0 0 24 24" fill="none" xmlns="http://www.w3.org/2000/svg">
<path fill-rule="evenodd" clip-rule="evenodd" d="M3.96967 17.4697C4.26256 17.1768 4.73744 17.1768 5.03033 17.4697L7.5 19.9393L9.96967 17.4697C10.2626 17.1768 10.7374 17.1768 11.0303 17.4697C11.3232 17.7626 11.3232 18.2374 11.0303 18.5303L8.03033 21.5303C7.73744 21.8232 7.26256 21.8232 6.96967 21.5303L3.96967 18.5303C3.67678 18.2374 3.67678 17.7626 3.96967 17.4697Z" fill="#333333"/>
<path fill-rule="evenodd" clip-rule="evenodd" d="M7.5 2.25C7.91421 2.25 8.25 2.58579 8.25 3L8.25 21C8.25 21.4142 7.91422 21.75 7.5 21.75C7.08579 21.75 6.75 21.4142 6.75 21L6.75 3C6.75 2.58579 7.08579 2.25 7.5 2.25Z" fill="#333333"/>
<path fill-rule="evenodd" clip-rule="evenodd" d="M15.9697 2.46967C16.2626 2.17678 16.7374 2.17678 17.0303 2.46967L20.0303 5.46967C20.3232 5.76256 20.3232 6.23744 20.0303 6.53033C19.7374 6.82322 19.2626 6.82322 18.9697 6.53033L16.5 4.06066L14.0303 6.53033C13.7374 6.82322 13.2626 6.82322 12.9697 6.53033C12.6768 6.23744 12.6768 5.76256 12.9697 5.46967L15.9697 2.46967Z" fill="#333333"/>
<path fill-rule="evenodd" clip-rule="evenodd" d="M16.5 2.25C16.9142 2.25 17.25 2.58579 17.25 3L17.25 21C17.25 21.4142 16.9142 21.75 16.5 21.75C16.0858 21.75 15.75 21.4142 15.75 21L15.75 3C15.75 2.58579 16.0858 2.25 16.5 2.25Z" fill="#333333"/>
</svg>
