<svg width="24" height="24" viewBox="0 0 24 24" fill="none" xmlns="http://www.w3.org/2000/svg">
<path fill-rule="evenodd" clip-rule="evenodd" d="M4.62868 3.12868C5.19129 2.56607 5.95435 2.25 6.75 2.25H19.5C19.9142 2.25 20.25 2.58579 20.25 3V18.75C20.25 19.1642 19.9142 19.5 19.5 19.5H6.75C6.35217 19.5 5.97064 19.658 5.68934 19.9393C5.40804 20.2206 5.25 20.6022 5.25 21C5.25 21.4142 4.91421 21.75 4.5 21.75C4.08579 21.75 3.75 21.4142 3.75 21V5.25C3.75 4.45435 4.06607 3.69129 4.62868 3.12868ZM5.25 18.4019C5.70218 18.1409 6.21883 18 6.75 18H18.75V3.75H6.75C6.35218 3.75 5.97064 3.90804 5.68934 4.18934C5.40804 4.47064 5.25 4.85218 5.25 5.25V18.4019Z" fill="#333333"/>
<path fill-rule="evenodd" clip-rule="evenodd" d="M4.5 20.25C4.91421 20.25 5.25 20.5858 5.25 21H18C18.4142 21 18.75 21.3358 18.75 21.75C18.75 22.1642 18.4142 22.5 18 22.5H4.5C4.08579 22.5 3.75 22.1642 3.75 21.75V21C3.75 20.5858 4.08579 20.25 4.5 20.25Z" fill="#333333"/>
</svg>
