<svg width="24" height="24" viewBox="0 0 24 24" fill="none" xmlns="http://www.w3.org/2000/svg">
<path fill-rule="evenodd" clip-rule="evenodd" d="M9.37174 3.76736C7.91353 3.67611 6.47217 4.12032 5.31831 5.01659C4.16444 5.91286 3.37746 7.19952 3.10512 8.63497C2.8335 10.0667 3.09247 11.5481 3.83339 12.8026C3.94104 12.978 3.97446 13.1945 3.91541 13.4012L3.34203 15.408L5.34884 14.8346C5.55297 14.7763 5.76964 14.8077 5.94671 14.9162C7.20136 15.6574 8.68311 15.9166 10.1151 15.6449C11.5505 15.3725 12.8372 14.5855 13.7334 13.4317C14.6297 12.2778 15.0739 10.8364 14.9826 9.37824C14.8914 7.92003 14.2709 6.5453 13.2378 5.51217C12.2047 4.47905 10.8299 3.85861 9.37174 3.76736ZM5.4597 16.3629C6.96705 17.1697 8.70848 17.4385 10.3947 17.1186C12.1891 16.7781 13.7976 15.7943 14.9181 14.3518C16.0385 12.9094 16.5938 11.1075 16.4797 9.28455C16.3656 7.46162 15.59 5.74304 14.2985 4.45151C13.0069 3.15999 11.2884 2.38437 9.46542 2.27029C7.64249 2.15622 5.84062 2.71154 4.39815 3.83197C2.95569 4.95241 1.97186 6.56089 1.63141 8.35538C1.31151 10.0415 1.58034 11.783 2.38706 13.2903L1.80703 15.3204L2.52515 15.5256L1.80703 15.3204C1.74273 15.5455 1.73978 15.7836 1.79849 16.0102C1.85721 16.2368 1.97544 16.4435 2.14095 16.609C2.30646 16.7746 2.51322 16.8928 2.7398 16.9515C2.96638 17.0102 3.20454 17.0073 3.4296 16.943L3.24416 16.2939L3.4296 16.943L5.4597 16.3629Z" fill="#333333"/>
<path fill-rule="evenodd" clip-rule="evenodd" d="M14.6189 7.46873C14.6416 7.05514 14.9954 6.73831 15.409 6.76107C16.6963 6.83192 17.9436 7.23334 19.0307 7.92662C20.1177 8.6199 21.0077 9.58163 21.6148 10.719C22.2219 11.8564 22.5256 13.1311 22.4967 14.42C22.4702 15.5989 22.1663 16.7533 21.6115 17.7903L22.1916 19.8204C22.2559 20.0455 22.2588 20.2836 22.2001 20.5102C22.1414 20.7368 22.0231 20.9436 21.8576 21.1091C21.6921 21.2746 21.4854 21.3928 21.2588 21.4515C21.0322 21.5103 20.794 21.5073 20.569 21.443L18.5388 20.8629C17.6593 21.3333 16.6939 21.6242 15.6987 21.7174C14.5939 21.8208 13.4799 21.6778 12.437 21.2989C11.394 20.92 10.4481 20.3145 9.66735 19.526C8.88658 18.7375 8.29039 17.7857 7.92172 16.7391C7.7841 16.3484 7.98924 15.9202 8.37993 15.7825C8.77061 15.6449 9.19889 15.8501 9.33651 16.2408C9.63148 17.0781 10.1085 17.8397 10.7332 18.4706C11.3579 19.1014 12.1147 19.5859 12.9492 19.8891C13.7837 20.1923 14.675 20.3066 15.559 20.2239C16.4394 20.1415 17.2907 19.8656 18.0521 19.4161C18.2291 19.3077 18.4457 19.2763 18.6497 19.3346L20.6566 19.908L20.0832 17.9012C20.0241 17.6943 20.0576 17.4781 20.165 17.3029C20.6875 16.418 20.974 15.4138 20.9971 14.3863C21.0202 13.3551 20.7772 12.3353 20.2915 11.4254C19.8058 10.5154 19.0937 9.74596 18.2241 9.1913C17.3544 8.63664 16.3565 8.31548 15.3265 8.25881C14.9129 8.23605 14.5961 7.88231 14.6189 7.46873Z" fill="#333333"/>
</svg>
