<svg width="60" height="60" viewBox="0 0 60 60" fill="none" xmlns="http://www.w3.org/2000/svg">
<path d="M34.1641 48.457C34.1641 48.3771 34.1655 48.2975 34.1671 48.218H8.5C8.24148 48.218 8.03125 48.0077 8.03125 47.7492V23.2031H4.16406C3.51684 23.2031 2.99219 23.7278 2.99219 24.375V41.8184C4.7718 46.3306 7.66234 50.2826 11.3254 53.3401H35.2615C34.5583 51.8586 34.1641 50.2031 34.1641 48.457Z" fill="#E8B800"/>
<rect x="3" y="22" width="33" height="32" rx="2" fill="#E8B800"/>
<path d="M25.1511 31.6444L29.3832 27.5062C29.4712 27.4201 29.5877 27.3726 29.7108 27.3726C29.8341 27.3726 29.9505 27.4201 30.0385 27.5062L34.2706 31.6444L51.2107 18.5752L51.5077 18.1981L30.0886 0.137988C29.8704 -0.0459961 29.5514 -0.0459961 29.3332 0.137988L7.91406 18.1981L8.21102 18.5752L25.1511 31.6444Z" fill="#FED402"/>
<path d="M25.468 8.43686L32.6999 2.33912L30.0893 0.137988C29.8711 -0.0459961 29.5521 -0.0459961 29.3339 0.137988L19.4914 8.43686H25.468Z" fill="#FAC600"/>
<path d="M13.5579 13.4395L7.91406 18.1982L13.5579 22.5524V13.4395Z" fill="#FAC600"/>
<path d="M25.1517 31.6443L29.3839 27.5061C29.4719 27.42 29.5884 27.3725 29.7116 27.3725C29.8349 27.3725 29.9512 27.42 30.0392 27.5061L34.2715 31.6443L45.8646 22.7002V9.60864C45.8646 8.96142 45.3399 8.43677 44.6927 8.43677H14.7305C14.0832 8.43677 13.5586 8.96142 13.5586 9.60864V22.7002L25.1517 31.6443Z" fill="white"/>
<path d="M18.4616 26.3349V9.60864C18.4616 8.96142 18.9862 8.43677 19.6335 8.43677H14.7305C14.0832 8.43677 13.5586 8.96142 13.5586 9.60864V22.5522L18.4616 26.3349Z" fill="#EAF6FF"/>
<path d="M45.5898 37.0313C47.7547 37.0313 49.7807 37.6365 51.5078 38.6865V18.1982L29.7109 35.0144L7.91406 18.1982V47.7493C7.91406 48.0729 8.17645 48.3352 8.5 48.3352H34.1656C34.2313 42.091 39.3304 37.0313 45.5898 37.0313Z" fill="#FEE45A"/>
<path d="M12.7188 47.7493V21.905L7.91406 18.1982V47.7493C7.91406 48.0729 8.17645 48.3352 8.5 48.3352H13.3047C12.9811 48.3352 12.7188 48.0729 12.7188 47.7493Z" fill="#FEDF30"/>
<path d="M40.9535 38.0151L30.1204 27.4224C29.8927 27.1997 29.5289 27.1997 29.3012 27.4224L8.08764 48.1651C8.19358 48.27 8.33901 48.3351 8.4999 48.3351H34.1655C34.2138 43.7365 36.9919 39.7808 40.9535 38.0151Z" fill="#FED402"/>
<path d="M32.1717 29.4281L30.1204 27.4224C29.8927 27.1997 29.5289 27.1997 29.3012 27.4224L8.08764 48.1651C8.19358 48.27 8.33901 48.3351 8.4999 48.3351H13.4218C13.261 48.3351 13.1155 48.2701 13.0095 48.1651L32.1717 29.4281Z" fill="#FAC600"/>
<path d="M36.704 16.0501H22.716C22.2307 16.0501 21.8371 15.6565 21.8371 15.1711C21.8371 14.6858 22.2307 14.2922 22.716 14.2922H36.7039C37.1893 14.2922 37.5828 14.6858 37.5828 15.1711C37.5828 15.6565 37.1894 16.0501 36.704 16.0501Z" fill="#60B7FF"/>
<path d="M36.704 20.2688H22.716C22.2307 20.2688 21.8371 19.8753 21.8371 19.3899C21.8371 18.9045 22.2307 18.511 22.716 18.511H36.7039C37.1893 18.511 37.5828 18.9045 37.5828 19.3899C37.5828 19.8753 37.1894 20.2688 36.704 20.2688Z" fill="#60B7FF"/>
<path d="M36.704 24.4875H22.716C22.2307 24.4875 21.8371 24.094 21.8371 23.6086C21.8371 23.1233 22.2307 22.7297 22.716 22.7297H36.7039C37.1893 22.7297 37.5828 23.1233 37.5828 23.6086C37.5828 24.094 37.1894 24.4875 36.704 24.4875Z" fill="#60B7FF"/>
<path d="M45.8789 60C52.2539 60 57.4219 54.832 57.4219 48.457C57.4219 42.082 52.2539 36.9141 45.8789 36.9141C39.5039 36.9141 34.3359 42.082 34.3359 48.457C34.3359 54.832 39.5039 60 45.8789 60Z" fill="white"/>
<path d="M41.1582 54.7996C39.2241 53.3563 37.9693 51.0505 37.9693 48.457C37.9693 45.8636 39.2241 43.5579 41.1582 42.1145C42.7901 39.639 45.3477 37.8277 48.3398 37.1779C47.5467 37.0056 46.7236 36.9141 45.8789 36.9141C39.5039 36.9141 34.3359 42.082 34.3359 48.457C34.3359 54.832 39.5039 60 45.8789 60C46.7236 60 47.5467 59.9085 48.3398 59.7362C45.3476 59.0863 42.7901 57.275 41.1582 54.7996Z" fill="#F4F4F4"/>
<path d="M46.0068 40.5474H45.8789C41.5175 40.5474 37.9692 44.0956 37.9692 48.4571C37.9692 52.8185 41.5174 56.3667 45.8789 56.3667H49.7091C50.1945 56.3667 50.588 55.9732 50.588 55.4878C50.588 55.0024 50.1945 54.6089 49.7091 54.6089H45.8789C42.4868 54.6089 39.727 51.8493 39.727 48.4571C39.727 45.0648 42.4867 42.3052 45.8789 42.3052H46.0068C49.3284 42.3052 52.0308 45.0075 52.0308 48.3292V49.6314C52.0308 50.4024 51.4035 51.0296 50.6325 51.0296H50.2092V45.0056C50.2092 44.5203 49.8157 44.1267 49.3303 44.1267C48.8545 44.1267 48.4679 44.5051 48.4528 44.9773C47.7327 44.4433 46.8422 44.1267 45.8789 44.1267C43.4912 44.1267 41.5486 46.0694 41.5486 48.4571C41.5486 50.8448 43.4912 52.7874 45.8789 52.7874H50.6325C52.3727 52.7874 53.7886 51.3716 53.7886 49.6314V48.3292C53.7886 44.0384 50.2977 40.5474 46.0068 40.5474ZM48.4514 51.0296H45.8789C44.4605 51.0296 43.3064 49.8755 43.3064 48.4571C43.3064 47.0386 44.4605 45.8846 45.8789 45.8846C47.2973 45.8846 48.4514 47.0386 48.4514 48.4571V51.0296Z" fill="url(#paint0_linear)"/>
<defs>
<linearGradient id="paint0_linear" x1="37.9692" y1="40.5474" x2="53.8591" y2="40.6916" gradientUnits="userSpaceOnUse">
<stop stop-color="#1557FF"/>
<stop offset="1" stop-color="#47A9E1"/>
</linearGradient>
</defs>
</svg>
