<svg width="24" height="24" viewBox="0 0 24 24" fill="none" xmlns="http://www.w3.org/2000/svg">
<path fill-rule="evenodd" clip-rule="evenodd" d="M12.0001 22.4001C12.5744 22.4001 13.0401 21.9345 13.0401 21.3601L13.0401 13.0403H21.3601C21.9345 13.0403 22.4001 12.5746 22.4001 12.0003C22.4001 11.4259 21.9345 10.9603 21.3601 10.9603H13.0401L13.0401 2.6401C13.0401 2.06572 12.5744 1.6001 12.0001 1.6001C11.4257 1.6001 10.9601 2.06572 10.9601 2.6401L10.9601 10.9603H2.6401C2.06572 10.9603 1.6001 11.4259 1.6001 12.0003C1.6001 12.5746 2.06572 13.0403 2.6401 13.0403H10.9601L10.9601 21.3601C10.9601 21.9345 11.4257 22.4001 12.0001 22.4001Z" fill="#333333"/>
</svg>
