<svg width="305" height="385" viewBox="0 0 305 385" fill="none" xmlns="http://www.w3.org/2000/svg">
<g clip-path="url(#clip0)">
<path d="M0.476166 0.0187988H304.524V385.103H0.476166V0.0187988Z" fill="#D8D8D8"/>
<path d="M0.476166 0.0187988H304.524V385.103H0.476166V0.0187988ZM19.4791 42.8059H285.521V366.086H19.4791V42.8059Z" fill="#1557FF" fill-opacity="0.74"/>
<path d="M19.4792 42.8059H285.521V366.086H19.4792V42.8059Z" fill="#E0F2FC"/>
<path d="M266.518 347.07H285.521V366.086H266.518V347.07ZM19.4792 347.07H38.4821V366.086H19.4792V347.07Z" fill="#1557FF" fill-opacity="0.74"/>
<path d="M152.5 285.266C225.965 285.266 285.521 225.668 285.521 152.151C285.521 78.6329 225.965 19.0352 152.5 19.0352C79.0346 19.0352 19.4792 78.6329 19.4792 152.151C19.4792 225.668 79.0346 285.266 152.5 285.266Z" fill="#E0F2FC"/>
<path d="M152.5 285.266C225.965 285.266 285.521 225.668 285.521 152.151C285.521 78.6329 225.965 19.0352 152.5 19.0352C79.0346 19.0352 19.4792 78.6329 19.4792 152.151C19.4792 225.668 79.0346 285.266 152.5 285.266Z" fill="white"/>
<path d="M75.5379 133.134V113.642H68.8869L68.4118 117.921C67.9367 120.773 67.9367 122.675 67.4616 124.577C66.9866 126.478 66.5115 127.905 66.0364 129.331C65.5613 130.282 65.0863 131.232 64.1361 131.708C63.186 132.183 62.7109 133.134 61.7607 133.134C60.8106 133.134 60.3355 133.134 59.3854 133.134V128.855C59.8605 128.855 60.3355 128.855 60.3355 128.855C60.8106 128.855 60.8106 128.38 61.2857 127.905C61.7607 127.429 62.2358 126.478 62.2358 125.528C62.7109 124.577 62.7109 123.15 63.186 121.249C63.661 119.347 63.661 116.97 64.1361 114.118L64.6112 109.364H79.3385V133.134H75.5379Z" fill="#727272"/>
<path d="M89.7902 133.134H85.9896V109.839H90.2652V126.479L102.617 109.839H106.418V133.134H102.142V116.495L89.7902 133.134Z" fill="#727272"/>
<path d="M112.594 133.134V109.839H116.869V129.331H126.846V109.839H131.122V129.331H134.447V137.413H130.647V133.134H112.594Z" fill="#727272"/>
<path d="M138.248 133.134V109.839H151.55V113.642H142.048V119.347H150.6V123.151H142.048V129.331H151.55V133.134H138.248Z" fill="#727272"/>
<path d="M171.978 133.134V123.151H161.526V133.134H157.251V109.839H161.526V119.347H171.978V109.839H176.254V133.134H171.978Z" fill="#727272"/>
<path d="M188.131 133.609C186.23 133.609 184.805 133.134 183.38 132.659C181.955 131.708 181.004 130.757 180.054 129.806L182.43 126.954C183.38 127.905 183.855 128.38 185.28 128.855C186.23 129.331 187.18 129.806 188.131 129.806C189.556 129.806 190.506 129.331 190.981 128.855C191.931 128.38 192.406 127.429 192.406 126.478C192.406 125.528 191.931 124.577 191.456 124.101C190.981 123.626 189.556 123.15 188.606 123.15H185.755V119.347H188.131C189.081 119.347 190.031 118.872 190.506 118.396C190.981 117.921 191.456 116.97 191.456 116.019C191.456 115.068 190.981 114.118 190.506 113.642C190.031 113.167 189.081 112.691 188.131 112.691C186.23 112.691 184.805 113.642 183.38 115.068L181.004 113.167C181.955 112.216 182.905 111.265 184.33 110.314C185.755 109.839 187.18 109.364 188.606 109.364C190.506 109.364 192.406 109.839 193.831 111.265C195.257 112.216 195.732 114.118 195.732 116.019C195.732 116.97 195.257 117.921 194.782 118.872C194.307 119.823 193.356 120.773 192.406 121.249C193.831 121.724 194.782 122.2 195.257 123.15C195.732 124.101 196.207 125.528 196.207 126.478C196.207 128.38 195.257 130.282 193.831 131.232C192.406 132.659 190.506 133.609 188.131 133.609Z" fill="#727272"/>
<path d="M205.708 133.134H201.908V109.839H206.183V126.479L218.535 109.839H222.336V133.134H218.06V116.495L205.708 133.134Z" fill="#727272"/>
<path d="M238.964 133.134V125.052H235.638L229.937 133.134H225.186L231.362 124.101C229.937 123.626 228.987 122.675 228.512 121.724C227.562 120.774 227.562 119.347 227.562 117.921C227.562 115.544 228.512 113.642 229.937 112.216C231.362 110.79 233.738 109.839 237.063 109.839C237.538 109.839 238.488 109.839 239.914 109.839C241.339 109.839 242.289 109.839 242.764 109.839V133.134H238.964ZM235.163 121.249H238.964V113.642C238.013 113.642 237.063 113.642 236.588 113.642C235.163 113.642 234.213 114.118 233.263 114.593C232.312 115.544 231.837 116.495 231.837 117.446C231.837 118.397 232.312 119.347 232.788 119.823C233.263 120.298 234.213 121.249 235.163 121.249Z" fill="#727272"/>
<path d="M82.6641 296.201H224.711M95.4911 210.626H209.509H95.4911ZM95.4911 75.134H209.509H95.4911ZM43.2329 174.971H66.9866H43.2329ZM185.755 174.971H262.717H185.755ZM81.2388 174.971H95.4911H81.2388ZM176.254 348.496H200.007H176.254ZM209.509 348.496H257.016H209.509ZM82.6641 239.151H224.711H82.6641ZM82.6641 258.168H224.711H82.6641ZM82.6641 277.184H224.711H82.6641Z" stroke="#727272" stroke-width="0.5" stroke-linecap="square"/>
<path d="M152.5 61.8223C160.371 61.8223 166.752 55.4369 166.752 47.56C166.752 39.6831 160.371 33.2976 152.5 33.2976C144.629 33.2976 138.248 39.6831 138.248 47.56C138.248 55.4369 144.629 61.8223 152.5 61.8223Z" fill="#EADCC8"/>
</g>
<defs>
<clipPath id="clip0">
<rect width="305" height="385" fill="white"/>
</clipPath>
</defs>
</svg>
