<svg width="21" height="20" viewBox="0 0 21 20" fill="none" xmlns="http://www.w3.org/2000/svg">
<path d="M10.1183 1.54528C10.3138 0.918827 11.2094 0.918826 11.4049 1.54528L12.9993 6.65355C13.0864 6.93289 13.3473 7.12339 13.6426 7.12339L18.871 7.12339C19.5151 7.12339 19.7916 7.93271 19.2798 8.31983L14.9927 11.5624C14.7685 11.7321 14.6748 12.0221 14.7581 12.289L16.3818 17.4913C16.5753 18.1114 15.8507 18.6119 15.3297 18.2179L11.1704 15.0719C10.929 14.8894 10.5942 14.8894 10.3529 15.0719L6.19351 18.2179C5.67256 18.6119 4.94788 18.1114 5.14143 17.4913L6.76509 12.289C6.8484 12.0221 6.75477 11.7321 6.53053 11.5625L2.24343 8.31983C1.73162 7.93271 2.00812 7.12339 2.65219 7.12339L7.88065 7.12339C8.17594 7.12339 8.43678 6.93289 8.52397 6.65355L10.1183 1.54528Z" fill="#F2994A"/>
</svg>
