<svg width="24" height="24" viewBox="0 0 24 24" fill="none" xmlns="http://www.w3.org/2000/svg">
<path d="M12 24C18.6274 24 24 18.6274 24 12C24 5.37258 18.6274 0 12 0C5.37258 0 0 5.37258 0 12C0 18.6274 5.37258 24 12 24Z" fill="#039BE5"/>
<path d="M5.49077 11.74L17.0608 7.27896C17.5978 7.08496 18.0668 7.40996 17.8928 8.22196L17.8938 8.22096L15.9238 17.502C15.7778 18.16 15.3868 18.32 14.8398 18.01L11.8398 15.799L10.3928 17.193C10.2328 17.353 10.0978 17.488 9.78777 17.488L10.0008 14.435L15.5608 9.41196C15.8028 9.19896 15.5068 9.07896 15.1878 9.29096L8.31678 13.617L5.35477 12.693C4.71177 12.489 4.69777 12.05 5.49077 11.74Z" fill="white"/>
</svg>
