<svg width="24" height="24" viewBox="0 0 24 24" fill="none" xmlns="http://www.w3.org/2000/svg">
<g clip-path="url(#clip0)">
<path d="M23.1546 13.893C23.8706 7.86596 22.8106 4.06096 20.8986 2.33996L20.8996 2.33896C17.8136 -0.600036 7.39159 -1.03504 3.69959 2.47096C2.04159 4.18596 1.45759 6.70296 1.39359 9.81896C1.32959 12.936 1.25359 18.775 6.69459 20.359H6.69959L6.69459 22.778C6.69459 22.778 6.65759 23.758 7.28359 23.955C7.99959 24.187 8.32359 23.732 10.5506 21.072C14.2746 21.395 17.1346 20.655 17.4596 20.547C18.2116 20.295 22.4666 19.732 23.1546 13.893ZM10.9176 19.37C10.9176 19.37 8.56059 22.309 7.82759 23.072C7.58759 23.32 7.32459 23.297 7.32859 22.805C7.32859 22.482 7.34659 18.789 7.34659 18.789C2.73359 17.467 3.00559 12.495 3.05559 9.89396C3.10559 7.29196 3.58159 5.16096 4.98559 3.72596C8.22459 0.688964 17.3616 1.36796 19.6896 3.55596C22.5356 6.07896 21.5226 13.207 21.5286 13.45C20.9436 18.324 17.4956 18.633 16.8616 18.844C16.5906 18.934 14.0756 19.581 10.9176 19.37Z" fill="#8E24AA"/>
<path d="M12.2219 4.29691C11.8369 4.29691 11.8369 4.89691 12.2219 4.90191C15.2089 4.92491 17.6689 7.00691 17.6959 10.8259C17.6959 11.2289 18.2859 11.2239 18.2809 10.8209H18.2799C18.2479 6.70591 15.5619 4.31991 12.2219 4.29691Z" fill="#8E24AA"/>
<path d="M16.151 10.193C16.142 10.591 16.731 10.61 16.736 10.207C16.785 7.93797 15.3859 6.06898 12.7569 5.87198C12.3719 5.84398 12.3319 6.44898 12.7159 6.47698C14.9959 6.64998 16.197 8.20598 16.151 10.193Z" fill="#8E24AA"/>
<path d="M15.5207 12.7739C15.0267 12.4879 14.5237 12.6659 14.3157 12.9469L13.8807 13.5099C13.6597 13.7959 13.2467 13.7579 13.2467 13.7579C10.2327 12.9609 9.42672 9.80694 9.42672 9.80694C9.42672 9.80694 9.38972 9.37994 9.66572 9.15094L10.2097 8.70094C10.4817 8.48494 10.6537 7.96494 10.3767 7.45394C9.63672 6.11694 9.13972 5.65594 8.88672 5.30194C8.62072 4.96894 8.22072 4.89394 7.80472 5.11894H7.79572C6.93072 5.62494 5.98373 6.57194 6.28673 7.54694C6.80372 8.57494 7.75372 11.8519 10.7817 14.3279C12.2047 15.4989 14.4567 16.6989 15.4127 16.9759L15.4217 16.9899C16.3637 17.3039 17.2797 16.3199 17.7687 15.4289V15.4219C17.9857 14.9909 17.9137 14.5829 17.5967 14.3159C17.0347 13.7679 16.1867 13.1629 15.5207 12.7739Z" fill="#8E24AA"/>
<path d="M13.1689 8.10395C14.1299 8.15995 14.5959 8.66195 14.6459 9.69295C14.6639 10.096 15.2489 10.068 15.2309 9.66495C15.1669 8.31895 14.4649 7.56895 13.2009 7.49895C12.8159 7.47595 12.7799 8.08095 13.1689 8.10395Z" fill="#8E24AA"/>
</g>
<defs>
<clipPath id="clip0">
<rect width="24" height="24" fill="white"/>
</clipPath>
</defs>
</svg>
