<svg width="24" height="24" viewBox="0 0 24 24" fill="none" xmlns="http://www.w3.org/2000/svg">
<path d="M12 24C18.6274 24 24 18.6274 24 12C24 5.37258 18.6274 0 12 0C5.37258 0 0 5.37258 0 12C0 18.6274 5.37258 24 12 24Z" fill="#4D76A1"/>
<path fill-rule="evenodd" clip-rule="evenodd" d="M11.5467 17.2631H12.4885C12.4885 17.2631 12.773 17.2319 12.9183 17.0753C13.0519 16.9315 13.0477 16.6616 13.0477 16.6616C13.0477 16.6616 13.0293 15.3978 13.6158 15.2117C14.194 15.0284 14.9365 16.4331 15.7235 16.9732C16.3186 17.382 16.7708 17.2924 16.7708 17.2924L18.875 17.2631C18.875 17.2631 19.9758 17.1953 19.4539 16.3298C19.4111 16.259 19.1499 15.6896 17.8893 14.5195C16.5699 13.2948 16.7466 13.4929 18.336 11.3745C19.3039 10.0844 19.6909 9.29681 19.57 8.95947C19.4547 8.63818 18.7428 8.7231 18.7428 8.7231L16.3736 8.73786C16.3736 8.73786 16.1979 8.7139 16.0677 8.79176C15.9404 8.86813 15.8585 9.04611 15.8585 9.04611C15.8585 9.04611 15.4835 10.0444 14.9834 10.8934C13.9283 12.685 13.5065 12.7795 13.3341 12.6683C12.933 12.409 13.0331 11.6267 13.0331 11.071C13.0331 9.33489 13.2964 8.61101 12.5204 8.42362C12.2628 8.36138 12.0733 8.3203 11.4147 8.31367C10.5693 8.3049 9.85376 8.31624 9.44861 8.51475C9.17908 8.64673 8.97116 8.94086 9.0978 8.95776C9.25438 8.97872 9.60905 9.05338 9.79707 9.30943C10.0399 9.63971 10.0313 10.3816 10.0313 10.3816C10.0313 10.3816 10.1708 12.4253 9.70552 12.6792C9.38615 12.8533 8.94806 12.4978 8.00749 10.8725C7.52555 10.0399 7.16169 9.11969 7.16169 9.11969C7.16169 9.11969 7.09152 8.94771 6.96638 8.85572C6.81451 8.74428 6.60231 8.70877 6.60231 8.70877L4.35089 8.72353C4.35089 8.72353 4.01291 8.73294 3.88884 8.8799C3.77846 9.0106 3.88007 9.28098 3.88007 9.28098C3.88007 9.28098 5.6427 13.4048 7.63849 15.4829C9.46851 17.3882 11.5467 17.2631 11.5467 17.2631Z" fill="white"/>
</svg>
