<svg width="24" height="24" viewBox="0 0 24 24" fill="none" xmlns="http://www.w3.org/2000/svg">
<g clip-path="url(#clip0)">
<path d="M0.557544 24C0.422779 24 0.291675 23.9467 0.194446 23.8484C0.0662722 23.7188 0.0168337 23.5305 0.0649905 23.3546L1.62523 17.657C0.653858 15.9005 0.141712 13.9135 0.142444 11.8964C0.145191 5.33661 5.48345 0 12.0427 0C15.2241 0.00128174 18.2135 1.24054 20.4604 3.48907C22.7069 5.73779 23.9436 8.72699 23.9427 11.9059C23.9397 18.4658 18.6015 23.8028 12.0427 23.8028C12.0427 23.8028 12.0377 23.8028 12.0375 23.8028C10.1217 23.8021 8.22234 23.3351 6.53118 22.4507L0.687 23.9833C0.644153 23.9945 0.600574 24 0.557544 24Z" fill="#64B161"/>
<path d="M0.557617 23.4893L2.17334 17.5891C1.1767 15.8622 0.652466 13.9034 0.653198 11.8965C0.655762 5.61841 5.76477 0.510681 12.0427 0.510681C15.0892 0.511963 17.9488 1.69775 20.0992 3.84998C22.2494 6.0022 23.4332 8.86304 23.4321 11.9057C23.4293 18.1837 18.3196 23.2921 12.0427 23.2921C12.0424 23.2921 12.0429 23.2921 12.0427 23.2921H12.0378C10.1317 23.2914 8.25885 22.8133 6.59534 21.906L0.557617 23.4893ZM6.87494 19.8448L7.22083 20.0497C8.67395 20.9121 10.34 21.3682 12.0391 21.3691H12.0427C17.2601 21.3691 21.5067 17.1233 21.5089 11.905C21.5098 9.3761 20.5262 6.99811 18.7389 5.20935C16.9514 3.42059 14.5749 2.43494 12.0462 2.43384C6.82458 2.43384 2.57819 6.67914 2.57617 11.8973C2.57544 13.6855 3.07568 15.4268 4.02344 16.9338L4.24866 17.2919L3.29211 20.7841L6.87494 19.8448Z" fill="white"/>
<path d="M0.953613 23.0918L2.51349 17.3956C1.55109 15.7286 1.04517 13.8373 1.04572 11.9002C1.0481 5.83942 5.98041 0.908569 12.0406 0.908569C14.9821 0.909851 17.7427 2.05463 19.8182 4.13232C21.8943 6.21002 23.0369 8.9718 23.0358 11.9088C23.0332 17.9698 18.1007 22.9012 12.0412 22.9012C12.0406 22.9012 12.0414 22.9012 12.0412 22.9012H12.0363C10.1962 22.9005 8.38806 22.4387 6.78223 21.5634L0.953613 23.0918Z" fill="#64B161"/>
<path d="M0.557617 23.4893L2.17334 17.5891C1.1767 15.8622 0.652466 13.9034 0.653198 11.8965C0.655762 5.61841 5.76477 0.510681 12.0427 0.510681C15.0892 0.511963 17.9488 1.69775 20.0992 3.84998C22.2494 6.0022 23.4332 8.86304 23.4321 11.9057C23.4293 18.1837 18.3196 23.2921 12.0427 23.2921H12.0378C10.1317 23.2914 8.25885 22.8133 6.59534 21.906L0.557617 23.4893ZM6.87494 19.8448L7.22083 20.0497C8.67395 20.9121 10.34 21.3682 12.0391 21.3691H12.0427C17.2601 21.3691 21.5067 17.1233 21.5089 11.905C21.5098 9.3761 20.5262 6.99811 18.7389 5.20935C16.9514 3.42059 14.5749 2.43494 12.0462 2.43384C6.82458 2.43384 2.57819 6.67914 2.57617 11.8973C2.57544 13.6855 3.07568 15.4268 4.02344 16.9338L4.24866 17.2919L3.29211 20.7841L6.87494 19.8448Z" fill="white"/>
<path fill-rule="evenodd" clip-rule="evenodd" d="M9.19622 7.13648C8.98309 6.6626 8.7586 6.65308 8.55572 6.64484C8.38983 6.6377 8.19995 6.63806 8.01043 6.63806C7.82074 6.63806 7.51239 6.70948 7.25165 6.9942C6.99072 7.27893 6.25537 7.96741 6.25537 9.36762C6.25537 10.768 7.27527 12.121 7.41754 12.311C7.55981 12.5009 9.38629 15.4661 12.2788 16.6069C14.6828 17.555 15.1719 17.3664 15.6937 17.319C16.2156 17.2715 17.3774 16.6305 17.6145 15.966C17.8518 15.3015 17.8518 14.7321 17.7806 14.6129C17.7093 14.4944 17.5196 14.4232 17.2351 14.2809C16.9505 14.1386 15.5514 13.45 15.2905 13.3551C15.0296 13.2601 14.8399 13.2128 14.6502 13.4977C14.4603 13.7823 13.9154 14.4232 13.7493 14.6129C13.5832 14.8031 13.4172 14.8269 13.1326 14.6845C12.8481 14.5418 11.9315 14.2415 10.8442 13.272C9.99823 12.5178 9.42694 11.5861 9.26086 11.3012C9.09497 11.0167 9.25811 10.876 9.38592 10.7206C9.61608 10.4406 10.0023 9.93726 10.0971 9.74756C10.192 9.5575 10.1445 9.39142 10.0735 9.24897C10.0023 9.10669 9.44909 7.69934 9.19622 7.13648Z" fill="white"/>
</g>
<defs>
<clipPath id="clip0">
<rect width="24" height="24" fill="white"/>
</clipPath>
</defs>
</svg>
