<svg width="20" height="20" viewBox="0 0 20 20" fill="none" xmlns="http://www.w3.org/2000/svg">
<path d="M19.582 4.49845C19.352 3.51497 18.6744 2.74052 17.8138 2.47768C16.2542 2 10 2 10 2C10 2 3.7458 2 2.18614 2.47768C1.32557 2.74052 0.647841 3.51497 0.417841 4.49845C2.16744e-07 6.2809 0 10 0 10C0 10 2.16744e-07 13.719 0.417841 15.5017C0.647841 16.485 1.32557 17.2595 2.18614 17.5225C3.7458 18 10 18 10 18C10 18 16.2542 18 17.8138 17.5225C18.6744 17.2595 19.352 16.485 19.582 15.5017C20 13.719 20 10 20 10C20 10 20 6.2809 19.582 4.49845Z" fill="#333333" fill-opacity="0.4"/>
<path d="M8.33331 12.9167L13.125 9.70723L8.33331 6.49753V12.9167Z" fill="white"/>
</svg>
