<svg width="20" height="20" viewBox="0 0 20 20" fill="none" xmlns="http://www.w3.org/2000/svg">
<g clip-path="url(#clip0)">
<path fill-rule="evenodd" clip-rule="evenodd" d="M9.88982 0C5.7679 0.000391808 2.91176 0.0141051 1.44568 1.44577C0.0140939 2.91152 0.000377665 5.90179 0.000377665 9.88963C4.4284 9.756 6.45332 9.64513 8.06832 8.06808C9.64528 6.45308 9.7562 4.42821 9.88982 0ZM1.44543 18.5544C0.0138383 17.0886 0.00012207 14.0984 0.00012207 10.1105C4.42815 10.2442 6.45307 10.355 8.06807 11.9321C9.64503 13.5471 9.75595 15.572 9.88957 19.9998C5.76765 19.9998 2.91151 19.9865 1.44543 18.5544ZM10.1106 19.9998C10.2442 15.572 10.3552 13.5471 11.9322 11.9321C13.5471 10.355 15.572 10.2442 20.0001 10.1105C19.9997 14.0984 19.9859 17.0886 18.5544 18.5544C17.0883 19.9865 14.2326 19.9998 10.1106 19.9998ZM10.1106 0C10.2442 4.42821 10.3552 6.45308 11.9322 8.06808C13.5471 9.64513 15.572 9.756 20.0001 9.88963C19.9997 5.90179 19.9859 2.91152 18.5544 1.44577C17.0883 0.0141051 14.2326 0.000391808 10.1106 0Z" fill="#333333" fill-opacity="0.4"/>
<path fill-rule="evenodd" clip-rule="evenodd" d="M11.9322 11.9321C10.3552 13.5471 10.2442 15.572 10.1106 19.9998C14.2326 19.9998 17.0883 19.9865 18.5544 18.5544C19.9859 17.0886 19.9997 14.0984 20.0001 10.1105C15.5721 10.2442 13.5471 10.355 11.9322 11.9321ZM0.00012207 10.1105C0.00012207 14.0984 0.0138383 17.0886 1.44543 18.5544C2.91151 19.9865 5.76765 19.9998 9.88957 19.9998C9.75595 15.572 9.64503 13.5471 8.06807 11.9321C6.45307 10.355 4.42815 10.2442 0.00012207 10.1105ZM9.88982 0C5.7679 0.000391808 2.91176 0.0141051 1.44568 1.44577C0.0140939 2.91152 0.000377665 5.90179 0.000377665 9.88963C4.4284 9.756 6.45332 9.64513 8.06832 8.06808C9.64528 6.45308 9.7562 4.42821 9.88982 0ZM11.9322 8.06808C10.3552 6.45308 10.2442 4.42821 10.1106 0C14.2326 0.000391808 17.0883 0.0141051 18.5544 1.44577C19.9859 2.91152 19.9997 5.90179 20.0001 9.88963C15.5721 9.756 13.5471 9.64513 11.9322 8.06808Z" fill="url(#paint0_linear)"/>
<path fill-rule="evenodd" clip-rule="evenodd" d="M20 10.1112V10.0007V9.89057C15.5719 9.75657 13.547 9.64611 11.932 8.0687C10.355 6.45403 10.2441 4.4292 10.1105 0.000976562H9.99996H9.88946C9.75583 4.4292 9.64492 6.45403 8.06792 8.0687C6.45292 9.64611 4.428 9.75657 0 9.89057V10.0007V10.1112C4.428 10.2452 6.45292 10.3557 8.06792 11.9327C9.64492 13.5477 9.75583 15.5726 9.88946 20.0008H9.99996H10.1105C10.2441 15.5726 10.355 13.5477 11.932 11.9327C13.547 10.3557 15.5719 10.2452 20 10.1112Z" fill="white"/>
</g>
<defs>
<linearGradient id="paint0_linear" x1="20.0001" y1="19.9998" x2="20.0001" y2="0" gradientUnits="userSpaceOnUse">
<stop stop-color="white" stop-opacity="0.01"/>
<stop offset="0.47509" stop-color="white" stop-opacity="0.01"/>
<stop offset="0.76042" stop-color="white" stop-opacity="0.04271"/>
<stop offset="0.99531" stop-color="white" stop-opacity="0.09855"/>
<stop offset="1" stop-color="white" stop-opacity="0.1"/>
</linearGradient>
<clipPath id="clip0">
<rect width="20" height="20" fill="white"/>
</clipPath>
</defs>
</svg>
